<?xml version="1.0" standalone="no"?>
<!DOCTYPE svg PUBLIC "-//W3C//DTD SVG 1.1//EN" "http://www.w3.org/Graphics/SVG/1.1/DTD/svg11.dtd" >
<svg xmlns="http://www.w3.org/2000/svg" xmlns:xlink="http://www.w3.org/1999/xlink" version="1.1">
<metadata>
Created by FontForge 20190801 at Thu Jan 20 12:21:48 2011
 By www-data
(c) copyright by Fontbit
</metadata>
<defs>
<font id="EnSpoilerBold" horiz-adv-x="1139" >
  <font-face 
    font-family="EnSpoilerBold"
    font-weight="700"
    font-stretch="normal"
    units-per-em="2048"
    panose-1="2 11 8 4 2 2 2 2 2 4"
    ascent="1638"
    descent="-410"
    x-height="981"
    cap-height="1466"
    bbox="-455 -665 2195 2124"
    underline-thickness="150"
    underline-position="-292"
    unicode-range="U+0020-F002"
  />
<missing-glyph horiz-adv-x="1024" 
d="M128 0v1854h768v-1854h-768zM256 128h512v1598h-512v-1598z" />
    <glyph glyph-name=".notdef" horiz-adv-x="1024" 
d="M128 0v1854h768v-1854h-768zM256 128h512v1598h-512v-1598z" />
    <glyph glyph-name=".null" horiz-adv-x="0" 
 />
    <glyph glyph-name="nonmarkingreturn" horiz-adv-x="597" 
 />
    <glyph glyph-name="space" unicode=" " horiz-adv-x="483" 
d="M0 1196z" />
    <glyph glyph-name="exclam" unicode="!" horiz-adv-x="677" 
d="M468 902q0 -222 -74 -458q-17 -51 -44 -51h-38q-21 0 -29 21q-3 18 -7 35q-77 252 -77 453v352q0 94 95 94h81q93 0 93 -94v-352zM488 120q0 -88 -31.5 -118t-114.5 -30q-84 0 -114.5 30t-30.5 118q0 92 28.5 122.5t116.5 30.5t116 -28q30 -31 30 -125z" />
    <glyph glyph-name="quotedbl" unicode="&#x22;" horiz-adv-x="620" 
d="M557 1281v-146q-1 -144 -95 -293q-38 -59 -69 -59q-19 0 -19 47l-1 447q0 52 51 52h86q48 0 47 -48zM270 1281l-1 -146q0 -144 -94 -293q-38 -59 -69 -59q-19 0 -19 47l-1 447q0 52 51 52h86q47 0 47 -48z" />
    <glyph glyph-name="numbersign" unicode="#" horiz-adv-x="1244" 
d="M1154 373q0 -30 -11 -38t-45 -8h-145v-271q0 -34 -8.5 -45t-37.5 -11h-113q-28 0 -35.5 11t-7.5 45v271h-245v-271q0 -34 -8.5 -45t-37.5 -11h-110q-30 0 -38 11t-8 45v271h-158q-34 0 -45.5 8t-11.5 38v84q0 30 11.5 38t45.5 8h158v299h-158q-34 0 -45.5 8t-11.5 38v84
q0 30 11.5 38t45.5 8h158v261q0 34 8 45t38 11h110q29 0 37.5 -11t8.5 -45v-261h245v261q0 34 7.5 45t35.5 11h113q29 0 37.5 -11t8.5 -45v-261h145q34 0 45 -8t11 -38v-84q0 -30 -11 -38t-45 -8h-145v-299h145q34 0 45 -8t11 -38v-84zM751 503v299h-245v-299h245z" />
    <glyph glyph-name="dollar" unicode="$" horiz-adv-x="1213" 
d="M1060 347q0 -155 -106 -253q-117 -107 -328 -107v-92q0 -34 -8.5 -45t-37.5 -11h-18q-30 0 -38 11t-8 45v92q-217 0 -350 56q-26 11 -26 44v81q0 57 52 49q236 -36 321 -36h3v394l-138 51q-225 83 -225 342q0 149 89 241q97 101 274 101v100q0 34 8 45t38 11h18
q29 0 37.5 -11t8.5 -45v-97q224 -6 318 -46q26 -11 26 -44v-74q0 -52 -51 -46q-134 18 -293 18v-340l138 -45q161 -54 228.5 -142t67.5 -247zM516 815v309q-143 0 -143 -113v-61q0 -53 38 -84q28 -23 105 -51zM817 332v64q0 79 -125 122l-66 23v-360q17 -2 34 -2
q157 0 157 153z" />
    <glyph glyph-name="percent" unicode="%" horiz-adv-x="1591" 
d="M1476 296q0 -322 -304 -322q-306 0 -306 322v16q0 173 72.5 246t233.5 73q166 0 235 -72t69 -247v-16zM1330 1226l-853 -1167q-31 -43 -32 -44q-16 -15 -42 -15h-116q-49 0 -49 41q0 15 11 31l861 1177q22 31 26 34q14 12 43 12h117q46 0 46 -37q0 -15 -12 -32zM725 983
q0 -319 -304 -319q-306 0 -306 319v16q0 175 74 250q71 71 232 71q166 0 235 -72t69 -249v-16zM1274 268v69q0 70 -16 97q-22 35 -86 35q-65 0 -88 -37q-16 -28 -16 -95v-69q0 -132 104 -132q102 0 102 132zM524 958v69q0 70 -17 97q-22 35 -86 35q-65 0 -88 -38
q-16 -27 -16 -94v-69q0 -133 104 -133q103 0 103 133z" />
    <glyph glyph-name="ampersand" unicode="&#x26;" horiz-adv-x="1247" 
d="M1248 76q17 -17 17 -41q0 -40 -42 -40h-101q-51 0 -77 29l-90 95q-121 -139 -404 -139h-101q-414 0 -414 319q0 189 138 288q36 26 202 125q-76 86 -102 149q-31 76 -31 198q0 332 320 332h14q161 0 237 -67q84 -74 84 -244q0 -235 -167 -346l-80 -53l287 -292
q18 67 18 145q0 9 1 37v35q0 49 51 49h119q42 0 49 -46q3 -17 3 -64q0 -178 -104 -294zM681 1019v52q0 92 -21 124q-20 29 -79 29h-16q-58 0 -79 -31q-18 -26 -18 -91v-104q0 -103 50 -159q28 -32 25 -32q3 0 6 2q78 53 99 81q33 45 33 129zM852 229l-353 357q-4 4 -5 3
l-158 -93q-56 -34 -56 -125v-65q0 -85 34 -110q48 -35 217 -35q131 0 186 9q83 13 135 59z" />
    <glyph glyph-name="quotesingle" unicode="'" horiz-adv-x="345" 
d="M270 1281l-1 -146q0 -144 -94 -293q-38 -59 -69 -59q-19 0 -19 47l-1 447q0 52 51 52h86q47 0 47 -48z" />
    <glyph glyph-name="parenleft" unicode="(" horiz-adv-x="608" 
d="M564 -372q-14 -12 -47 -12q-35 0 -55 21q-157 169 -252 389q-110 255 -110 526q0 260 117 534q101 237 247 400q14 15 51 14q32 -1 45 -9q17 -12 17 -26q0 -16 -20 -46q-81 -127 -143 -337q-73 -243 -73 -458v-144q0 -210 71 -445q62 -203 145 -335q33 -50 7 -72z" />
    <glyph glyph-name="parenright" unicode=")" horiz-adv-x="607" 
d="M507 552q0 -271 -110 -526q-95 -220 -252 -389q-20 -21 -55 -21q-32 0 -47 12q-26 22 7 72q83 132 145 335q71 235 71 445v144q0 215 -73 458q-62 210 -143 337q-20 30 -20 46q0 14 17 26q13 8 45 9q37 1 51 -14q146 -163 247 -400q117 -274 117 -534z" />
    <glyph glyph-name="asterisk" unicode="*" horiz-adv-x="999" 
d="M907 1159q-3 -75 -62 -74l-217 5l130 -181q20 -28 20 -51q0 -28 -35 -56q-27 -21 -46 -21q-29 0 -56 41l-146 228l-145 -230q-22 -35 -50 -35q-18 0 -50 19q-38 25 -38 51q0 19 18 44l140 191l-217 -5q-56 -1 -59 72q-1 37 11 55q14 22 51 22l214 -3l-120 169
q-17 23 -17 45q0 30 33 59q23 22 44 22q31 0 58 -45l130 -214l135 224q20 33 48 33q22 0 49 -20q35 -25 35 -52q0 -22 -19 -50l-118 -171l217 3q41 0 54 -23q9 -15 8 -52z" />
    <glyph glyph-name="plus" unicode="+" horiz-adv-x="871" 
d="M820 559q0 -31 -16 -40q-10 -6 -43 -6h-227v-237q0 -34 -8.5 -45t-37.5 -11h-105q-29 0 -37.5 11t-8.5 45v237h-230q-34 0 -45 8.5t-11 37.5v105q0 30 11 38t45 8h230v220q0 33 6 43q9 15 40 15h105q31 0 40 -15q6 -10 6 -43v-220h227q33 0 43 -6q16 -8 16 -40v-105z" />
    <glyph glyph-name="comma" unicode="," horiz-adv-x="382" 
d="M321 209l-38 -135q-38 -135 -189 -299q-28 -30 -51 -30q-20 0 -24 7q-5 7 1 33l97 432q13 59 74 59h84q51 0 51 -40q0 -12 -5 -27z" />
    <glyph glyph-name="hyphen" unicode="-" horiz-adv-x="871" 
d="M769 554q0 -31 -16 -40q-10 -6 -43 -6h-552q-34 0 -45 8.5t-11 37.5v120q0 30 11 38t45 8h552q33 0 43 -5q16 -9 16 -41v-120z" />
    <glyph glyph-name="hyphen" unicode="&#x2010;" horiz-adv-x="871" 
d="M769 554q0 -31 -16 -40q-10 -6 -43 -6h-552q-34 0 -45 8.5t-11 37.5v120q0 30 11 38t45 8h552q33 0 43 -5q16 -9 16 -41v-120z" />
    <glyph glyph-name="period" unicode="." horiz-adv-x="386" 
d="M331 117q0 -82 -29 -111t-109 -29q-82 0 -110 29t-28 111q0 85 24 113q27 33 114 33q85 0 111.5 -29t26.5 -117z" />
    <glyph glyph-name="slash" unicode="/" horiz-adv-x="871" 
d="M822 1374l-579 -1491q-23 -59 -74 -59h-110q-44 0 -44 37q0 15 8 34l585 1502q18 46 69 46h112q41 0 41 -34q0 -14 -8 -35z" />
    <glyph glyph-name="zero" unicode="0" horiz-adv-x="1078" 
d="M1001 644q0 -182 -14 -278q-19 -128 -73 -220q-98 -164 -362 -164h-26q-279 0 -373 164q-49 86 -65 211q-11 92 -11 287q0 187 12 281q18 133 72 223q98 165 365 165h26q279 0 372 -164q49 -86 65 -215q12 -94 12 -290zM754 525v234q0 204 -37 270q-43 76 -183 76h-8
q-144 0 -183 -107q-19 -53 -19 -229v-233q0 -204 37 -270q43 -76 183 -76h8q143 0 182 107q20 53 20 228z" />
    <glyph glyph-name="one" unicode="1" horiz-adv-x="1078" 
d="M774 60q0 -60 -56 -60h-141q-55 0 -55 60v967q-106 -23 -267 -12q-43 2 -43 46v79q0 54 35 57l60 5q146 12 232 60q53 30 77 30h105q53 0 53 -52v-1180z" />
    <glyph glyph-name="two" unicode="2" horiz-adv-x="1078" 
d="M1001 54q0 -54 -52 -54h-812q-60 0 -60 54v92q0 44 39 82l485 465q106 101 106 201v43q0 101 -51 134q-54 34 -218 34h-6q-131 0 -242 -13q-27 -3 -34 4.5t-7 34.5v114q0 28 22 37q70 31 352 31h11q226 0 327 -98q91 -88 91 -269q0 -228 -177 -390l-375 -343h549
q52 0 52 -55v-104z" />
    <glyph glyph-name="three" unicode="3" horiz-adv-x="1078" 
d="M981 362q0 -380 -479 -380h-10q-291 0 -374 36q-21 9 -21 37v117q0 49 51 41q153 -23 305 -23h5q163 0 216.5 30t53.5 125v110q0 81 -57 109q-42 20 -150 20h-219q-57 0 -57 59v76q0 59 57 59h234q80 0 110 25t30 94v92q0 85 -84 107q-34 9 -157 9h-5q-149 0 -238 -10
q-26 -4 -33 4t-7 35v114q0 30 18 37q71 28 325 28h10q225 0 318 -63q98 -66 98 -232q0 -110 -35.5 -169t-126.5 -103q-18 -9 -18 -19q0 -8 13 -13l42 -16q95 -35 136 -101q49 -78 49 -235z" />
    <glyph glyph-name="four" unicode="4" horiz-adv-x="1078" 
d="M1039 370q0 -55 -52 -55h-119v-255q0 -60 -57 -60h-119q-52 0 -52 60v255h-545q-13 0 -27 15.5t-14 36.5v99q0 43 12 63l409 705q34 58 84 58h244q65 0 65 -67v-712h119q52 0 52 -55v-88zM640 513v584h-33l-323 -584h356z" />
    <glyph glyph-name="five" unicode="5" horiz-adv-x="1078" 
d="M978 388q0 -406 -486 -406h-10q-251 0 -346 41q-21 9 -21 37v117q0 45 30 43q39 -2 139 -17q88 -13 140 -13h6q168 0 214 18q84 35 84 162v64q0 114 -67 151q-46 24 -166 24h-302q-34 0 -41.5 5.5t-7.5 31.5v594q0 52 62 52h613q55 0 55 -54v-104q0 -52 -55 -52h-441
v-278l122 5q30 2 57 2q219 0 317 -94q104 -99 104 -329z" />
    <glyph glyph-name="six" unicode="6" horiz-adv-x="1078" 
d="M986 414q0 -204 -114.5 -320.5t-311.5 -116.5h-24q-444 0 -444 416v509q0 411 390 411h10q306 0 376 -31q19 -8 19 -37v-111q0 -45 -44 -42q-160 13 -260 13h-31q-158 0 -194 -57q-18 -27 -22 -81q-2 -24 -2 -160v-70q0 -24 18 -24q10 0 21 11q58 58 109 75q33 11 101 11
h13q196 0 286 -80q104 -92 104 -316zM736 360v105q0 90 -41.5 129t-142.5 39h-39q-102 0 -131 -13q-48 -22 -48 -103v-157q0 -175 197 -175h8q112 0 157 44q40 39 40 131z" />
    <glyph glyph-name="seven" unicode="7" horiz-adv-x="1078" 
d="M1007 1212l-450 -1155q-5 -16 -21 -43q-12 -14 -39 -14h-158q-41 0 -41 47q0 15 6 31l408 1004h-565q-55 0 -55 57v101q0 52 55 52h822q48 0 48 -35q0 -17 -10 -45z" />
    <glyph glyph-name="eight" unicode="8" horiz-adv-x="1078" 
d="M1019 362q0 -211 -112 -308q-107 -92 -332 -92h-72q-228 0 -332 88q-112 94 -112 312q0 158 44 231q36 60 130 98l44 19q11 4 5 15q-7 11 -24 21q-81 47 -106 113q-18 49 -18 165q0 299 366 299h78q366 0 366 -299q0 -114 -19 -163q-26 -65 -107 -112q-11 -7 -18 -13
q-20 -19 1 -27l49 -18q92 -33 128 -96q41 -73 41 -233zM723 907v85q0 141 -158 141h-52q-157 0 -157 -141v-85q0 -144 142 -144h83q142 0 142 144zM785 332v58q0 120 -56 161q-45 33 -164 33h-52q-122 0 -165 -31q-55 -40 -55 -163v-58q0 -100 56 -137q51 -33 180 -33h20
q127 0 179 35q57 38 57 135z" />
    <glyph glyph-name="nine" unicode="9" horiz-adv-x="1078" 
d="M986 418q0 -183 -110 -303q-119 -130 -326 -130h-10q-249 0 -357 30q-18 5 -18 40v109q0 45 43 41q161 -13 261 -13h31q155 0 202 53q42 47 42 198v92q0 19 -13 22q-12 2 -26 -11q-59 -59 -110 -75q-32 -11 -100 -11h-13q-198 0 -286 77q-104 90 -104 313q0 463 410 463
h40q444 0 444 -391v-504zM744 763v205q0 80 -41.5 108.5t-155.5 28.5h-8q-117 0 -157 -29.5t-40 -118.5v-156q0 -88 40.5 -120t143.5 -32h39q101 0 128 11q51 21 51 103z" />
    <glyph glyph-name="colon" unicode=":" horiz-adv-x="546" 
d="M411 848q0 -82 -29 -111.5t-109 -29.5q-82 0 -110 29t-28 112q0 84 24 112q27 33 114 33q85 0 111.5 -29t26.5 -116zM411 207q0 -82 -29 -111.5t-109 -29.5q-82 0 -110 29t-28 112q0 84 24 112q27 33 114 33q85 0 111.5 -29t26.5 -116z" />
    <glyph glyph-name="semicolon" unicode=";" horiz-adv-x="547" 
d="M414 848q0 -82 -28.5 -111.5t-109.5 -29.5q-82 0 -109.5 29t-27.5 112q0 84 23 112q28 33 114 33q85 0 111.5 -29t26.5 -116zM391 260l-38 -135q-38 -135 -189 -299q-28 -30 -51 -30q-20 0 -24 7q-5 7 1 34l97 431q13 59 74 59h84q51 0 51 -40q0 -12 -5 -27z" />
    <glyph glyph-name="less" unicode="&#x3c;" horiz-adv-x="871" 
d="M743 174q0 -34 -31 -34q-22 0 -53 18l-526 307q-56 33 -56 82v140q0 49 56 82l526 309q31 18 53 18q31 0 31 -34v-122q0 -43 -59 -74l-459 -248l459 -250q59 -32 59 -74v-120z" />
    <glyph glyph-name="equal" unicode="=" horiz-adv-x="871" 
d="M769 738q0 -31 -16 -39q-9 -4 -43 -4h-552q-34 0 -45 7t-11 36v123q0 29 11 36t45 7h552q34 0 43 -4q16 -8 16 -39v-123zM769 363q0 -32 -16 -41q-10 -5 -43 -5h-552q-34 0 -45 8t-11 38v120q0 29 11 37.5t45 8.5h552q33 0 43 -6q16 -9 16 -40v-120z" />
    <glyph glyph-name="greater" unicode="&#x3e;" horiz-adv-x="871" 
d="M781 547q0 -49 -56 -82l-526 -307q-31 -18 -53 -18q-31 0 -31 34v120q0 42 59 74l459 250l-459 248q-59 31 -59 74v122q0 34 31 34q23 0 53 -18l526 -309q56 -33 56 -82v-140z" />
    <glyph glyph-name="question" unicode="?" horiz-adv-x="963" 
d="M855 1021q0 -128 -49 -201q-41 -62 -150 -123l-35 -21q-112 -64 -136 -168l-13 -56q-14 -61 -48 -61h-70q-42 0 -48 28q-18 79 -18 107v34q0 161 156 260l84 53q42 27 50 36q19 21 19 62v68q0 80 -90 103q-38 9 -155 9h-5q-90 0 -209 -15q-54 -6 -54 46v97q0 34 23 44
q68 28 327 28h10q226 0 318.5 -73.5t92.5 -256.5zM533 120q0 -88 -31 -118t-114 -30q-84 0 -115 30t-31 118q0 92 29 122.5t117 30.5q87 0 116 -28q29 -31 29 -125z" />
    <glyph glyph-name="at" unicode="@" horiz-adv-x="1987" 
d="M1793 739q0 -240 -119 -390q-108 -135 -252 -135q-177 0 -250 121q-36 -74 -80 -99q-49 -29 -153 -29q-147 0 -232 105q-83 102 -83 268q0 443 423 443q160 0 251 -20q58 -13 58 -51v-547q0 -64 68 -64q154 0 154 325q0 335 -157 463q-128 105 -421 105q-322 0 -444 -134
q-125 -137 -125 -502q0 -327 152 -469q135 -127 420 -127q303 0 481 95q20 10 40 3q23 -8 23 -36v-61q0 -39 -41 -64q-208 -125 -499 -125q-802 0 -802 773q0 424 203 627q198 198 601 198q331 0 526 -128q258 -168 258 -545zM1150 490v400q-1 -2 -7 -2q-43 5 -65 5
q-99 0 -145 -29q-97 -62 -97 -270q0 -142 31 -194q32 -55 122 -55q65 0 111 37q50 40 50 108z" />
    <glyph glyph-name="A" unicode="A" horiz-adv-x="1187" 
d="M1163 51q7 -20 7 -29q0 -22 -41 -22h-154q-50 0 -66 55l-75 243h-474l-74 -243q-16 -55 -66 -55h-157q-41 0 -41 22q0 9 7 29l396 1212q16 49 64 49h212q48 0 65 -49zM780 489l-184 601l-186 -601h370z" />
    <glyph glyph-name="B" unicode="B" horiz-adv-x="1226" 
d="M1136 345q0 -345 -414 -345h-536q-49 0 -49 47v1220q0 45 49 45h535q325 0 325 -321v-41q0 -174 -165 -241q129 -15 188 -84q67 -79 67 -250v-30zM816 945q0 106 -22 134q-25 31 -119 31h-305v-328h303q98 0 122 32q21 27 21 131zM896 386q0 114 -29 157q-33 46 -124 46
h-373v-385h373q103 0 132 45q21 32 21 137z" />
    <glyph glyph-name="C" unicode="C" horiz-adv-x="1159" 
d="M1070 81q0 -44 -55 -58q-145 -34 -356 -34q-303 0 -427 132q-73 79 -104 192q-32 121 -32 342q0 271 42 395q37 113 142 187q121 87 379 87q165 0 347 -36q64 -13 64 -63v-96q0 -44 -75 -38q-128 11 -291 11q-186 0 -258 -37q-98 -50 -98 -200v-401q0 -152 84 -206
q68 -44 244 -44q231 0 325 5q38 3 49 -1q20 -7 20 -40v-97z" />
    <glyph glyph-name="D" unicode="D" horiz-adv-x="1307" 
d="M1197 655q0 -219 -33 -339q-30 -109 -104 -188q-120 -128 -400 -128h-474q-49 0 -49 58v1202q0 52 52 52h445q274 0 379 -74.5t143 -187.5q41 -124 41 -395zM944 464v388q0 157 -72 212q-62 47 -229 47h-265v-906h278q164 0 222 47q66 54 66 212z" />
    <glyph glyph-name="E" unicode="E" horiz-adv-x="1148" 
d="M1062 50q0 -50 -49 -50h-827q-49 0 -49 47v1220q0 46 49 46h827q49 0 49 -49v-102q0 -52 -49 -52h-638v-328h579q50 0 50 -50v-100q0 -52 -50 -52h-579v-373h638q49 0 49 -53v-104z" />
    <glyph glyph-name="F" unicode="F" horiz-adv-x="1071" 
d="M1002 1162q0 -52 -49 -52h-579v-328h521q49 0 49 -50v-100q0 -52 -49 -52h-521v-530q0 -50 -47 -50h-141q-49 0 -49 47v1220q0 46 49 46h767q49 0 49 -49v-102z" />
    <glyph glyph-name="G" unicode="G" horiz-adv-x="1309" 
d="M1181 88q0 -37 -72 -55q-202 -48 -438 -48q-337 0 -455 127q-106 116 -106 340v370q0 245 113 364q128 134 420 134q265 0 471 -39q50 -10 50 -48v-96q0 -48 -58 -46q-257 9 -477 9q-168 0 -226 -55q-44 -43 -44 -149v-475q0 -133 42 -175q48 -48 202 -48q266 0 345 5
v340h-4h-276q-58 0 -58 49v110q0 49 55 49h445q45 0 58 -17.5t13 -62.5v-583z" />
    <glyph glyph-name="H" unicode="H" horiz-adv-x="1329" 
d="M1192 58q0 -58 -52 -58h-140q-50 0 -50 58v522h-572v-522q0 -58 -52 -58h-140q-49 0 -49 58v1202q0 52 52 52h140q49 0 49 -55v-475h572v478q0 52 52 52h140q50 0 50 -55v-1199z" />
    <glyph glyph-name="I" unicode="I" horiz-adv-x="514" 
d="M377 49q0 -49 -43 -49h-157q-40 0 -40 49v1220q0 43 43 43h157q40 0 40 -45v-1218z" />
    <glyph glyph-name="J" unicode="J" horiz-adv-x="521" 
d="M384 131q0 -230 -135 -340q-106 -88 -277 -88q-155 0 -168 59q-1 9 -1 23v93q0 39 57 36q43 -3 79 -3q112 0 159 42q51 47 51 164v1143q0 53 49 53h137q49 0 49 -46v-1136z" />
    <glyph glyph-name="K" unicode="K" horiz-adv-x="1216" 
d="M1189 52q13 -15 13 -27q0 -25 -38 -25h-193q-43 0 -81 46l-481 576q-18 22 -18 43q0 23 20 49l450 569q23 29 79 29h165q41 0 41 -29q0 -12 -9 -23l-479 -586zM378 58q0 -58 -52 -58h-140q-49 0 -49 58v1202q0 52 52 52h140q49 0 49 -55v-1199z" />
    <glyph glyph-name="L" unicode="L" horiz-adv-x="1020" 
d="M972 50q0 -50 -49 -50h-737q-49 0 -49 47v1220q0 46 49 46h139q49 0 49 -52v-1054h549q49 0 49 -53v-104z" />
    <glyph glyph-name="M" unicode="M" horiz-adv-x="1646" 
d="M1509 58q0 -58 -52 -58h-135q-50 0 -50 58v867l12 194l-342 -1068q-15 -50 -65 -50h-112q-49 0 -65 50l-337 1066l11 -203v-856q0 -58 -52 -58h-136q-49 0 -49 58v1202q0 52 52 52h273q50 0 66 -54l293 -961l297 961q17 54 67 54h275q49 0 49 -55v-1199z" />
    <glyph glyph-name="N" unicode="N" horiz-adv-x="1329" 
d="M1192 58q0 -58 -52 -58h-159q-44 0 -75 54l-541 949l13 -145v-800q0 -58 -52 -58h-140q-49 0 -49 58v1202q0 52 52 52h179q41 0 70 -50l525 -916l-13 155v759q0 52 52 52h140q50 0 50 -55v-1199z" />
    <glyph glyph-name="O" unicode="O" horiz-adv-x="1390" 
d="M1287 678q0 -346 -113 -503q-141 -195 -477 -195h-3q-182 0 -291 38q-125 44 -199 150q-103 148 -103 484q0 331 83 467q72 116 195 167q118 49 315 49h3q200 0 316 -45q122 -48 191 -160q83 -134 83 -452zM1043 538v240q0 202 -73 276q-63 65 -222 65h-124
q-149 0 -210 -67q-66 -73 -66 -263v-254q0 -185 68 -263t230 -78h102q154 0 222 75q73 80 73 269z" />
    <glyph glyph-name="P" unicode="P" horiz-adv-x="1158" 
d="M1082 886q0 -364 -414 -364h-184q-23 0 -106 23v-487q0 -58 -52 -58h-140q-49 0 -49 58v1202q0 52 52 52h544q153 0 248 -93q101 -99 101 -273v-60zM842 918q0 103 -19 138q-29 54 -126 54h-319v-389h317q98 0 124 40q23 34 23 157z" />
    <glyph glyph-name="Q" unicode="Q" horiz-adv-x="1406" 
d="M1373 -98q11 -14 11 -27q0 -26 -37 -24h-180q-45 2 -84 58l-96 139q-113 -69 -289 -69h-3q-182 0 -291 38q-125 44 -199 150q-104 148 -104 484q0 332 84 468q71 116 194 167q119 49 316 49h3q200 0 316 -45q122 -48 192 -160q83 -135 83 -453q0 -177 -17 -265
q-28 -143 -116 -234zM1044 524v267q0 200 -72 269q-61 58 -223 58h-124q-152 0 -210 -60q-66 -68 -66 -256v-281q0 -184 67 -256t231 -72h88q109 0 139 10l-139 194q-16 22 -16 39q0 22 29 22l159 -1q41 0 66 -34l49 -66q22 70 22 167z" />
    <glyph glyph-name="R" unicode="R" horiz-adv-x="1192" 
d="M1155 51q11 -14 11 -27q0 -24 -37 -24h-190q-49 0 -81 46l-340 481q-95 0 -109.5 3t-30.5 11v-483q0 -58 -52 -58h-140q-49 0 -49 58v1202q0 52 52 52h545q155 0 248 -86q101 -93 101 -267v-73q0 -301 -310 -349zM843 918q0 103 -19 138q-29 54 -126 54h-320v-375h318
q96 0 125 42q22 33 22 141z" />
    <glyph glyph-name="S" unicode="S" horiz-adv-x="1167" 
d="M1071 379q0 -220 -128 -312q-115 -83 -426 -83q-115 0 -324 41q-64 13 -64 64v89q0 44 75 38q187 -15 345 -15q180 0 222 23q47 24 47 124v71q0 123 -61 151q-29 14 -168 14h-115q-207 0 -295 91q-76 80 -76 272q0 89 16 143q29 101 116 163q99 71 341 71q205 0 334 -25
q64 -13 64 -64v-93q0 -36 -46 -38h-29q-27 0 -141 2q-119 1 -173 1q-160 0 -197.5 -21t-37.5 -113v-25q0 -68 4.5 -94.5t17.5 -39.5q32 -33 179 -32h71q254 0 354 -97q95 -92 95 -306z" />
    <glyph glyph-name="T" unicode="T" horiz-adv-x="1083" 
d="M1037 1159q0 -52 -49 -52h-328v-1060q0 -47 -49 -47h-139q-50 0 -50 52v1055h-325q-49 0 -49 52v105q0 49 49 49h891q49 0 49 -49v-105z" />
    <glyph glyph-name="U" unicode="U" horiz-adv-x="1328" 
d="M1191 410q0 -214 -113 -312q-123 -108 -409 -108q-292 0 -417 107q-115 99 -115 313v845q0 58 49 58h140q52 0 52 -58v-858q0 -110 39 -143q55 -48 247 -48q194 0 248 47q37 33 37 144v858q0 58 52 58h140q50 0 50 -58v-845z" />
    <glyph glyph-name="V" unicode="V" horiz-adv-x="1219" 
d="M1178 1257l-393 -1207q-16 -49 -65 -49h-228q-49 0 -65 49l-384 1207q-6 18 -6 28q0 28 43 28h147q59 0 73 -49l309 -1079l314 1086q12 42 69 42h147q44 0 44 -30q0 -10 -5 -26z" />
    <glyph glyph-name="W" unicode="W" horiz-adv-x="1880" 
d="M1839 1257l-279 -1206q-11 -50 -65 -50h-233q-52 0 -65 50l-255 982l-255 -982q-13 -50 -65 -50h-237q-54 0 -65 50l-279 1208q-14 61 39 61h151q52 0 62 -47l229 -1078l277 1069q9 35 26 47q12 9 34 9h166q45 0 61 -61l279 -1063l221 1077q10 47 73 47h141q53 0 39 -63z
" />
    <glyph glyph-name="X" unicode="X" horiz-adv-x="1306" 
d="M1265 63q17 -23 17 -38q0 -25 -38 -25h-179q-43 0 -81 52l-332 455l-330 -455q-37 -52 -81 -52h-180q-38 0 -38 25q0 15 17 38l469 628l-413 564q-10 14 -10 26q0 32 45 32h166q49 0 79 -42l278 -390l273 387q32 45 82 45h166q40 0 40 -36q0 -17 -12 -33l-404 -549z" />
    <glyph glyph-name="Y" unicode="Y" horiz-adv-x="1080" 
d="M1034 1257l-374 -636v-563q0 -58 -52 -58h-139q-50 0 -50 58v566l-370 628q-9 16 -9 29q0 32 41 32h173q51 0 72 -42l213 -421l217 423q21 40 70 40h173q43 0 43 -30q0 -12 -8 -26z" />
    <glyph glyph-name="Z" unicode="Z" horiz-adv-x="1082" 
d="M1054 52q0 -52 -49 -52h-924q-53 0 -53 54q0 24 11 42l635 1011h-545q-49 0 -49 52v105q0 49 49 49h836q53 0 53 -49q0 -23 -14 -45l-636 -1005h637q49 0 49 -50v-112z" />
    <glyph glyph-name="bracketleft" unicode="[" horiz-adv-x="719" 
d="M674 -322q0 -54 -45 -54h-401q-70 0 -70 74v1730q0 74 70 74h401q45 0 45 -54v-60q0 -56 -45 -56h-270v-1538h270q45 0 45 -56v-60z" />
    <glyph glyph-name="backslash" unicode="\" horiz-adv-x="871" 
d="M827 -105q8 -19 8 -34q0 -37 -44 -37h-110q-51 0 -74 59l-579 1491q-8 21 -8 35q0 34 41 34h112q51 0 69 -46z" />
    <glyph glyph-name="bracketright" unicode="]" horiz-adv-x="719" 
d="M556 -302q0 -74 -70 -74h-401q-45 0 -45 54v60q0 56 45 56h270v1538h-270q-45 0 -45 56v60q0 54 45 54h401q70 0 70 -74v-1730z" />
    <glyph glyph-name="asciicircum" unicode="^" horiz-adv-x="1071" 
d="M1010 646h-244l-211 485h-35l-215 -485h-244l318 692h317z" />
    <glyph glyph-name="underscore" unicode="_" horiz-adv-x="884" 
d="M865 -101q0 -41 -52 -41h-739q-50 0 -50 41v60q0 41 50 41h739q52 0 52 -41v-60z" />
    <glyph glyph-name="grave" unicode="`" horiz-adv-x="408" 
d="M356 1080q11 -28 7 -35q-3 -6 -22 -6q-23 0 -57 31q-126 112 -223 282l-40 70q-12 21 -12 36q0 31 45 31h74q62 0 86 -59z" />
    <glyph glyph-name="a" unicode="a" horiz-adv-x="993" 
d="M968 69q0 -28 -39 -41l-57 -18q-50 -16 -83 -16q-57 0 -123 107q-37 -65 -65 -85q-40 -28 -132 -28h-100q-288 0 -288 294v32q0 297 300 297h92q102 0 153 -69h13v122q0 80 -42 111t-158 31q-39 0 -235 -16q-48 -4 -48 21v118q0 31 42 40q156 30 274 30q193 0 270 -63
q120 -98 120 -286v-379q0 -73 53 -91l22 -7q31 -10 31 -36v-68zM638 264v88q0 85 -132 85h-79q-70 0 -99 -23t-29 -85v-41q0 -63 28 -86q25 -23 90 -23h86q135 0 135 85z" />
    <glyph glyph-name="b" unicode="b" horiz-adv-x="1024" 
d="M928 345q0 -355 -376 -355h-102q-213 0 -292 40q-41 21 -41 58v1289q0 36 30 36h169q30 0 30 -36v-469q46 54 69 66q39 20 130 20h61q322 0 322 -355v-294zM702 332v320q0 157 -147 157h-92q-75 0 -95 -14q-26 -18 -26 -61v-520q0 -31 129 -31h84q147 0 147 149z" />
    <glyph glyph-name="c" unicode="c" horiz-adv-x="881" 
d="M801 55q0 -27 -35 -35q-119 -28 -262 -28q-231 0 -319 93q-105 112 -105 410q0 197 35 298q32 90 108 144q88 62 281 62q121 0 255 -26q42 -8 42 -39v-123q0 -25 -48 -21q-143 12 -221 12q-123 0 -163 -28q-56 -37 -56 -159v-237q0 -123 44 -158q35 -28 155 -28
q166 0 245 4q44 3 44 -23v-118z" />
    <glyph glyph-name="d" unicode="d" horiz-adv-x="1035" 
d="M1015 69q0 -28 -39 -41l-57 -18q-50 -16 -83 -16q-54 0 -119 107q-72 -101 -237 -101h-43q-342 0 -342 345v309q0 340 347 340h36q125 0 199 -86v469q0 36 30 36h169q30 0 30 -36v-1106q0 -72 57 -91l21 -7q31 -10 31 -36v-68zM681 283v451q0 43 -26 61q-20 14 -76 14
h-111q-147 0 -147 -167v-261q0 -187 161 -187h70q65 0 103 20q26 13 26 69z" />
    <glyph glyph-name="e" unicode="e" horiz-adv-x="983" 
d="M886 431q0 -35 -41 -35h-517v-53q0 -92 38 -123t155 -31q118 0 284 9q43 3 43 -31v-104q0 -27 -35 -35q-152 -36 -304 -36q-227 0 -314 93q-98 104 -98 410q0 200 32 300q29 94 104 146q83 60 260 60q179 0 263 -60q73 -51 101.5 -129t28.5 -229v-152zM658 684
q0 76 -31 100.5t-134 24.5q-109 0 -140 -33q-25 -25 -25 -106v-105h330v119z" />
    <glyph glyph-name="f" unicode="f" horiz-adv-x="650" 
d="M625 1252q0 -21 -35 -19q-32 2 -114 2q-101 0 -101 -106q0 -13 2 -29l15 -126h186q29 0 29 -27v-127q0 -32 -29 -32h-178v-757q0 -31 -30 -31h-166q-29 0 -29 27v761h-101q-29 0 -29 27v108q0 19 30 31l48 20q46 19 46 60v81q0 298 258 298q102 0 173 -23q25 -8 25 -37
v-101z" />
    <glyph glyph-name="g" unicode="g" horiz-adv-x="1030" 
d="M913 -41q0 -189 -114 -283q-99 -80 -299 -80q-188 0 -296 36q-41 14 -41 40v94q0 37 48 30q146 -20 264 -20q222 0 222 164q0 16 -2 33l-11 116q-40 -47 -78 -64q-43 -19 -121 -19h-50q-332 0 -332 348v240q0 405 372 405h107q150 0 263 -13q68 -8 68 -66v-961zM689 283
v488q0 32 -54 37q1 0 -75 0h-75q-157 0 -157 -178v-255q0 -94 28 -136q33 -51 119 -51h62q152 0 152 95z" />
    <glyph glyph-name="h" unicode="h" horiz-adv-x="1079" 
d="M963 35q0 -35 -31 -35h-171q-30 0 -30 35v617q0 81 -19 110q-29 47 -127 47h-67q-66 0 -93 -9q-49 -17 -49 -71v-694q0 -35 -30 -35h-164q-30 0 -30 35v1342q0 36 30 36h169q30 0 30 -36v-453q60 70 184 70h104q294 0 294 -323v-636z" />
    <glyph glyph-name="i" unicode="i" horiz-adv-x="460" 
d="M343 1178q0 -31 -30 -31h-166q-29 0 -29 27v157q0 31 29 31h166q30 0 30 -27v-157zM342 31q0 -31 -29 -31h-167q-29 0 -29 27v924q0 32 30 32h166q29 0 29 -27v-925z" />
    <glyph glyph-name="j" unicode="j" horiz-adv-x="494" 
d="M377 1178q0 -31 -29 -31h-167q-29 0 -29 27v157q0 31 30 31h166q29 0 29 -27v-157zM377 19q0 -163 -93 -239q-71 -58 -179 -58q-72 0 -143 22q-25 8 -25 38v101q0 21 35 19q32 -2 50 -2q74 0 102 27t28 107v917q0 32 30 32h166q29 0 29 -27v-937z" />
    <glyph glyph-name="k" unicode="k" horiz-adv-x="970" 
d="M971 33q26 -33 -13 -33h-221q-24 0 -48 33l-329 452q-25 33 1 68l304 404q19 26 54 26h192q15 0 18 -16q3 -15 -6 -27l-331 -414zM342 31q0 -31 -29 -31h-167q-29 0 -29 27v1354q0 32 30 32h166q29 0 29 -27v-1355z" />
    <glyph glyph-name="l" unicode="l" horiz-adv-x="482" 
d="M462 59q0 -30 -39 -41l-57 -15q-49 -13 -93 -13q-78 0 -119 61q-37 53 -37 136v1190q0 36 30 36h169q30 0 30 -36v-1134q0 -58 53 -70l31 -7q32 -7 32 -39v-68z" />
    <glyph glyph-name="m" unicode="m" horiz-adv-x="1579" 
d="M1461 35q0 -35 -30 -35h-171q-30 0 -30 35v600q0 101 -41 139q-35 33 -117 33h-51q-80 0 -98.5 -19.5t-18.5 -86.5v-666q0 -35 -30 -35h-171q-31 0 -31 35v600q0 100 -44 139q-37 33 -122 33h-35q-122 0 -122 -35v-737q0 -35 -31 -35h-171q-30 0 -30 35v880q0 47 41 57
q133 34 274 34h54q124 0 189 -27t118 -102q60 69 96 92q56 35 145 35h99q328 0 328 -324v-645z" />
    <glyph glyph-name="n" unicode="n" horiz-adv-x="1052" 
d="M952 35q0 -35 -30 -35h-171q-31 0 -31 35v585q0 106 -39 146.5t-137 40.5h-82q-112 0 -112 -35v-737q0 -35 -31 -35h-171q-30 0 -30 35v874q0 53 44 64q125 32 338 32h64q388 0 388 -339v-631z" />
    <glyph glyph-name="o" unicode="o" horiz-adv-x="1015" 
d="M935 511q0 -272 -82 -385q-102 -140 -346 -140h-2q-261 0 -355 135q-75 107 -75 372q0 261 60 359q96 156 370 156h2q276 0 368 -148q60 -97 60 -349zM702 407v164q0 156 -37 199q-33 40 -150 40h-33q-109 0 -140.5 -42t-31.5 -188v-175q0 -141 33 -181q35 -43 156 -43
h16q116 0 151.5 41.5t35.5 184.5z" />
    <glyph glyph-name="p" unicode="p" horiz-adv-x="1024" 
d="M928 370q0 -179 -95 -277.5t-262 -98.5h-51q-107 0 -174 79v-470q0 -36 -30 -36h-169q-30 0 -30 36v1298q0 37 41 58q79 40 292 40h101q168 0 265 -79q112 -89 112 -266v-284zM702 371v242q0 192 -172 192h-89q-100 0 -100 -31v-489q0 -46 37 -77q33 -28 76 -28h86
q162 0 162 191z" />
    <glyph glyph-name="q" unicode="q" horiz-adv-x="1033" 
d="M906 918v-1315q0 -36 -30 -36h-169q-30 0 -30 36v488q-74 -86 -179 -86h-95q-145 0 -226.5 90.5t-81.5 255.5v253q0 395 383 395h117q123 0 243 -15q68 -8 68 -66zM682 771q0 32 -48 38q4 -1 -71 -1h-75q-167 0 -167 -178v-263q0 -177 137 -177h101q122 0 122 95z" />
    <glyph glyph-name="r" unicode="r" horiz-adv-x="699" 
d="M666 946l-4 -155q-1 -36 -30 -22q-86 44 -141 44q-108 0 -130 -21q-16 -15 -16 -56v-702q0 -34 -29 -34h-173q-29 0 -29 34v663q0 151 82 219q106 88 275 88q132 0 170 -20q25 -12 25 -38z" />
    <glyph glyph-name="s" unicode="s" horiz-adv-x="885" 
d="M804 292q0 -164 -111 -244q-83 -59 -296 -59q-94 0 -248 30q-42 8 -42 39v101q0 35 48 31q101 -8 221 -8q108 0 129 5q70 16 70 87v36q0 88 -43 102q-26 9 -87 9h-80q-143 0 -212 72q-59 61 -59 226q0 154 101 226q77 54 248 54q153 0 248 -18q41 -8 41 -40v-97
q0 -31 -47 -31h-125h-147q-68 0 -88 -26q-13 -18 -13 -73v-32q0 -50 27 -67q20 -14 73 -14h47q195 0 267 -69q78 -75 78 -240z" />
    <glyph glyph-name="t" unicode="t" horiz-adv-x="660" 
d="M175 1212q0 27 29 27h166q30 0 30 -31v-234h173q30 0 30 -31v-128q0 -27 -29 -27h-174v-491q0 -69 11 -94q18 -40 75 -40t89 2q35 2 35 -23v-97q0 -29 -25 -37q-71 -23 -158 -23q-252 0 -252 273v530h-101q-29 0 -29 27v108q0 24 30 31l48 12q52 13 52 60v186z" />
    <glyph glyph-name="u" unicode="u" horiz-adv-x="1072" 
d="M1040 69q0 -28 -39 -41l-57 -18q-51 -16 -83 -16q-57 0 -123 107q-47 -65 -80 -87q-43 -27 -117 -27h-121q-137 0 -215 81q-88 90 -88 268v610q0 36 30 36h172q30 0 30 -36v-594q0 -101 33 -137q29 -30 108 -30h91q122 0 122 85v676q0 36 31 36h171q30 0 30 -36v-668
q0 -81 52 -98l21 -7q32 -10 32 -36v-68z" />
    <glyph glyph-name="v" unicode="v" horiz-adv-x="1023" 
d="M985 949l-314 -902q-15 -46 -56 -46h-213q-40 0 -56 46l-312 904q-15 42 30 42h163q30 0 39 -30l235 -770h21l233 766q10 34 39 34h166q40 0 25 -44z" />
    <glyph glyph-name="w" unicode="w" horiz-adv-x="1574" 
d="M1534 944l-218 -897q-11 -46 -58 -46h-232q-41 0 -53 46l-188 705l-188 -705q-13 -46 -55 -46h-234q-44 0 -55 46l-219 895q-12 51 27 51h160q36 0 44 -37l168 -765h16l191 743q10 39 48 39h196q38 0 48 -39l191 -743h17l162 765q8 37 45 37h159q40 0 28 -49z" />
    <glyph glyph-name="x" unicode="x" horiz-adv-x="956" 
d="M940 40q10 -15 7 -27q-3 -13 -16 -13h-194q-36 0 -64 45l-196 312l-189 -312q-28 -45 -64 -45h-194q-14 0 -17 13q-3 12 7 27l328 477l-302 429q-8 11 -4 28q4 19 18 19h186q26 0 52 -40l182 -286l177 282q27 44 57 44h185q17 0 22 -15q5 -14 -7 -32l-304 -429z" />
    <glyph glyph-name="y" unicode="y" horiz-adv-x="979" 
d="M939 951l-330 -1086q-55 -181 -150 -247q-72 -51 -207 -51q-75 0 -139 23q-16 6 -16 33v105q0 22 42 19q1 0 33 -3q27 -3 43 -3q79 0 108 15q44 23 66 103l53 188h-85q-42 0 -56 46l-261 854q-14 46 19 46h187q31 0 40 -36l191 -764h17l203 768q8 32 41 32h172
q42 0 29 -42z" />
    <glyph glyph-name="z" unicode="z" horiz-adv-x="839" 
d="M795 31q0 -31 -29 -31h-698q-24 0 -30 21q-5 19 6 39l413 735h-368q-29 0 -29 32v125q0 11 2 18q4 11 27 11h662q32 0 32 -29q0 -14 -9 -29l-427 -732h419q24 0 28 -13q1 -6 1 -16v-131z" />
    <glyph glyph-name="braceleft" unicode="{" horiz-adv-x="752" 
d="M719 -300q0 -76 -41 -76h-153q-288 0 -288 308v302q0 57 -26 94q-20 29 -80 73l-75 54q-33 25 -33 95q0 75 33 101l75 56q61 47 80 73q26 36 26 92v344q0 288 288 288h153q41 0 41 -80q0 -77 -41 -77h-111q-74 0 -100.5 -33t-26.5 -115v-332q0 -86 -25 -130
q-23 -38 -97 -90l-122 -86v-14l122 -87q70 -51 96 -102.5t26 -141.5v-286q0 -81 25 -114q29 -35 102 -35h111q41 0 41 -81z" />
    <glyph glyph-name="bar" unicode="|" horiz-adv-x="505" 
d="M334 -326q0 -50 -56 -50h-54q-54 0 -54 50v1763q0 43 54 43h56q34 0 44 -10t10 -42v-1754z" />
    <glyph glyph-name="braceright" unicode="}" horiz-adv-x="752" 
d="M730 550q0 -71 -34 -95l-76 -53q-59 -41 -80 -73q-24 -36 -24 -95v-302q0 -308 -288 -308h-154q-40 0 -40 76q0 81 40 81h111q74 0 101 34t27 115v286q0 92 18 138q23 59 93 106l132 87v14l-132 86q-73 47 -94 93q-17 38 -17 127v332q0 82 -27 115t-101 33h-111
q-40 0 -40 77q0 80 40 80h154q288 0 288 -288v-344q0 -56 26 -92q19 -26 80 -73l74 -56q34 -26 34 -101z" />
    <glyph glyph-name="asciitilde" unicode="~" horiz-adv-x="1241" 
d="M172 422q-13 11 -16 40q-3 30 8 50q51 92 95 130q59 50 144 50q57 0 106 -21q23 -10 87 -40l126 -59q63 -29 118 -29q142 0 229 153q21 -15 21 -39q0 -18 -13 -47q-78 -174 -239 -174q-67 0 -234 86q-125 64 -188 64q-158 0 -244 -164z" />
    <glyph glyph-name="exclamdown" unicode="&#xa1;" horiz-adv-x="682" 
d="M447 1062v-205h-207v205h207zM400 697l55 -776v-325h-223v325l52 776h116z" />
    <glyph glyph-name="cent" unicode="&#xa2;" 
d="M744 894l-222 -766q33 -9 61 -9q114 0 188 80q68 73 84 190l179 -20q-32 -178 -149 -285q-121 -112 -299 -112q-49 0 -103 14l-118 -395l-112 32l115 398q-261 124 -261 505q0 369 234 497q117 64 237 64q36 0 100 -8l113 387l110 -32l-112 -387q184 -80 226 -297
l-175 -27q-26 112 -96 171zM638 940q-32 3 -50 3q-191 0 -260 -186q-36 -97 -36 -222q0 -266 123 -358z" />
    <glyph glyph-name="sterling" unicode="&#xa3;" 
d="M396 809h315v-148h-284q19 -44 19 -88q0 -193 -178 -382q79 22 144 22q82 0 187 -25q171 -41 233 -41q74 0 192 56l58 -165q-149 -63 -243 -63q-42 0 -85 8q-123 40 -262 74q-33 8 -94 8q-157 0 -302 -93l-69 173q230 127 230 392q0 61 -17 124h-196v148h154
q-51 173 -51 264q0 209 154 325q123 93 300 93q183 0 299.5 -99.5t143.5 -279.5l-179 -27q-14 113 -83 184q-73 74 -185 74q-107 0 -181 -68q-77 -70 -77 -176q0 -111 57 -290z" />
    <glyph glyph-name="currency" unicode="&#xa4;" 
d="M213 961l-139 136l115 119l139 -139q106 72 237 72q132 0 237 -72l139 139l116 -119l-139 -136q71 -110 71 -235q0 -126 -71 -236l139 -136l-116 -119l-139 140q-105 -73 -237 -73q-131 0 -237 73l-139 -140l-115 119l139 136q-71 110 -71 236q0 125 71 235zM305 726
q0 -109 75 -184.5t184 -75.5t184 75.5t75 184.5t-75 184t-184 75t-184 -75t-75 -184z" />
    <glyph glyph-name="yen" unicode="&#xa5;" 
d="M477 0v325h-415v139h415v143h-415v148h341l-406 711h200l290 -516q49 -86 76 -154q26 60 82 163l274 507h214l-405 -711h341v-148h-412v-143h412v-139h-412v-325h-180z" />
    <glyph glyph-name="brokenbar" unicode="&#xa6;" horiz-adv-x="532" 
d="M345 1491v-790h-157v790h157zM345 360v-791h-157v791h157z" />
    <glyph glyph-name="section" unicode="&#xa7;" 
d="M143 -70l181 26q26 -119 79 -173q61 -62 176 -62q87 0 148 43q69 48 69 131q0 51 -36 94q-62 75 -340 245q-125 77 -170 112q-169 133 -169 298q0 101 64 179q61 75 161 104q-129 124 -129 248q0 144 113 234q104 82 252 82q375 0 418 -347l-187 -19q-38 218 -215 218
q-77 0 -137 -40q-68 -46 -68 -119q0 -52 36 -96q55 -67 306 -220q159 -97 212 -141q138 -115 138 -263q0 -113 -73 -193q-42 -46 -154 -93q159 -121 159 -281q0 -95 -53 -171.5t-141 -115.5q-93 -41 -203 -41q-184 0 -296 89q-118 93 -141 272zM728 244q147 75 147 187
q0 82 -105 171q-51 44 -172 118q-138 85 -204 138q-150 -85 -150 -194q0 -86 90 -164q43 -38 163 -108q133 -79 231 -148z" />
    <glyph glyph-name="dieresis" unicode="&#xa8;" horiz-adv-x="682" 
d="M61 1270v205h188v-205h-188zM434 1270v205h188v-205h-188z" />
    <glyph glyph-name="copyright" unicode="&#xa9;" horiz-adv-x="1421" 
d="M1188 170q-197 -199 -479 -199q-283 0 -480 199q-98 100 -142 220t-44 261q0 142 47 260.5t148 216.5q196 199 471 199q282 0 479 -199q100 -98 145 -216.5t45 -260.5q0 -141 -45 -261t-145 -220zM1090 1026q-80 80 -174.5 122t-206.5 42q-222 0 -379 -158
q-78 -78 -113 -173t-35 -208q0 -114 35 -209.5t113 -173.5q153 -159 379 -159q223 0 381 159q77 78 112 173.5t35 209.5q0 113 -35 205t-112 170zM967 344q-2 -35 -43 -51q-43 -19 -98.5 -31t-102.5 -12q-86 0 -149.5 16.5t-114.5 65.5q-27 24 -47.5 51t-35 63.5t-21.5 87
t-7 121.5q0 76 11.5 131.5t31 94.5t46 66.5t57.5 51.5q47 35 103 48.5t132 13.5q59 0 108.5 -14.5t90.5 -32.5q39 -17 39 -58v-34q0 -23 -14.5 -41.5t-49.5 -3.5q-102 38 -186 38q-92 0 -150.5 -48t-58.5 -144v-139q0 -95 57.5 -143t151.5 -48q35 0 60.5 4t47.5 9
q23 4 40.5 11t37.5 13q25 6 44.5 -2t19.5 -43v-25v-16z" />
    <glyph glyph-name="ordfeminine" unicode="&#xaa;" horiz-adv-x="758" 
d="M548 853q-122 -107 -256 -107q-106 0 -173 56q-72 59 -72 163q0 146 145 193q35 11 99 21l147 22q40 6 96 20q-1 58 -9 80q-26 73 -148 73q-147 0 -166 -125l-137 34q14 107 109 162q79 46 196 46q300 0 299 -242l-1 -301q0 -133 41 -184h-148q-20 40 -22 89zM533 1104
q-55 -14 -192 -36q-145 -23 -145 -103q0 -99 130 -99q68 0 123.5 36t75.5 99q7 22 8 103z" />
    <glyph glyph-name="guillemotleft" unicode="&#xab;" 
d="M340 528l259 -456h-146l-319 456l319 456h148zM727 528l264 -456h-152l-313 456l313 456h152z" />
    <glyph glyph-name="logicalnot" unicode="&#xac;" horiz-adv-x="1196" 
d="M1082 424h-170v438h-798v168h968v-606z" />
    <glyph glyph-name="registered" unicode="&#xae;" horiz-adv-x="1421" 
d="M1188 170q-197 -199 -479 -199q-283 0 -480 199q-98 100 -142 220t-44 261q0 142 47 260.5t148 216.5q196 199 471 199q282 0 479 -199q100 -98 145 -216.5t45 -260.5q0 -141 -45 -261t-145 -220zM1090 1032q-162 158 -381 158q-222 0 -379 -158q-78 -78 -113 -173
t-35 -208q0 -114 35 -209.5t113 -173.5q153 -159 379 -159q223 0 381 159q77 78 112 173.5t35 209.5q0 113 -35 208t-112 173zM1001 264h-75q-21 0 -29 4t-20 21l-220 276q-20 0 -39.5 2t-39.5 6v-260q0 -30 -15.5 -39.5t-36.5 -9.5h-51q-33 0 -41 16.5t-8 32.5v686
q0 52 51 52h295q47 0 90 -11.5t75 -38t50.5 -67.5t18.5 -103v-32q0 -94 -45.5 -147.5t-135.5 -73.5l203 -250q6 -6 10 -17.5t3 -21.5t-10 -17.5t-30 -7.5zM774 913h-196v-208h194q53 0 70.5 19t17.5 83q0 70 -19.5 88t-66.5 18z" />
    <glyph glyph-name="overscore" unicode="&#xaf;" horiz-adv-x="1131" 
d="M-31 1566v129h1193v-129h-1193z" />
    <glyph glyph-name="degree" unicode="&#xb0;" horiz-adv-x="819" 
d="M128 1214q0 116 80.5 196.5t196.5 80.5q117 0 197.5 -80t80.5 -197t-80.5 -197.5t-197.5 -80.5t-197 80.5t-80 197.5zM237 1214q0 -70 49.5 -119.5t119.5 -49.5t119 49t49 120t-49 120t-119 49t-119.5 -49.5t-49.5 -119.5z" />
    <glyph glyph-name="plusminus" unicode="&#xb1;" horiz-adv-x="1124" 
d="M477 260v403h-399v167h399v399h170v-399h399v-167h-399v-403h-170zM1046 0h-968v168h968v-168z" />
    <glyph glyph-name="twosuperior" unicode="&#xb2;" horiz-adv-x="682" 
d="M25 733q14 131 254 305q146 106 171 134q37 41 37 84q0 110 -138 110q-67 0 -99.5 -25t-52.5 -89l-151 16q56 216 306 216q118 0 195 -42q97 -53 97 -161q0 -85 -59 -159q-42 -53 -205 -171q-80 -58 -118 -97h386v-121h-623z" />
    <glyph glyph-name="threesuperior" unicode="&#xb3;" horiz-adv-x="682" 
d="M33 929l146 15q20 -60 52 -82q43 -30 102 -30q64 0 108 34q49 37 49 99q0 110 -159 110q-9 0 -27.5 -1.5t-27.5 -1.5l22 110q156 -2 156 102q0 89 -119 89q-102 0 -142 -102l-143 23q42 107 106 148.5t180 41.5q275 0 275 -187q0 -121 -138 -160q173 -43 173 -191
q0 -114 -99 -177q-84 -54 -205 -54q-265 0 -309 214z" />
    <glyph glyph-name="acute" unicode="&#xb4;" horiz-adv-x="682" 
d="M222 1194l133 280h236l-220 -280h-149z" />
    <glyph glyph-name="mu1" unicode="&#xb5;" horiz-adv-x="1180" 
d="M1018 1062v-1062h-161v126q-52 -80 -103 -110q-70 -41 -163 -41q-83 0 -147 33q-48 25 -106 99v-514h-178v1469h178v-450q0 -186 7 -233q36 -241 238 -241q173 0 232 158q26 70 26 313v453h177z" />
    <glyph glyph-name="paragraph" unicode="&#xb6;" horiz-adv-x="1100" 
d="M405 -407v1045q-182 10 -291 116q-113 109 -113 290q0 211 134 321q124 101 339 101h633v-173h-144v-1700h-170v1700h-223v-1700h-165z" />
    <glyph glyph-name="middot" unicode="&#xb7;" horiz-adv-x="682" 
d="M497 637v205h205v-205h-205z" />
    <glyph glyph-name="cedilla" unicode="&#xb8;" horiz-adv-x="682" 
d="M216 -154l52 177h134l-33 -107q171 -20 171 -147q0 -99 -101 -150q-79 -40 -188 -40q-82 0 -144 12l11 117q64 -4 94 -4q161 0 161 75q0 39 -54 56q-32 10 -103 11z" />
    <glyph glyph-name="onesuperior" unicode="&#xb9;" horiz-adv-x="682" 
d="M331 733v554q-102 -81 -224 -113v123q156 50 261 187h108v-751h-145z" />
    <glyph glyph-name="ordmasculine" unicode="&#xba;" horiz-adv-x="748" 
d="M373 1491q159 0 247 -111q81 -102 81 -265q0 -160 -82 -263q-88 -112 -245 -112q-159 0 -247 109q-82 100 -82 262q0 165 80 267q88 113 248 113zM373 1358q-180 0 -180 -243t180 -243t180 248q0 238 -180 238z" />
    <glyph glyph-name="guillemotright" unicode="&#xbb;" 
d="M791 528l-261 456h148l319 -456l-319 -456h-147zM404 528l-264 456h151l314 -456l-314 -456h-151z" />
    <glyph glyph-name="onequarter" unicode="&#xbc;" horiz-adv-x="1708" 
d="M252 -57l1102 1548h156l-1101 -1548h-157zM331 733v554q-102 -81 -224 -113v123q156 50 261 187h108v-751h-145zM1430 -31v154h-383v123l405 474h122v-489h104v-108h-104v-154h-144zM1430 231v263l-230 -263h230z" />
    <glyph glyph-name="onehalf" unicode="&#xbd;" horiz-adv-x="1708" 
d="M228 -57l1101 1548h157l-1101 -1548h-157zM331 733v554q-102 -81 -224 -113v123q156 50 261 187h108v-751h-145zM1049 -31q14 125 233 282q145 103 192 157q37 42 37 84q0 109 -138 109q-66 0 -99 -24.5t-53 -88.5l-151 15q56 217 306 217q118 0 195 -42q97 -53 97 -161
q0 -85 -59 -159q-44 -56 -204 -172q-84 -61 -119 -96h386v-121h-623z" />
    <glyph glyph-name="threequarters" unicode="&#xbe;" horiz-adv-x="1708" 
d="M252 -57l1101 1548h157l-1101 -1548h-157zM33 929l146 15q20 -60 52 -82q43 -30 102 -30q64 0 108 34q49 37 49 99q0 113 -156 110q-25 0 -38 -1l-20 -2l22 110q156 -2 156 102q0 89 -119 89q-102 0 -142 -102l-143 23q42 107 106 148.5t180 41.5q275 0 275 -187
q0 -121 -138 -160q173 -43 173 -191q0 -114 -99 -177q-84 -54 -205 -54q-265 0 -309 214zM1429 -31v154h-382v123l404 474h123v-489h104v-108h-104v-154h-145zM1429 231v263l-229 -263h229z" />
    <glyph glyph-name="questiondown" unicode="&#xbf;" horiz-adv-x="1251" 
d="M733 1062v-205h-205v205h205zM721 701q1 -34 1 -51q0 -183 -101 -304q-25 -30 -133 -126q-72 -64 -100 -103q-45 -63 -45 -134q0 -114 84 -189t199 -75q246 0 293 296l184 -21q-25 -202 -148 -312.5t-326 -110.5q-194 0 -326 101q-145 111 -145 299q0 112 66 210
q45 67 154 163q73 64 94 89q47 54 62 112q12 45 14 156h173z" />
    <glyph glyph-name="Agrave" unicode="&#xc0;" horiz-adv-x="1366" 
d="M1183 51q7 -20 7 -29q0 -22 -41 -22h-154q-50 0 -66 55l-75 243h-474l-74 -243q-16 -55 -66 -55h-157q-41 0 -41 22q0 9 7 29l396 1212q16 49 64 49h212q48 0 65 -49zM800 489l-184 601l-186 -601h370zM735 1442q11 -28 7 -35q-3 -6 -22 -6q-23 0 -57 31
q-126 112 -223 282l-40 70q-12 21 -12 36q0 31 45 31h74q62 0 86 -59z" />
    <glyph glyph-name="Aacute" unicode="&#xc1;" horiz-adv-x="1366" 
d="M1183 51q7 -20 7 -29q0 -22 -41 -22h-154q-50 0 -66 55l-75 243h-474l-74 -243q-16 -55 -66 -55h-157q-41 0 -41 22q0 9 7 29l396 1212q16 49 64 49h212q48 0 65 -49zM800 489l-184 601l-186 -601h370zM561 1556l133 280h236l-220 -280h-149z" />
    <glyph glyph-name="Acircumflex" unicode="&#xc2;" horiz-adv-x="1366" 
d="M1183 51q7 -20 7 -29q0 -22 -41 -22h-154q-50 0 -66 55l-75 243h-474l-74 -243q-16 -55 -66 -55h-157q-41 0 -41 22q0 9 7 29l396 1212q16 49 64 49h212q48 0 65 -49zM800 489l-184 601l-186 -601h370zM684 1726l-113 -170h-206l216 280h192l225 -280h-204z" />
    <glyph glyph-name="Atilde" unicode="&#xc3;" horiz-adv-x="1366" 
d="M1183 51q7 -20 7 -29q0 -22 -41 -22h-154q-50 0 -66 55l-75 243h-474l-74 -243q-16 -55 -66 -55h-157q-41 0 -41 22q0 9 7 29l396 1212q16 49 64 49h212q48 0 65 -49zM800 489l-184 601l-186 -601h370zM369 1556q-1 97 52 160q56 68 151 68q62 0 169 -54q59 -30 94 -30
q61 0 73 87h130q-6 -228 -196 -228q-63 0 -166 56q-67 36 -98 36q-78 0 -76 -95h-133z" />
    <glyph glyph-name="Adieresis" unicode="&#xc4;" horiz-adv-x="1366" 
d="M1183 51q7 -20 7 -29q0 -22 -41 -22h-154q-50 0 -66 55l-75 243h-474l-74 -243q-16 -55 -66 -55h-157q-41 0 -41 22q0 9 7 29l396 1212q16 49 64 49h212q48 0 65 -49zM800 489l-184 601l-186 -601h370zM399 1556v205h188v-205h-188zM772 1556v205h188v-205h-188z" />
    <glyph glyph-name="Aring" unicode="&#xc5;" horiz-adv-x="1366" 
d="M1183 51q7 -20 7 -29q0 -22 -41 -22h-154q-50 0 -66 55l-75 243h-474l-74 -243q-16 -55 -66 -55h-157q-41 0 -41 22q0 9 7 29l396 1212q16 49 64 49h212q48 0 65 -49zM800 489l-184 601l-186 -601h370zM501 1601q0 74 53 126.5t127 52.5q76 0 128 -53.5t52 -129.5
t-51.5 -129.5t-127.5 -53.5q-78 0 -129.5 54t-51.5 133zM577 1600q0 -45 30.5 -78t75.5 -33q44 0 75 32.5t31 76.5q0 45 -30.5 77t-75.5 32q-44 0 -75 -31.5t-31 -75.5z" />
    <glyph glyph-name="AE" unicode="&#xc6;" horiz-adv-x="2048" 
d="M1 0l705 1466h1203v-173h-737v-451h685v-172h-685v-497h764v-173h-959v423h-566l-200 -423h-210zM493 595h484v698h-145z" />
    <glyph glyph-name="Ccedilla" unicode="&#xc7;" horiz-adv-x="1479" 
d="M1087 81q0 -44 -55 -58q-145 -34 -356 -34q-303 0 -427 132q-73 79 -104 192q-32 121 -32 342q0 271 42 395q37 113 142 187q121 87 379 87q165 0 347 -36q64 -13 64 -63v-96q0 -44 -75 -38q-128 11 -291 11q-186 0 -258 -37q-98 -50 -98 -200v-401q0 -152 84 -206
q68 -44 244 -44q231 0 325 5q38 3 49 -1q20 -7 20 -40v-97zM637 -154l52 177h134l-33 -107q171 -20 171 -147q0 -99 -101 -150q-79 -40 -188 -40q-82 0 -144 12l11 117q64 -4 94 -4q161 0 161 75q0 39 -54 56q-32 10 -103 11z" />
    <glyph glyph-name="Egrave" unicode="&#xc8;" horiz-adv-x="1366" 
d="M1068 50q0 -50 -49 -50h-827q-49 0 -49 47v1220q0 46 49 46h827q49 0 49 -49v-102q0 -52 -49 -52h-638v-328h579q50 0 50 -50v-100q0 -52 -50 -52h-579v-373h638q49 0 49 -53v-104zM747 1442q11 -28 7 -35q-3 -6 -22 -6q-23 0 -57 31q-126 112 -223 282l-40 70
q-12 21 -12 36q0 31 45 31h74q62 0 86 -59z" />
    <glyph glyph-name="Eacute" unicode="&#xc9;" horiz-adv-x="1366" 
d="M1068 50q0 -50 -49 -50h-827q-49 0 -49 47v1220q0 46 49 46h827q49 0 49 -49v-102q0 -52 -49 -52h-638v-328h579q50 0 50 -50v-100q0 -52 -50 -52h-579v-373h638q49 0 49 -53v-104zM568 1556l133 280h236l-220 -280h-149z" />
    <glyph glyph-name="Ecircumflex" unicode="&#xca;" horiz-adv-x="1366" 
d="M1068 50q0 -50 -49 -50h-827q-49 0 -49 47v1220q0 46 49 46h827q49 0 49 -49v-102q0 -52 -49 -52h-638v-328h579q50 0 50 -50v-100q0 -52 -50 -52h-579v-373h638q49 0 49 -53v-104zM713 1726l-113 -170h-206l216 280h192l225 -280h-204z" />
    <glyph glyph-name="Edieresis" unicode="&#xcb;" horiz-adv-x="1366" 
d="M1068 50q0 -50 -49 -50h-827q-49 0 -49 47v1220q0 46 49 46h827q49 0 49 -49v-102q0 -52 -49 -52h-638v-328h579q50 0 50 -50v-100q0 -52 -50 -52h-579v-373h638q49 0 49 -53v-104zM431 1556v205h188v-205h-188zM804 1556v205h188v-205h-188z" />
    <glyph glyph-name="Igrave" unicode="&#xcc;" horiz-adv-x="569" 
d="M313 49q0 -49 -43 -49h-157q-40 0 -40 49v1220q0 43 43 43h157q40 0 40 -45v-1218zM257 1442q11 -28 7 -35q-3 -6 -22 -6q-23 0 -57 31q-126 112 -223 282l-40 70q-12 21 -12 36q0 31 45 31h74q62 0 86 -59z" />
    <glyph glyph-name="Iacute" unicode="&#xcd;" horiz-adv-x="569" 
d="M312 49q0 -49 -43 -49h-157q-40 0 -40 49v1220q0 43 43 43h157q40 0 40 -45v-1218zM76 1556l133 280h236l-220 -280h-149z" />
    <glyph glyph-name="Icircumflex" unicode="&#xce;" horiz-adv-x="569" 
d="M377 49q0 -49 -43 -49h-157q-40 0 -40 49v1220q0 43 43 43h157q40 0 40 -45v-1218zM287 1726l-113 -170h-206l216 280h192l225 -280h-204z" />
    <glyph glyph-name="Idieresis" unicode="&#xcf;" horiz-adv-x="569" 
d="M377 49q0 -49 -43 -49h-157q-40 0 -40 49v1220q0 43 43 43h157q40 0 40 -45v-1218zM4 1556v205h188v-205h-188zM377 1556v205h188v-205h-188z" />
    <glyph glyph-name="Eth" unicode="&#xd0;" horiz-adv-x="1479" 
d="M158 0v667h-161v132h161v667h506q170 0 260 -21q280 -65 389 -355q57 -151 57 -349q0 -181 -53 -339q-104 -310 -416 -385q-71 -17 -214 -17h-529zM352 173h313q256 0 358 102q147 147 147 468q0 301 -139 440q-72 72 -172 95q-64 15 -199 15h-308v-494h404v-132h-404
v-494z" />
    <glyph glyph-name="Ntilde" unicode="&#xd1;" horiz-adv-x="1479" 
d="M1198 58q0 -58 -52 -58h-159q-44 0 -75 54l-541 949l13 -145v-800q0 -58 -52 -58h-140q-49 0 -49 58v1202q0 52 52 52h179q41 0 70 -50l525 -916l-13 155v759q0 52 52 52h140q50 0 50 -55v-1199zM436 1556q-1 97 52 160q56 68 151 68q62 0 169 -54q59 -30 94 -30
q61 0 73 87h130q-6 -228 -196 -228q-63 0 -166 56q-67 36 -98 36q-78 0 -76 -95h-133z" />
    <glyph glyph-name="Ograve" unicode="&#xd2;" horiz-adv-x="1593" 
d="M1299 678q0 -346 -113 -503q-141 -195 -477 -195h-3q-182 0 -291 38q-125 44 -199 150q-103 148 -103 484q0 331 83 467q72 116 195 167q118 49 315 49h3q200 0 316 -45q122 -48 191 -160q83 -134 83 -452zM1055 538v240q0 202 -73 276q-63 65 -222 65h-124
q-149 0 -210 -67q-66 -73 -66 -263v-254q0 -185 68 -263t230 -78h102q154 0 222 75q73 80 73 269zM819 1442q11 -28 7 -35q-3 -6 -22 -6q-23 0 -57 31q-126 112 -223 282l-40 70q-12 21 -12 36q0 31 45 31h74q62 0 86 -59z" />
    <glyph glyph-name="Oacute" unicode="&#xd3;" horiz-adv-x="1593" 
d="M1299 678q0 -346 -113 -503q-141 -195 -477 -195h-3q-182 0 -291 38q-125 44 -199 150q-103 148 -103 484q0 331 83 467q72 116 195 167q118 49 315 49h3q200 0 316 -45q122 -48 191 -160q83 -134 83 -452zM1055 538v240q0 202 -73 276q-63 65 -222 65h-124
q-149 0 -210 -67q-66 -73 -66 -263v-254q0 -185 68 -263t230 -78h102q154 0 222 75q73 80 73 269zM689 1556l133 280h236l-220 -280h-149z" />
    <glyph glyph-name="Ocircumflex" unicode="&#xd4;" horiz-adv-x="1593" 
d="M1299 678q0 -346 -113 -503q-141 -195 -477 -195h-3q-182 0 -291 38q-125 44 -199 150q-103 148 -103 484q0 331 83 467q72 116 195 167q118 49 315 49h3q200 0 316 -45q122 -48 191 -160q83 -134 83 -452zM1055 538v240q0 202 -73 276q-63 65 -222 65h-124
q-149 0 -210 -67q-66 -73 -66 -263v-254q0 -185 68 -263t230 -78h102q154 0 222 75q73 80 73 269zM810 1726l-113 -170h-206l216 280h192l225 -280h-204z" />
    <glyph glyph-name="Otilde" unicode="&#xd5;" horiz-adv-x="1593" 
d="M1299 678q0 -346 -113 -503q-141 -195 -477 -195h-3q-182 0 -291 38q-125 44 -199 150q-103 148 -103 484q0 331 83 467q72 116 195 167q118 49 315 49h3q200 0 316 -45q122 -48 191 -160q83 -134 83 -452zM1055 538v240q0 202 -73 276q-63 65 -222 65h-124
q-149 0 -210 -67q-66 -73 -66 -263v-254q0 -185 68 -263t230 -78h102q154 0 222 75q73 80 73 269zM478 1556q-1 97 52 160q56 68 151 68q62 0 169 -54q59 -30 94 -30q61 0 73 87h130q-6 -228 -196 -228q-63 0 -166 56q-67 36 -98 36q-78 0 -76 -95h-133z" />
    <glyph glyph-name="Odieresis" unicode="&#xd6;" horiz-adv-x="1593" 
d="M1299 678q0 -346 -113 -503q-141 -195 -477 -195h-3q-182 0 -291 38q-125 44 -199 150q-103 148 -103 484q0 331 83 467q72 116 195 167q118 49 315 49h3q200 0 316 -45q122 -48 191 -160q83 -134 83 -452zM1055 538v240q0 202 -73 276q-63 65 -222 65h-124
q-149 0 -210 -67q-66 -73 -66 -263v-254q0 -185 68 -263t230 -78h102q154 0 222 75q73 80 73 269zM528 1556v205h188v-205h-188zM901 1556v205h188v-205h-188z" />
    <glyph glyph-name="multiply" unicode="&#xd7;" horiz-adv-x="1196" 
d="M161 409l315 315l-314 314l122 122l314 -314l313 313l120 -121l-312 -313l314 -314l-122 -122l-314 314l-315 -315z" />
    <glyph glyph-name="Oslash" unicode="&#xd8;" horiz-adv-x="1593" 
d="M1250 1332l168 188l99 -84l-176 -198q85 -128 116 -224q40 -126 40 -282q0 -213 -82 -383q-90 -189 -264 -284q-164 -90 -350 -90q-138 0 -250 39q-86 30 -201 115l-168 -188l-99 84l176 197q-92 141 -126 240q-38 112 -38 268q0 213 81 384q89 190 262 286
q163 91 361 91q241 0 451 -159zM1130 1197q-88 69 -153 96q-77 32 -177 32q-252 0 -386 -175q-119 -157 -119 -417q0 -114 22 -206q16 -69 67 -165zM1212 1094l-743 -832q77 -63 142 -88q85 -33 184 -33q244 0 379 176q123 159 123 410q0 208 -85 367z" />
    <glyph glyph-name="Ugrave" unicode="&#xd9;" horiz-adv-x="1479" 
d="M1197 410q0 -214 -113 -312q-123 -108 -409 -108q-292 0 -417 107q-115 99 -115 313v845q0 58 49 58h140q52 0 52 -58v-858q0 -110 39 -143q55 -48 247 -48q194 0 248 47q37 33 37 144v858q0 58 52 58h140q50 0 50 -58v-845zM751 1442q11 -28 7 -35q-3 -6 -22 -6
q-23 0 -57 31q-126 112 -223 282l-40 70q-12 21 -12 36q0 31 45 31h74q62 0 86 -59z" />
    <glyph glyph-name="Uacute" unicode="&#xda;" horiz-adv-x="1479" 
d="M1197 410q0 -214 -113 -312q-123 -108 -409 -108q-292 0 -417 107q-115 99 -115 313v845q0 58 49 58h140q52 0 52 -58v-858q0 -110 39 -143q55 -48 247 -48q194 0 248 47q37 33 37 144v858q0 58 52 58h140q50 0 50 -58v-845zM620 1556l133 280h236l-220 -280h-149z" />
    <glyph glyph-name="Ucircumflex" unicode="&#xdb;" horiz-adv-x="1479" 
d="M1197 410q0 -214 -113 -312q-123 -108 -409 -108q-292 0 -417 107q-115 99 -115 313v845q0 58 49 58h140q52 0 52 -58v-858q0 -110 39 -143q55 -48 247 -48q194 0 248 47q37 33 37 144v858q0 58 52 58h140q50 0 50 -58v-845zM742 1726l-113 -170h-206l216 280h192
l225 -280h-204z" />
    <glyph glyph-name="Udieresis" unicode="&#xdc;" horiz-adv-x="1479" 
d="M1197 410q0 -214 -113 -312q-123 -108 -409 -108q-292 0 -417 107q-115 99 -115 313v845q0 58 49 58h140q52 0 52 -58v-858q0 -110 39 -143q55 -48 247 -48q194 0 248 47q37 33 37 144v858q0 58 52 58h140q50 0 50 -58v-845zM460 1556v205h188v-205h-188zM833 1556v205
h188v-205h-188z" />
    <glyph glyph-name="Yacute" unicode="&#xdd;" horiz-adv-x="1366" 
d="M1066 1257l-374 -636v-563q0 -58 -52 -58h-139q-50 0 -50 58v566l-370 628q-9 16 -9 29q0 32 41 32h173q51 0 72 -42l213 -421l217 423q21 40 70 40h173q43 0 43 -30q0 -12 -8 -26zM587 1556l133 280h236l-220 -280h-149z" />
    <glyph glyph-name="Thorn" unicode="&#xde;" horiz-adv-x="1366" 
d="M158 0v1466h194v-298h359q145 0 224 -14q214 -38 298 -211q44 -91 44 -200q0 -445 -549 -445h-376v-298h-194zM352 471h379q346 0 346 266q0 196 -168 244q-49 14 -182 14h-375v-524z" />
    <glyph glyph-name="germandbls" unicode="&#xdf;" horiz-adv-x="1251" 
d="M153 0v999q0 160 32 250q43 120 157 184q103 58 238 58q143 0 249 -70q122 -81 122 -217q0 -95 -82 -239q-70 -123 -70 -168q0 -67 143 -160q136 -88 181 -143q64 -77 64 -182q0 -150 -109 -246q-104 -91 -256 -91q-121 0 -217.5 64.5t-145.5 176.5l155 72
q89 -165 205 -165q74 0 129 50t55 124q0 56 -32 96q-20 25 -112 88q-119 81 -158 119q-87 84 -87 169q0 72 79 207q83 142 83 210q0 74 -65 118q-58 39 -135 39q-147 0 -203 -109q-40 -78 -40 -243v-991h-180z" />
    <glyph glyph-name="agrave" unicode="&#xe0;" 
d="M948 69q0 -28 -39 -41l-57 -18q-50 -16 -83 -16q-57 0 -123 107q-37 -65 -65 -85q-40 -28 -132 -28h-100q-288 0 -288 294v32q0 297 300 297h92q102 0 153 -69h13v122q0 80 -42 111t-158 31q-39 0 -235 -16q-48 -4 -48 21v118q0 31 42 40q156 30 274 30q193 0 270 -63
q120 -98 120 -286v-379q0 -73 53 -91l22 -7q31 -10 31 -36v-68zM618 264v88q0 85 -132 85h-79q-70 0 -99 -23t-29 -85v-41q0 -63 28 -86q25 -23 90 -23h86q135 0 135 85zM586 1080q11 -28 7 -35q-3 -6 -22 -6q-23 0 -57 31q-126 112 -223 282l-40 70q-12 21 -12 36
q0 31 45 31h74q62 0 86 -59z" />
    <glyph glyph-name="aacute" unicode="&#xe1;" 
d="M948 69q0 -28 -39 -41l-57 -18q-50 -16 -83 -16q-57 0 -123 107q-37 -65 -65 -85q-40 -28 -132 -28h-100q-288 0 -288 294v32q0 297 300 297h92q102 0 153 -69h13v122q0 80 -42 111t-158 31q-39 0 -235 -16q-48 -4 -48 21v118q0 31 42 40q156 30 274 30q193 0 270 -63
q120 -98 120 -286v-379q0 -73 53 -91l22 -7q31 -10 31 -36v-68zM618 264v88q0 85 -132 85h-79q-70 0 -99 -23t-29 -85v-41q0 -63 28 -86q25 -23 90 -23h86q135 0 135 85zM443 1194l133 280h236l-220 -280h-149z" />
    <glyph glyph-name="acircumflex" unicode="&#xe2;" 
d="M948 69q0 -28 -39 -41l-57 -18q-50 -16 -83 -16q-57 0 -123 107q-37 -65 -65 -85q-40 -28 -132 -28h-100q-288 0 -288 294v32q0 297 300 297h92q102 0 153 -69h13v122q0 80 -42 111t-158 31q-39 0 -235 -16q-48 -4 -48 21v118q0 31 42 40q156 30 274 30q193 0 270 -63
q120 -98 120 -286v-379q0 -73 53 -91l22 -7q31 -10 31 -36v-68zM618 264v88q0 85 -132 85h-79q-70 0 -99 -23t-29 -85v-41q0 -63 28 -86q25 -23 90 -23h86q135 0 135 85zM546 1364l-113 -170h-206l216 280h192l225 -280h-204z" />
    <glyph glyph-name="atilde" unicode="&#xe3;" 
d="M948 69q0 -28 -39 -41l-57 -18q-50 -16 -83 -16q-57 0 -123 107q-37 -65 -65 -85q-40 -28 -132 -28h-100q-288 0 -288 294v32q0 297 300 297h92q102 0 153 -69h13v122q0 80 -42 111t-158 31q-39 0 -235 -16q-48 -4 -48 21v118q0 31 42 40q156 30 274 30q193 0 270 -63
q120 -98 120 -286v-379q0 -73 53 -91l22 -7q31 -10 31 -36v-68zM618 264v88q0 85 -132 85h-79q-70 0 -99 -23t-29 -85v-41q0 -63 28 -86q25 -23 90 -23h86q135 0 135 85zM209 1219q-1 97 52 160q56 68 151 68q62 0 169 -54q59 -30 94 -30q61 0 73 87h130q-6 -228 -196 -228
q-63 0 -166 56q-67 36 -98 36q-78 0 -76 -95h-133z" />
    <glyph glyph-name="adieresis" unicode="&#xe4;" 
d="M948 69q0 -28 -39 -41l-57 -18q-50 -16 -83 -16q-57 0 -123 107q-37 -65 -65 -85q-40 -28 -132 -28h-100q-288 0 -288 294v32q0 297 300 297h92q102 0 153 -69h13v122q0 80 -42 111t-158 31q-39 0 -235 -16q-48 -4 -48 21v118q0 31 42 40q156 30 274 30q193 0 270 -63
q120 -98 120 -286v-379q0 -73 53 -91l22 -7q31 -10 31 -36v-68zM618 264v88q0 85 -132 85h-79q-70 0 -99 -23t-29 -85v-41q0 -63 28 -86q25 -23 90 -23h86q135 0 135 85zM263 1270v205h188v-205h-188zM636 1270v205h188v-205h-188z" />
    <glyph glyph-name="aring" unicode="&#xe5;" 
d="M948 69q0 -28 -39 -41l-57 -18q-50 -16 -83 -16q-57 0 -123 107q-37 -65 -65 -85q-40 -28 -132 -28h-100q-288 0 -288 294v32q0 297 300 297h92q102 0 153 -69h13v122q0 80 -42 111t-158 31q-39 0 -235 -16q-48 -4 -48 21v118q0 31 42 40q156 30 274 30q193 0 270 -63
q120 -98 120 -286v-379q0 -73 53 -91l22 -7q31 -10 31 -36v-68zM618 264v88q0 85 -132 85h-79q-70 0 -99 -23t-29 -85v-41q0 -63 28 -86q25 -23 90 -23h86q135 0 135 85zM363 1338q0 74 53 126.5t127 52.5q76 0 128 -53.5t52 -129.5t-51.5 -129.5t-127.5 -53.5
q-78 0 -129.5 54t-51.5 133zM439 1337q0 -45 30.5 -78t75.5 -33q44 0 75 32.5t31 76.5q0 45 -30.5 77t-75.5 32q-44 0 -75 -31.5t-31 -75.5z" />
    <glyph glyph-name="ae" unicode="&#xe6;" horiz-adv-x="1821" 
d="M1734 325q-104 -349 -468 -349q-246 0 -395 198q-202 -198 -440 -198q-151 0 -251 75q-112 83 -112 229q0 194 189 277q87 38 281 63q151 20 252 49q1 25 1 41q0 127 -54 177t-182 50q-176 0 -235 -80q-29 -39 -48 -124l-175 21q53 222 231 293q98 39 229 39
q167 0 269 -50q59 -29 99 -93q131 143 341 143q314 0 423 -286q49 -129 49 -254q0 -19 -2 -61h-767q2 -120 25 -182q31 -83 118 -135q74 -44 161 -44q216 0 273 225zM969 633h584q-27 304 -288 304q-135 0 -213 -86q-74 -81 -83 -218zM793 533q-79 -34 -322 -73
q-110 -17 -153 -51q-59 -46 -59 -123q0 -83 64 -128q56 -40 143 -40q105 0 190 50q94 54 122 149q15 50 15 216z" />
    <glyph glyph-name="ccedilla" unicode="&#xe7;" horiz-adv-x="1024" 
d="M803 55q0 -27 -35 -35q-119 -28 -262 -28q-231 0 -319 93q-105 112 -105 410q0 197 35 298q32 90 108 144q88 62 281 62q121 0 255 -26q42 -8 42 -39v-123q0 -25 -48 -21q-143 12 -221 12q-123 0 -163 -28q-56 -37 -56 -159v-237q0 -123 44 -158q35 -28 155 -28
q166 0 245 4q44 3 44 -23v-118zM413 -134l52 177h134l-33 -107q171 -20 171 -147q0 -99 -101 -150q-79 -40 -188 -40q-82 0 -144 12l11 117q64 -4 94 -4q161 0 161 75q0 39 -54 56q-32 10 -103 11z" />
    <glyph glyph-name="egrave" unicode="&#xe8;" 
d="M871 431q0 -35 -41 -35h-517v-53q0 -92 38 -123t155 -31q118 0 284 9q43 3 43 -31v-104q0 -27 -35 -35q-152 -36 -304 -36q-227 0 -314 93q-98 104 -98 410q0 200 32 300q29 94 104 146q83 60 260 60q179 0 263 -60q73 -51 101.5 -129t28.5 -229v-152zM643 684
q0 76 -31 100.5t-134 24.5q-109 0 -140 -33q-25 -25 -25 -106v-105h330v119zM562 1080q11 -28 7 -35q-3 -6 -22 -6q-23 0 -57 31q-126 112 -223 282l-40 70q-12 21 -12 36q0 31 45 31h74q62 0 86 -59z" />
    <glyph glyph-name="eacute" unicode="&#xe9;" 
d="M871 431q0 -35 -41 -35h-517v-53q0 -92 38 -123t155 -31q118 0 284 9q43 3 43 -31v-104q0 -27 -35 -35q-152 -36 -304 -36q-227 0 -314 93q-98 104 -98 410q0 200 32 300q29 94 104 146q83 60 260 60q179 0 263 -60q73 -51 101.5 -129t28.5 -229v-152zM643 684
q0 76 -31 100.5t-134 24.5q-109 0 -140 -33q-25 -25 -25 -106v-105h330v119zM450 1194l133 280h236l-220 -280h-149z" />
    <glyph glyph-name="ecircumflex" unicode="&#xea;" 
d="M871 431q0 -35 -41 -35h-517v-53q0 -92 38 -123t155 -31q118 0 284 9q43 3 43 -31v-104q0 -27 -35 -35q-152 -36 -304 -36q-227 0 -314 93q-98 104 -98 410q0 200 32 300q29 94 104 146q83 60 260 60q179 0 263 -60q73 -51 101.5 -129t28.5 -229v-152zM643 684
q0 76 -31 100.5t-134 24.5q-109 0 -140 -33q-25 -25 -25 -106v-105h330v119zM552 1364l-113 -170h-206l216 280h192l225 -280h-204z" />
    <glyph glyph-name="edieresis" unicode="&#xeb;" 
d="M871 431q0 -35 -41 -35h-517v-53q0 -92 38 -123t155 -31q118 0 284 9q43 3 43 -31v-104q0 -27 -35 -35q-152 -36 -304 -36q-227 0 -314 93q-98 104 -98 410q0 200 32 300q29 94 104 146q83 60 260 60q179 0 263 -60q73 -51 101.5 -129t28.5 -229v-152zM643 684
q0 76 -31 100.5t-134 24.5q-109 0 -140 -33q-25 -25 -25 -106v-105h330v119zM269 1270v205h188v-205h-188zM642 1270v205h188v-205h-188z" />
    <glyph glyph-name="igrave" unicode="&#xec;" horiz-adv-x="569" 
d="M134 0v1062h180v-1062h-180zM238 1080q11 -28 7 -35q-3 -6 -22 -6q-23 0 -57 31q-126 112 -223 282l-40 70q-12 21 -12 36q0 31 45 31h74q62 0 86 -59z" />
    <glyph glyph-name="iacute" unicode="&#xed;" horiz-adv-x="569" 
d="M198 0v1062h180v-1062h-180zM189 1194l133 280h236l-220 -280h-149z" />
    <glyph glyph-name="icircumflex" unicode="&#xee;" horiz-adv-x="569" 
d="M198 0v1062h180v-1062h-180zM302 1364l-113 -170h-206l216 280h192l225 -280h-204z" />
    <glyph glyph-name="idieresis" unicode="&#xef;" horiz-adv-x="569" 
d="M198 0v1062h180v-1062h-180zM9 1270v205h188v-205h-188zM382 1270v205h188v-205h-188z" />
    <glyph glyph-name="eth" unicode="&#xf0;" 
d="M308 1466h217q72 -54 125 -102l214 102l45 -102l-172 -83q320 -368 320 -760q0 -236 -126 -386q-135 -160 -367 -160q-255 0 -398 194q-93 126 -93 348q0 229 109 378q122 167 343 167q101 0 212 -59q-58 118 -142 213l-275 -127l-44 103l239 109q-97 90 -207 165z
M870 529q0 164 -73 271q-83 124 -240 124q-160 0 -237 -133q-63 -108 -63 -279q0 -164 69 -268q80 -122 237 -122q155 0 238 132q69 110 69 275z" />
    <glyph glyph-name="ntilde" unicode="&#xf1;" 
d="M936 35q0 -35 -30 -35h-171q-31 0 -31 35v585q0 106 -39 146.5t-137 40.5h-82q-112 0 -112 -35v-737q0 -35 -31 -35h-171q-30 0 -30 35v874q0 53 44 64q125 32 338 32h64q388 0 388 -339v-631zM246 1219q-1 97 52 160q56 68 151 68q62 0 169 -54q59 -30 94 -30
q61 0 73 87h130q-6 -228 -196 -228q-63 0 -166 56q-67 36 -98 36q-78 0 -76 -95h-133z" />
    <glyph glyph-name="ograve" unicode="&#xf2;" 
d="M942 511q0 -272 -82 -385q-102 -140 -346 -140h-2q-261 0 -355 135q-75 107 -75 372q0 261 60 359q96 156 370 156h2q276 0 368 -148q60 -97 60 -349zM709 407v164q0 156 -37 199q-33 40 -150 40h-33q-109 0 -140.5 -42t-31.5 -188v-175q0 -141 33 -181q35 -43 156 -43
h16q116 0 151.5 41.5t35.5 184.5zM585 1080q11 -28 7 -35q-3 -6 -22 -6q-23 0 -57 31q-126 112 -223 282l-40 70q-12 21 -12 36q0 31 45 31h74q62 0 86 -59z" />
    <glyph glyph-name="oacute" unicode="&#xf3;" 
d="M942 511q0 -272 -82 -385q-102 -140 -346 -140h-2q-261 0 -355 135q-75 107 -75 372q0 261 60 359q96 156 370 156h2q276 0 368 -148q60 -97 60 -349zM709 407v164q0 156 -37 199q-33 40 -150 40h-33q-109 0 -140.5 -42t-31.5 -188v-175q0 -141 33 -181q35 -43 156 -43
h16q116 0 151.5 41.5t35.5 184.5zM473 1194l133 280h236l-220 -280h-149z" />
    <glyph glyph-name="ocircumflex" unicode="&#xf4;" 
d="M942 511q0 -272 -82 -385q-102 -140 -346 -140h-2q-261 0 -355 135q-75 107 -75 372q0 261 60 359q96 156 370 156h2q276 0 368 -148q60 -97 60 -349zM709 407v164q0 156 -37 199q-33 40 -150 40h-33q-109 0 -140.5 -42t-31.5 -188v-175q0 -141 33 -181q35 -43 156 -43
h16q116 0 151.5 41.5t35.5 184.5zM575 1364l-113 -170h-206l216 280h192l225 -280h-204z" />
    <glyph glyph-name="otilde" unicode="&#xf5;" 
d="M942 511q0 -272 -82 -385q-102 -140 -346 -140h-2q-261 0 -355 135q-75 107 -75 372q0 261 60 359q96 156 370 156h2q276 0 368 -148q60 -97 60 -349zM709 407v164q0 156 -37 199q-33 40 -150 40h-33q-109 0 -140.5 -42t-31.5 -188v-175q0 -141 33 -181q35 -43 156 -43
h16q116 0 151.5 41.5t35.5 184.5zM238 1219q-1 97 52 160q56 68 151 68q62 0 169 -54q59 -30 94 -30q61 0 73 87h130q-6 -228 -196 -228q-63 0 -166 56q-67 36 -98 36q-78 0 -76 -95h-133z" />
    <glyph glyph-name="odieresis" unicode="&#xf6;" 
d="M942 511q0 -272 -82 -385q-102 -140 -346 -140h-2q-261 0 -355 135q-75 107 -75 372q0 261 60 359q96 156 370 156h2q276 0 368 -148q60 -97 60 -349zM709 407v164q0 156 -37 199q-33 40 -150 40h-33q-109 0 -140.5 -42t-31.5 -188v-175q0 -141 33 -181q35 -43 156 -43
h16q116 0 151.5 41.5t35.5 184.5zM292 1270v205h188v-205h-188zM665 1270v205h188v-205h-188z" />
    <glyph glyph-name="divide" unicode="&#xf7;" horiz-adv-x="1124" 
d="M459 922v205h205v-205h-205zM1046 639h-968v168h968v-168zM459 319v205h205v-205h-205z" />
    <glyph glyph-name="oslash" unicode="&#xf8;" horiz-adv-x="1251" 
d="M919 999l99 128l96 -70l-107 -138q65 -89 86 -156q31 -97 31 -233q0 -301 -169 -441q-136 -113 -330 -113q-159 0 -281 80l-105 -135l-94 71l108 141q-59 68 -84 136q-40 109 -40 247q0 252 117 403q130 167 375 167q147 0 298 -87zM818 867q-91 70 -191 70
q-160 0 -243 -128q-70 -109 -70 -278q0 -150 52 -251zM893 770l-449 -583q78 -63 176 -63q164 0 248 127q72 108 72 281q0 74 -12 133q-9 44 -35 105z" />
    <glyph glyph-name="ugrave" unicode="&#xf9;" 
d="M1025 69q0 -28 -39 -41l-57 -18q-51 -16 -83 -16q-57 0 -123 107q-47 -65 -80 -87q-43 -27 -117 -27h-121q-137 0 -215 81q-88 90 -88 268v610q0 36 30 36h172q30 0 30 -36v-594q0 -101 33 -137q29 -30 108 -30h91q122 0 122 85v676q0 36 31 36h171q30 0 30 -36v-668
q0 -81 52 -98l21 -7q32 -10 32 -36v-68zM604 1080q11 -28 7 -35q-3 -6 -22 -6q-23 0 -57 31q-126 112 -223 282l-40 70q-12 21 -12 36q0 31 45 31h74q62 0 86 -59z" />
    <glyph glyph-name="uacute" unicode="&#xfa;" 
d="M1025 69q0 -28 -39 -41l-57 -18q-51 -16 -83 -16q-57 0 -123 107q-47 -65 -80 -87q-43 -27 -117 -27h-121q-137 0 -215 81q-88 90 -88 268v610q0 36 30 36h172q30 0 30 -36v-594q0 -101 33 -137q29 -30 108 -30h91q122 0 122 85v676q0 36 31 36h171q30 0 30 -36v-668
q0 -81 52 -98l21 -7q32 -10 32 -36v-68zM438 1194l133 280h236l-220 -280h-149z" />
    <glyph glyph-name="ucircumflex" unicode="&#xfb;" 
d="M1025 69q0 -28 -39 -41l-57 -18q-51 -16 -83 -16q-57 0 -123 107q-47 -65 -80 -87q-43 -27 -117 -27h-121q-137 0 -215 81q-88 90 -88 268v610q0 36 30 36h172q30 0 30 -36v-594q0 -101 33 -137q29 -30 108 -30h91q122 0 122 85v676q0 36 31 36h171q30 0 30 -36v-668
q0 -81 52 -98l21 -7q32 -10 32 -36v-68zM549 1364l-113 -170h-206l216 280h192l225 -280h-204z" />
    <glyph glyph-name="udieresis" unicode="&#xfc;" 
d="M1025 69q0 -28 -39 -41l-57 -18q-51 -16 -83 -16q-57 0 -123 107q-47 -65 -80 -87q-43 -27 -117 -27h-121q-137 0 -215 81q-88 90 -88 268v610q0 36 30 36h172q30 0 30 -36v-594q0 -101 33 -137q29 -30 108 -30h91q122 0 122 85v676q0 36 31 36h171q30 0 30 -36v-668
q0 -81 52 -98l21 -7q32 -10 32 -36v-68zM266 1270v205h188v-205h-188zM639 1270v205h188v-205h-188z" />
    <glyph glyph-name="yacute" unicode="&#xfd;" horiz-adv-x="1024" 
d="M974 951l-330 -1086q-55 -181 -150 -247q-72 -51 -207 -51q-75 0 -139 23q-16 6 -16 33v105q0 22 42 19q1 0 33 -3q27 -3 43 -3q79 0 108 15q44 23 66 103l53 188h-85q-42 0 -56 46l-261 854q-14 46 19 46h187q31 0 40 -36l191 -764h17l203 768q8 32 41 32h172
q42 0 29 -42zM455 1194l133 280h236l-220 -280h-149z" />
    <glyph glyph-name="thorn" unicode="&#xfe;" 
d="M135 -407v1873h180v-516q72 76 128 102q73 34 164 34q286 0 397 -267q53 -128 53 -280q0 -351 -228 -493q-112 -70 -234 -70q-84 0 -154 33q-53 25 -126 101v-517h-180zM298 525q0 -161 60 -268q75 -133 224 -133q153 0 230 139q61 111 61 277q0 159 -61 269
q-75 136 -222 136q-148 0 -227 -144q-65 -118 -65 -276z" />
    <glyph glyph-name="ydieresis" unicode="&#xff;" horiz-adv-x="1024" 
d="M974 951l-330 -1086q-55 -181 -150 -247q-72 -51 -207 -51q-75 0 -139 23q-16 6 -16 33v105q0 22 42 19q1 0 33 -3q27 -3 43 -3q79 0 108 15q44 23 66 103l53 188h-85q-42 0 -56 46l-261 854q-14 46 19 46h187q31 0 40 -36l191 -764h17l203 768q8 32 41 32h172
q42 0 29 -42zM278 1270v205h188v-205h-188zM651 1270v205h188v-205h-188z" />
    <glyph glyph-name="Amacron" unicode="&#x100;" horiz-adv-x="1366" 
d="M1183 51q7 -20 7 -29q0 -22 -41 -22h-154q-50 0 -66 55l-75 243h-474l-74 -243q-16 -55 -66 -55h-157q-41 0 -41 22q0 9 7 29l396 1212q16 49 64 49h212q48 0 65 -49zM800 489l-184 601l-186 -601h370zM379 1578v148h624v-148h-624z" />
    <glyph glyph-name="amacron" unicode="&#x101;" 
d="M948 69q0 -28 -39 -41l-57 -18q-50 -16 -83 -16q-57 0 -123 107q-37 -65 -65 -85q-40 -28 -132 -28h-100q-288 0 -288 294v32q0 297 300 297h92q102 0 153 -69h13v122q0 80 -42 111t-158 31q-39 0 -235 -16q-48 -4 -48 21v118q0 31 42 40q156 30 274 30q193 0 270 -63
q120 -98 120 -286v-379q0 -73 53 -91l22 -7q31 -10 31 -36v-68zM618 264v88q0 85 -132 85h-79q-70 0 -99 -23t-29 -85v-41q0 -63 28 -86q25 -23 90 -23h86q135 0 135 85zM254 1227v148h624v-148h-624z" />
    <glyph glyph-name="Abreve" unicode="&#x102;" horiz-adv-x="1366" 
d="M1183 51q7 -20 7 -29q0 -22 -41 -22h-154q-50 0 -66 55l-75 243h-474l-74 -243q-16 -55 -66 -55h-157q-41 0 -41 22q0 9 7 29l396 1212q16 49 64 49h212q48 0 65 -49zM800 489l-184 601l-186 -601h370zM872 1815h123q-31 -259 -295 -259q-265 0 -296 259h123
q28 -135 167 -135q151 0 178 135z" />
    <glyph glyph-name="abreve" unicode="&#x103;" 
d="M948 69q0 -28 -39 -41l-57 -18q-50 -16 -83 -16q-57 0 -123 107q-37 -65 -65 -85q-40 -28 -132 -28h-100q-288 0 -288 294v32q0 297 300 297h92q102 0 153 -69h13v122q0 80 -42 111t-158 31q-39 0 -235 -16q-48 -4 -48 21v118q0 31 42 40q156 30 274 30q193 0 270 -63
q120 -98 120 -286v-379q0 -73 53 -91l22 -7q31 -10 31 -36v-68zM618 264v88q0 85 -132 85h-79q-70 0 -99 -23t-29 -85v-41q0 -63 28 -86q25 -23 90 -23h86q135 0 135 85zM739 1464h123q-31 -259 -295 -259q-265 0 -296 259h123q28 -135 167 -135q151 0 178 135z" />
    <glyph glyph-name="Aogonek" unicode="&#x104;" horiz-adv-x="1366" 
d="M1183 51q7 -20 7 -29q0 -22 -41 -22h-154q-50 0 -66 55l-75 243h-474l-74 -243q-16 -55 -66 -55h-157q-41 0 -41 22q0 9 7 29l396 1212q16 49 64 49h212q48 0 65 -49zM800 489l-184 601l-186 -601h370zM1171 34h124q-39 -89 -39 -164q0 -66 39.5 -109t104.5 -43
q77 0 168 46v-119q-117 -61 -219 -61q-100 0 -159.5 60.5t-59.5 160.5q0 86 41 229z" />
    <glyph glyph-name="aogonek" unicode="&#x105;" 
d="M948 69q0 -28 -39 -41l-57 -18q-50 -16 -83 -16q-57 0 -123 107q-37 -65 -65 -85q-40 -28 -132 -28h-100q-288 0 -288 294v32q0 297 300 297h92q102 0 153 -69h13v122q0 80 -42 111t-158 31q-39 0 -235 -16q-48 -4 -48 21v118q0 31 42 40q156 30 274 30q193 0 270 -63
q120 -98 120 -286v-379q0 -73 53 -91l22 -7q31 -10 31 -36v-68zM618 264v88q0 85 -132 85h-79q-70 0 -99 -23t-29 -85v-41q0 -63 28 -86q25 -23 90 -23h86q135 0 135 85zM851 49h124q-39 -89 -39 -164q0 -66 39.5 -109t104.5 -43q77 0 168 46v-119q-117 -61 -219 -61
q-100 0 -159.5 60.5t-59.5 160.5q0 86 41 229z" />
    <glyph glyph-name="Cacute" unicode="&#x106;" horiz-adv-x="1479" 
d="M1087 81q0 -44 -55 -58q-145 -34 -356 -34q-303 0 -427 132q-73 79 -104 192q-32 121 -32 342q0 271 42 395q37 113 142 187q121 87 379 87q165 0 347 -36q64 -13 64 -63v-96q0 -44 -75 -38q-128 11 -291 11q-186 0 -258 -37q-98 -50 -98 -200v-401q0 -152 84 -206
q68 -44 244 -44q231 0 325 5q38 3 49 -1q20 -7 20 -40v-97zM680 1556l133 280h236l-220 -280h-149z" />
    <glyph glyph-name="cacute" unicode="&#x107;" horiz-adv-x="1024" 
d="M803 55q0 -27 -35 -35q-119 -28 -262 -28q-231 0 -319 93q-105 112 -105 410q0 197 35 298q32 90 108 144q88 62 281 62q121 0 255 -26q42 -8 42 -39v-123q0 -25 -48 -21q-143 12 -221 12q-123 0 -163 -28q-56 -37 -56 -159v-237q0 -123 44 -158q35 -28 155 -28
q166 0 245 4q44 3 44 -23v-118zM426 1194l133 280h236l-220 -280h-149z" />
    <glyph glyph-name="Ccircumflex" unicode="&#x108;" horiz-adv-x="1479" 
d="M1087 81q0 -44 -55 -58q-145 -34 -356 -34q-303 0 -427 132q-73 79 -104 192q-32 121 -32 342q0 271 42 395q37 113 142 187q121 87 379 87q165 0 347 -36q64 -13 64 -63v-96q0 -44 -75 -38q-128 11 -291 11q-186 0 -258 -37q-98 -50 -98 -200v-401q0 -152 84 -206
q68 -44 244 -44q231 0 325 5q38 3 49 -1q20 -7 20 -40v-97zM793 1720l-113 -170h-206l216 280h192l225 -280h-204z" />
    <glyph glyph-name="ccircumflex" unicode="&#x109;" horiz-adv-x="1024" 
d="M803 55q0 -27 -35 -35q-119 -28 -262 -28q-231 0 -319 93q-105 112 -105 410q0 197 35 298q32 90 108 144q88 62 281 62q121 0 255 -26q42 -8 42 -39v-123q0 -25 -48 -21q-143 12 -221 12q-123 0 -163 -28q-56 -37 -56 -159v-237q0 -123 44 -158q35 -28 155 -28
q166 0 245 4q44 3 44 -23v-118zM596 1364l-113 -170h-206l216 280h192l225 -280h-204z" />
    <glyph glyph-name="Cdot" unicode="&#x10a;" horiz-adv-x="1479" 
d="M1087 81q0 -44 -55 -58q-145 -34 -356 -34q-303 0 -427 132q-73 79 -104 192q-32 121 -32 342q0 271 42 395q37 113 142 187q121 87 379 87q165 0 347 -36q64 -13 64 -63v-96q0 -44 -75 -38q-128 11 -291 11q-186 0 -258 -37q-98 -50 -98 -200v-401q0 -152 84 -206
q68 -44 244 -44q231 0 325 5q38 3 49 -1q20 -7 20 -40v-97zM678 1594v224h223v-224h-223z" />
    <glyph glyph-name="cdot" unicode="&#x10b;" horiz-adv-x="1024" 
d="M803 55q0 -27 -35 -35q-119 -28 -262 -28q-231 0 -319 93q-105 112 -105 410q0 197 35 298q32 90 108 144q88 62 281 62q121 0 255 -26q42 -8 42 -39v-123q0 -25 -48 -21q-143 12 -221 12q-123 0 -163 -28q-56 -37 -56 -159v-237q0 -123 44 -158q35 -28 155 -28
q166 0 245 4q44 3 44 -23v-118zM471 1194v224h223v-224h-223z" />
    <glyph glyph-name="Ccaron" unicode="&#x10c;" horiz-adv-x="1479" 
d="M1087 81q0 -44 -55 -58q-145 -34 -356 -34q-303 0 -427 132q-73 79 -104 192q-32 121 -32 342q0 271 42 395q37 113 142 187q121 87 379 87q165 0 347 -36q64 -13 64 -63v-96q0 -44 -75 -38q-128 11 -291 11q-186 0 -258 -37q-98 -50 -98 -200v-401q0 -152 84 -206
q68 -44 244 -44q231 0 325 5q38 3 49 -1q20 -7 20 -40v-97zM808 1660l110 170h204l-225 -280h-192l-216 280h206z" />
    <glyph glyph-name="ccaron" unicode="&#x10d;" horiz-adv-x="1024" 
d="M803 55q0 -27 -35 -35q-119 -28 -262 -28q-231 0 -319 93q-105 112 -105 410q0 197 35 298q32 90 108 144q88 62 281 62q121 0 255 -26q42 -8 42 -39v-123q0 -25 -48 -21q-143 12 -221 12q-123 0 -163 -28q-56 -37 -56 -159v-237q0 -123 44 -158q35 -28 155 -28
q166 0 245 4q44 3 44 -23v-118zM563 1304l110 170h204l-225 -280h-192l-216 280h206z" />
    <glyph glyph-name="Dcaron" unicode="&#x10e;" horiz-adv-x="1479" 
d="M1203 655q0 -219 -33 -339q-30 -109 -104 -188q-120 -128 -400 -128h-474q-49 0 -49 58v1202q0 52 52 52h445q274 0 379 -74.5t143 -187.5q41 -124 41 -395zM950 464v388q0 157 -72 212q-62 47 -229 47h-265v-906h278q164 0 222 47q66 54 66 212zM606 1660l110 170h204
l-225 -280h-192l-216 280h206z" />
    <glyph glyph-name="dcaron" unicode="&#x10f;" horiz-adv-x="1259" 
d="M1078 1281v185h184v-185q0 -195 -150 -260l-45 68q98 44 102 192h-91zM825 0v134q-101 -158 -297 -158q-132 0 -238 73q-103 70 -160 193q-59 127 -59 288q0 349 212 487q106 69 237 69q187 0 293 -146v526h179v-1466h-167zM256 530q0 -160 63 -271q77 -135 226 -135
q147 0 222 128q61 105 61 263q0 171 -59 281q-76 141 -232 141q-152 0 -224 -135q-57 -106 -57 -272z" />
    <glyph glyph-name="Dslash" unicode="&#x110;" horiz-adv-x="1479" 
d="M158 0v667h-161v132h161v667h506q170 0 260 -21q280 -65 389 -355q57 -151 57 -349q0 -181 -53 -339q-104 -310 -416 -385q-71 -17 -214 -17h-529zM352 173h313q256 0 358 102q147 147 147 468q0 301 -139 440q-72 72 -172 95q-64 15 -199 15h-308v-494h404v-132h-404
v-494z" />
    <glyph glyph-name="dcroat" unicode="&#x111;" 
d="M812 1219h-346v132h346v115h179v-115h145v-132h-145v-1219h-167v134q-101 -158 -297 -158q-132 0 -238 73q-103 70 -160 193q-59 127 -59 288q0 349 212 487q106 69 237 69q187 0 293 -146v279zM255 530q0 -160 63 -271q77 -135 226 -135q147 0 222 128q61 105 61 263
q0 171 -59 281q-76 141 -232 141q-152 0 -224 -135q-57 -106 -57 -272z" />
    <glyph glyph-name="Emacron" unicode="&#x112;" horiz-adv-x="1366" 
d="M1068 50q0 -50 -49 -50h-827q-49 0 -49 47v1220q0 46 49 46h827q49 0 49 -49v-102q0 -52 -49 -52h-638v-328h579q50 0 50 -50v-100q0 -52 -50 -52h-579v-373h638q49 0 49 -53v-104zM420 1589v148h624v-148h-624z" />
    <glyph glyph-name="emacron" unicode="&#x113;" 
d="M871 431q0 -35 -41 -35h-517v-53q0 -92 38 -123t155 -31q118 0 284 9q43 3 43 -31v-104q0 -27 -35 -35q-152 -36 -304 -36q-227 0 -314 93q-98 104 -98 410q0 200 32 300q29 94 104 146q83 60 260 60q179 0 263 -60q73 -51 101.5 -129t28.5 -229v-152zM643 684
q0 76 -31 100.5t-134 24.5q-109 0 -140 -33q-25 -25 -25 -106v-105h330v119zM238 1227v148h624v-148h-624z" />
    <glyph glyph-name="Ebreve" unicode="&#x114;" horiz-adv-x="1366" 
d="M1068 50q0 -50 -49 -50h-827q-49 0 -49 47v1220q0 46 49 46h827q49 0 49 -49v-102q0 -52 -49 -52h-638v-328h579q50 0 50 -50v-100q0 -52 -50 -52h-579v-373h638q49 0 49 -53v-104zM883 1826h123q-31 -259 -295 -259q-265 0 -296 259h123q28 -135 167 -135q151 0 178 135
z" />
    <glyph glyph-name="ebreve" unicode="&#x115;" 
d="M871 431q0 -35 -41 -35h-517v-53q0 -92 38 -123t155 -31q118 0 284 9q43 3 43 -31v-104q0 -27 -35 -35q-152 -36 -304 -36q-227 0 -314 93q-98 104 -98 410q0 200 32 300q29 94 104 146q83 60 260 60q179 0 263 -60q73 -51 101.5 -129t28.5 -229v-152zM643 684
q0 76 -31 100.5t-134 24.5q-109 0 -140 -33q-25 -25 -25 -106v-105h330v119zM743 1464h123q-31 -259 -295 -259q-265 0 -296 259h123q28 -135 167 -135q151 0 178 135z" />
    <glyph glyph-name="Edot" unicode="&#x116;" horiz-adv-x="1366" 
d="M1068 50q0 -50 -49 -50h-827q-49 0 -49 47v1220q0 46 49 46h827q49 0 49 -49v-102q0 -52 -49 -52h-638v-328h579q50 0 50 -50v-100q0 -52 -50 -52h-579v-373h638q49 0 49 -53v-104zM620 1556v224h223v-224h-223z" />
    <glyph glyph-name="edot" unicode="&#x117;" 
d="M871 431q0 -35 -41 -35h-517v-53q0 -92 38 -123t155 -31q118 0 284 9q43 3 43 -31v-104q0 -27 -35 -35q-152 -36 -304 -36q-227 0 -314 93q-98 104 -98 410q0 200 32 300q29 94 104 146q83 60 260 60q179 0 263 -60q73 -51 101.5 -129t28.5 -229v-152zM643 684
q0 76 -31 100.5t-134 24.5q-109 0 -140 -33q-25 -25 -25 -106v-105h330v119zM464 1194v224h223v-224h-223z" />
    <glyph glyph-name="Eogonek" unicode="&#x118;" horiz-adv-x="1366" 
d="M1068 50q0 -50 -49 -50h-827q-49 0 -49 47v1220q0 46 49 46h827q49 0 49 -49v-102q0 -52 -49 -52h-638v-328h579q50 0 50 -50v-100q0 -52 -50 -52h-579v-373h638q49 0 49 -53v-104zM862 24h124q-39 -89 -39 -164q0 -66 39.5 -109t104.5 -43q77 0 168 46v-119
q-117 -61 -219 -61q-100 0 -159.5 60.5t-59.5 160.5q0 86 41 229z" />
    <glyph glyph-name="eogonek" unicode="&#x119;" 
d="M871 431q0 -35 -41 -35h-517v-53q0 -92 38 -123t155 -31q118 0 284 9q43 3 43 -31v-104q0 -27 -35 -35q-152 -36 -304 -36q-227 0 -314 93q-98 104 -98 410q0 200 32 300q29 94 104 146q83 60 260 60q179 0 263 -60q73 -51 101.5 -129t28.5 -229v-152zM643 684
q0 76 -31 100.5t-134 24.5q-109 0 -140 -33q-25 -25 -25 -106v-105h330v119zM526 24h124q-39 -89 -39 -164q0 -66 39.5 -109t104.5 -43q77 0 168 46v-119q-117 -61 -219 -61q-100 0 -159.5 60.5t-59.5 160.5q0 86 41 229z" />
    <glyph glyph-name="Ecaron" unicode="&#x11a;" horiz-adv-x="1366" 
d="M1068 50q0 -50 -49 -50h-827q-49 0 -49 47v1220q0 46 49 46h827q49 0 49 -49v-102q0 -52 -49 -52h-638v-328h579q50 0 50 -50v-100q0 -52 -50 -52h-579v-373h638q49 0 49 -53v-104zM672 1660l110 170h204l-225 -280h-192l-216 280h206z" />
    <glyph glyph-name="ecaron" unicode="&#x11b;" 
d="M871 431q0 -35 -41 -35h-517v-53q0 -92 38 -123t155 -31q118 0 284 9q43 3 43 -31v-104q0 -27 -35 -35q-152 -36 -304 -36q-227 0 -314 93q-98 104 -98 410q0 200 32 300q29 94 104 146q83 60 260 60q179 0 263 -60q73 -51 101.5 -129t28.5 -229v-152zM643 684
q0 76 -31 100.5t-134 24.5q-109 0 -140 -33q-25 -25 -25 -106v-105h330v119zM568 1304l110 170h204l-225 -280h-192l-216 280h206z" />
    <glyph glyph-name="Gcircumflex" unicode="&#x11c;" horiz-adv-x="1593" 
d="M1184 88q0 -37 -72 -55q-202 -48 -438 -48q-337 0 -455 127q-106 116 -106 340v370q0 245 113 364q128 134 420 134q265 0 471 -39q50 -10 50 -48v-96q0 -48 -58 -46q-257 9 -477 9q-168 0 -226 -55q-44 -43 -44 -149v-475q0 -133 42 -175q48 -48 202 -48q266 0 345 5
v340h-4h-276q-58 0 -58 49v110q0 49 55 49h445q45 0 58 -17.5t13 -62.5v-583zM873 1715l-113 -170h-206l216 280h192l225 -280h-204z" />
    <glyph glyph-name="gcircumflex" unicode="&#x11d;" 
d="M892 -41q0 -189 -114 -283q-99 -80 -299 -80q-188 0 -296 36q-41 14 -41 40v94q0 37 48 30q146 -20 264 -20q222 0 222 164q0 16 -2 33l-11 116q-40 -47 -78 -64q-43 -19 -121 -19h-50q-332 0 -332 348v240q0 405 372 405h107q150 0 263 -13q68 -8 68 -66v-961zM668 283
v488q0 32 -54 37q1 0 -75 0h-75q-157 0 -157 -178v-255q0 -94 28 -136q33 -51 119 -51h62q152 0 152 95zM523 1364l-113 -170h-206l216 280h192l225 -280h-204z" />
    <glyph glyph-name="Gbreve" unicode="&#x11e;" horiz-adv-x="1593" 
d="M1184 88q0 -37 -72 -55q-202 -48 -438 -48q-337 0 -455 127q-106 116 -106 340v370q0 245 113 364q128 134 420 134q265 0 471 -39q50 -10 50 -48v-96q0 -48 -58 -46q-257 9 -477 9q-168 0 -226 -55q-44 -43 -44 -149v-475q0 -133 42 -175q48 -48 202 -48q266 0 345 5
v340h-4h-276q-58 0 -58 49v110q0 49 55 49h445q45 0 58 -17.5t13 -62.5v-583zM1043 1815h123q-31 -259 -295 -259q-265 0 -296 259h123q28 -135 167 -135q151 0 178 135z" />
    <glyph glyph-name="gbreve" unicode="&#x11f;" 
d="M892 -41q0 -189 -114 -283q-99 -80 -299 -80q-188 0 -296 36q-41 14 -41 40v94q0 37 48 30q146 -20 264 -20q222 0 222 164q0 16 -2 33l-11 116q-40 -47 -78 -64q-43 -19 -121 -19h-50q-332 0 -332 348v240q0 405 372 405h107q150 0 263 -13q68 -8 68 -66v-961zM668 283
v488q0 32 -54 37q1 0 -75 0h-75q-157 0 -157 -178v-255q0 -94 28 -136q33 -51 119 -51h62q152 0 152 95zM721 1464h123q-31 -259 -295 -259q-265 0 -296 259h123q28 -135 167 -135q151 0 178 135z" />
    <glyph glyph-name="Gdot" unicode="&#x120;" horiz-adv-x="1593" 
d="M1184 88q0 -37 -72 -55q-202 -48 -438 -48q-337 0 -455 127q-106 116 -106 340v370q0 245 113 364q128 134 420 134q265 0 471 -39q50 -10 50 -48v-96q0 -48 -58 -46q-257 9 -477 9q-168 0 -226 -55q-44 -43 -44 -149v-475q0 -133 42 -175q48 -48 202 -48q266 0 345 5
v340h-4h-276q-58 0 -58 49v110q0 49 55 49h445q45 0 58 -17.5t13 -62.5v-583zM758 1545v224h223v-224h-223z" />
    <glyph glyph-name="gdot" unicode="&#x121;" 
d="M892 -41q0 -189 -114 -283q-99 -80 -299 -80q-188 0 -296 36q-41 14 -41 40v94q0 37 48 30q146 -20 264 -20q222 0 222 164q0 16 -2 33l-11 116q-40 -47 -78 -64q-43 -19 -121 -19h-50q-332 0 -332 348v240q0 405 372 405h107q150 0 263 -13q68 -8 68 -66v-961zM668 283
v488q0 32 -54 37q1 0 -75 0h-75q-157 0 -157 -178v-255q0 -94 28 -136q33 -51 119 -51h62q152 0 152 95zM436 1194v224h223v-224h-223z" />
    <glyph glyph-name="Gcedilla" unicode="&#x122;" horiz-adv-x="1593" 
d="M1184 88q0 -37 -72 -55q-202 -48 -438 -48q-337 0 -455 127q-106 116 -106 340v370q0 245 113 364q128 134 420 134q265 0 471 -39q50 -10 50 -48v-96q0 -48 -58 -46q-257 9 -477 9q-168 0 -226 -55q-44 -43 -44 -149v-475q0 -133 42 -175q48 -48 202 -48q266 0 345 5
v340h-4h-276q-58 0 -58 49v110q0 49 55 49h445q45 0 58 -17.5t13 -62.5v-583zM751 -154l52 177h134l-33 -107q171 -20 171 -147q0 -99 -101 -150q-79 -40 -188 -40q-82 0 -144 12l11 117q64 -4 94 -4q161 0 161 75q0 39 -54 56q-32 10 -103 11z" />
    <glyph glyph-name="gcedilla" unicode="&#x123;" 
d="M632 1345v-175h-209v117q0 223 168 289l54 -83q-93 -39 -109 -148h96zM102 -88l175 -26q17 -168 244 -168q235 0 279 168q19 72 19 253q-117 -139 -291 -139q-219 0 -346 162q-116 148 -116 373q0 235 110 384q124 167 352 167q186 0 308 -152v128h166v-918
q0 -196 -29 -292q-44 -144 -172 -218q-115 -65 -275 -65q-186 0 -298 76q-131 89 -126 267zM251 550q0 -167 60 -271q75 -130 231 -130t231 128q61 104 61 271q0 158 -66 264q-79 125 -229 125q-147 0 -224 -125q-64 -104 -64 -262z" />
    <glyph glyph-name="Hcircumflex" unicode="&#x124;" horiz-adv-x="1479" 
d="M1195 58q0 -58 -52 -58h-140q-50 0 -50 58v522h-572v-522q0 -58 -52 -58h-140q-49 0 -49 58v1202q0 52 52 52h140q49 0 49 -55v-475h572v478q0 52 52 52h140q50 0 50 -55v-1199zM780 1726l-113 -170h-206l216 280h192l225 -280h-204z" />
    <glyph glyph-name="hcircumflex" unicode="&#x125;" 
d="M913 35q0 -35 -31 -35h-171q-30 0 -30 35v617q0 81 -19 110q-29 47 -127 47h-67q-66 0 -93 -9q-49 -17 -49 -71v-694q0 -35 -30 -35h-164q-30 0 -30 35v1342q0 36 30 36h169q30 0 30 -36v-453q60 70 184 70h104q294 0 294 -323v-636zM594 1726l-113 -170h-206l216 280
h192l225 -280h-204z" />
    <glyph glyph-name="Hbar" unicode="&#x126;" horiz-adv-x="1479" 
d="M164 1099h-133v148h133v219h194v-219h762v219h194v-219h133v-148h-133v-1099h-194v691h-762v-691h-194v1099zM358 1099v-235h762v235h-762z" />
    <glyph glyph-name="hbar" unicode="&#x127;" 
d="M135 1199h-129v134h129v133h180v-133h367v-134h-367v-259q122 146 320 146q365 0 365 -413v-673h-180v673q0 258 -225 258q-280 0 -280 -350v-581h-180v1199z" />
    <glyph glyph-name="Itilde" unicode="&#x128;" horiz-adv-x="569" 
d="M378 49q0 -49 -43 -49h-157q-40 0 -40 49v1220q0 43 43 43h157q40 0 40 -45v-1218zM-62 1581q-1 97 52 160q56 68 151 68q62 0 169 -54q59 -30 94 -30q61 0 73 87h130q-6 -228 -196 -228q-63 0 -166 56q-67 36 -98 36q-78 0 -76 -95h-133z" />
    <glyph glyph-name="itilde" unicode="&#x129;" horiz-adv-x="569" 
d="M199 0v1062h180v-1062h-180zM-44 1219q-1 97 52 160q56 68 151 68q62 0 169 -54q59 -30 94 -30q61 0 73 87h130q-6 -228 -196 -228q-63 0 -166 56q-67 36 -98 36q-78 0 -76 -95h-133z" />
    <glyph glyph-name="Imacron" unicode="&#x12a;" horiz-adv-x="569" 
d="M377 49q0 -49 -43 -49h-157q-40 0 -40 49v1220q0 43 43 43h157q40 0 40 -45v-1218zM-28 1563v148h624v-148h-624z" />
    <glyph glyph-name="imacron" unicode="&#x12b;" horiz-adv-x="569" 
d="M198 0v1062h180v-1062h-180zM-23 1227v148h624v-148h-624z" />
    <glyph glyph-name="Ibreve" unicode="&#x12c;" horiz-adv-x="569" 
d="M377 49q0 -49 -43 -49h-157q-40 0 -40 49v1220q0 43 43 43h157q40 0 40 -45v-1218zM467 1800h123q-31 -259 -295 -259q-265 0 -296 259h123q28 -135 167 -135q151 0 178 135z" />
    <glyph glyph-name="ibreve" unicode="&#x12d;" horiz-adv-x="569" 
d="M198 0v1062h180v-1062h-180zM462 1464h123q-31 -259 -295 -259q-265 0 -296 259h123q28 -135 167 -135q151 0 178 135z" />
    <glyph glyph-name="Iogonek" unicode="&#x12e;" horiz-adv-x="569" 
d="M318 0q-29 -78 -29 -140q0 -65 40 -108.5t104 -43.5q77 0 168 46v-119q-119 -61 -223 -61q-98 0 -156.5 61.5t-58.5 159.5q0 80 35 206v1465h194v-1466h-74z" />
    <glyph glyph-name="iogonek" unicode="&#x12f;" horiz-adv-x="455" 
d="M136 1259v207h180v-207h-180zM257 0q-29 -78 -29 -140q0 -65 40 -108.5t104 -43.5q77 0 168 46v-119q-117 -60 -221 -60q-100 0 -158.5 60t-58.5 160q0 65 34 205v1062h180v-1062h-59z" />
    <glyph glyph-name="Idotaccent" unicode="&#x130;" horiz-adv-x="569" 
d="M312 49q0 -49 -43 -49h-157q-40 0 -40 49v1220q0 43 43 43h157q40 0 40 -45v-1218zM112 1556v224h223v-224h-223z" />
    <glyph glyph-name="dotlessi" unicode="&#x131;" horiz-adv-x="569" 
d="M198 0v1062h180v-1062h-180z" />
    <glyph glyph-name="IJ" unicode="&#x132;" horiz-adv-x="1505" 
d="M312 49q0 -49 -43 -49h-157q-40 0 -40 49v1220q0 43 43 43h157q40 0 40 -45v-1218zM854 131q0 -230 -135 -340q-106 -88 -277 -88q-155 0 -168 59q-1 9 -1 23v93q0 39 57 36q43 -3 79 -3q112 0 159 42q51 47 51 164v1143q0 53 49 53h137q49 0 49 -46v-1136z" />
    <glyph glyph-name="ij" unicode="&#x133;" horiz-adv-x="909" 
d="M328 1178q0 -31 -30 -31h-166q-29 0 -29 27v157q0 31 29 31h166q30 0 30 -27v-157zM327 31q0 -31 -29 -31h-167q-29 0 -29 27v924q0 32 30 32h166q29 0 29 -27v-925zM840 1178q0 -31 -29 -31h-167q-29 0 -29 27v157q0 31 30 31h166q29 0 29 -27v-157zM840 19
q0 -163 -93 -239q-71 -58 -179 -58q-72 0 -143 22q-25 8 -25 38v101q0 21 35 19q32 -2 50 -2q74 0 102 27t28 107v917q0 32 30 32h166q29 0 29 -27v-937z" />
    <glyph glyph-name="Jcircumflex" unicode="&#x134;" horiz-adv-x="1024" 
d="M458 131q0 -230 -135 -340q-106 -88 -277 -88q-155 0 -168 59q-1 9 -1 23v93q0 39 57 36q43 -3 79 -3q112 0 159 42q51 47 51 164v1143q0 53 49 53h137q49 0 49 -46v-1136zM868 1726l-113 -170h-206l216 280h192l225 -280h-204z" />
    <glyph glyph-name="jcircumflex" unicode="&#x135;" horiz-adv-x="455" 
d="M230 1364l-113 -170h-205l216 280h192l224 -280h-203zM-94 -412l34 153q52 -14 85 -14q78 0 100 77q9 32 9 142v1116h180v-1120q0 -180 -44 -261q-61 -112 -223 -112q-73 0 -141 19z" />
    <glyph glyph-name="Kcedilla" unicode="&#x136;" horiz-adv-x="1366" 
d="M913 1269q41 -17 41 -71q0 -69 -43 -100l2 2h-1q-8 0 -441 -312l261 -387q164 -240 328 -387q-30 -32 -84 -32q-99 0 -174 89q-61 73 -198 305q-96 163 -211 361l-105 -74v-525q0 -70 -37 -113q-39 -46 -108 -46v1290q145 0 145 -119v-386zM673 -50q35 4 66 4
q105 0 174 -38q87 -47 87 -144q0 -103 -101 -154q-78 -39 -192 -39q-63 0 -140 12l11 117q44 -4 87 -4q167 0 167 76q0 67 -127 67q-14 0 -32 -2v105z" />
    <glyph glyph-name="kcedilla" unicode="&#x137;" horiz-adv-x="1024" 
d="M806 14q-33 -36 -81 -36q-77 0 -146 83q-103 124 -216 361l-126 -100v-184q0 -159 -135 -159v1290q59 0 97 -38t38 -97v-687l491 442q46 -19 46 -81q0 -60 -36 -89l-309 -247q237 -350 377 -458zM502 -50q35 4 66 4q105 0 174 -38q87 -47 87 -144q0 -103 -101 -154
q-78 -39 -192 -39q-63 0 -140 12l11 117q44 -4 87 -4q167 0 167 76q0 67 -127 67q-14 0 -32 -2v105z" />
    <glyph glyph-name="kgreenlandic" unicode="&#x138;" horiz-adv-x="1024" 
d="M134 0v1062h180v-432l426 432h233l-406 -394l447 -668h-222l-351 543l-127 -122v-421h-180z" />
    <glyph glyph-name="Lacute" unicode="&#x139;" 
d="M978 50q0 -50 -49 -50h-737q-49 0 -49 47v1220q0 46 49 46h139q49 0 49 -52v-1054h549q49 0 49 -53v-104zM310 1556l133 280h236l-220 -280h-149z" />
    <glyph glyph-name="lacute" unicode="&#x13a;" horiz-adv-x="455" 
d="M462 59q0 -30 -39 -41l-57 -15q-49 -13 -93 -13q-78 0 -119 61q-37 53 -37 136v1190q0 36 30 36h169q30 0 30 -36v-1134q0 -58 53 -70l31 -7q32 -7 32 -39v-68zM66 1541l133 280h236l-220 -280h-149z" />
    <glyph glyph-name="Lcedilla" unicode="&#x13b;" 
d="M795 0h-547q-46 0 -77 54q-28 47 -28 96v1120q63 6 103 -26.5t40 -94.5v-1066h401q108 0 108 -83zM553 -50q35 4 66 4q105 0 174 -38q87 -47 87 -144q0 -103 -101 -154q-78 -39 -192 -39q-63 0 -140 12l11 117q44 -4 87 -4q167 0 167 76q0 67 -127 67q-14 0 -32 -2v105z
" />
    <glyph glyph-name="lcedilla" unicode="&#x13c;" horiz-adv-x="455" 
d="M239 -21v1122q0 168 -137 168v-1133q0 -157 137 -157zM103 -50q35 4 66 4q105 0 174 -38q87 -47 87 -144q0 -103 -101 -154q-78 -39 -192 -39q-63 0 -140 12l11 117q44 -4 87 -4q167 0 167 76q0 67 -127 67q-14 0 -32 -2v105z" />
    <glyph glyph-name="Lcaron" unicode="&#x13d;" 
d="M712 1261v205h205v-205q0 -217 -167 -290l-50 77q110 48 114 213h-102zM150 0v1466h194v-1293h722v-173h-916z" />
    <glyph glyph-name="lcaron" unicode="&#x13e;" horiz-adv-x="597" 
d="M412 1281v185h184v-185q0 -195 -150 -260l-45 68q98 44 102 192h-91zM136 0v1466h180v-1466h-180z" />
    <glyph glyph-name="Ldot" unicode="&#x13f;" 
d="M978 50q0 -50 -49 -50h-737q-49 0 -49 47v1220q0 46 49 46h139q49 0 49 -52v-1054h549q49 0 49 -53v-104zM731 637v205h205v-205h-205z" />
    <glyph glyph-name="ldot" unicode="&#x140;" horiz-adv-x="684" 
d="M447 59q0 -30 -39 -41l-57 -15q-49 -13 -93 -13q-78 0 -119 61q-37 53 -37 136v1190q0 36 30 36h169q30 0 30 -36v-1134q0 -58 53 -70l31 -7q32 -7 32 -39v-68zM456 637v205h205v-205h-205z" />
    <glyph glyph-name="Lslash" unicode="&#x141;" 
d="M145 565l-145 -123v167l145 124v733h194v-568l332 281v-167l-332 -281v-558h728v-173h-922v565z" />
    <glyph glyph-name="lslash" unicode="&#x142;" horiz-adv-x="455" 
d="M133 574l-130 -110v158l130 110v734h179v-582l135 115v-157l-135 -115v-727h-179v574z" />
    <glyph glyph-name="Nacute" unicode="&#x143;" horiz-adv-x="1479" 
d="M1198 58q0 -58 -52 -58h-159q-44 0 -75 54l-541 949l13 -145v-800q0 -58 -52 -58h-140q-49 0 -49 58v1202q0 52 52 52h179q41 0 70 -50l525 -916l-13 155v759q0 52 52 52h140q50 0 50 -55v-1199zM576 1556l133 280h236l-220 -280h-149z" />
    <glyph glyph-name="nacute" unicode="&#x144;" 
d="M936 35q0 -35 -30 -35h-171q-31 0 -31 35v585q0 106 -39 146.5t-137 40.5h-82q-112 0 -112 -35v-737q0 -35 -31 -35h-171q-30 0 -30 35v874q0 53 44 64q125 32 338 32h64q388 0 388 -339v-631zM432 1194l133 280h236l-220 -280h-149z" />
    <glyph glyph-name="Ncedilla" unicode="&#x145;" horiz-adv-x="1479" 
d="M1026 37q-45 -62 -129 -62q-80 0 -110 68l-498 1112v-1042q0 -64 -53 -104q-46 -34 -93 -30v1239q37 55 116 55q88 0 123 -78l501 -1113v1075q0 53 47 86q41 29 96 29v-1235zM699 -50q35 4 66 4q105 0 174 -38q87 -47 87 -144q0 -103 -101 -154q-78 -39 -192 -39
q-63 0 -140 12l11 117q44 -4 87 -4q167 0 167 76q0 67 -127 67q-14 0 -32 -2v105z" />
    <glyph glyph-name="ncedilla" unicode="&#x146;" 
d="M836 -21q-62 0 -98.5 39.5t-36.5 102.5v452q0 101 -54 165q-57 69 -156 69t-177.5 -88.5t-78.5 -188.5v-409q0 -142 -133 -142v910q11 2 22 2q49 0 81 -34t33 -84l1 -62q108 178 293 178q147 0 227 -89q77 -85 77 -234v-587zM463 -50q35 4 66 4q105 0 174 -38
q87 -47 87 -144q0 -103 -101 -154q-78 -39 -192 -39q-63 0 -140 12l11 117q44 -4 87 -4q167 0 167 76q0 67 -127 67q-14 0 -32 -2v105z" />
    <glyph glyph-name="Ncaron" unicode="&#x147;" horiz-adv-x="1479" 
d="M1198 58q0 -58 -52 -58h-159q-44 0 -75 54l-541 949l13 -145v-800q0 -58 -52 -58h-140q-49 0 -49 58v1202q0 52 52 52h179q41 0 70 -50l525 -916l-13 155v759q0 52 52 52h140q50 0 50 -55v-1199zM740 1666l110 170h204l-225 -280h-192l-216 280h206z" />
    <glyph glyph-name="ncaron" unicode="&#x148;" 
d="M936 35q0 -35 -30 -35h-171q-31 0 -31 35v585q0 106 -39 146.5t-137 40.5h-82q-112 0 -112 -35v-737q0 -35 -31 -35h-171q-30 0 -30 35v874q0 53 44 64q125 32 338 32h64q388 0 388 -339v-631zM569 1304l110 170h204l-225 -280h-192l-216 280h206z" />
    <glyph glyph-name="napostrophe" unicode="&#x149;" horiz-adv-x="1237" 
d="M1192 35q0 -35 -30 -35h-171q-31 0 -31 35v585q0 106 -39 146.5t-137 40.5h-82q-112 0 -112 -35v-737q0 -35 -31 -35h-171q-30 0 -30 35v874q0 53 44 64q125 32 338 32h64q388 0 388 -339v-631zM124 1272v209h193v-165q0 -134 -31 -193q-43 -81 -134 -122l-44 71
q104 42 110 200h-94z" />
    <glyph glyph-name="Eng" unicode="&#x14a;" horiz-adv-x="1481" 
d="M165 1466h196v-182q98 113 208 161q106 46 258 46q338 0 478 -314q68 -153 68 -423q0 -311 -87 -507q-121 -272 -393 -272q-127 0 -248 72l87 153q96 -52 161 -52q170 0 245 261q38 132 38 340q0 579 -405 579q-121 0 -221 -55q-109 -60 -151 -166q-38 -96 -38 -306v-801
h-196v1466z" />
    <glyph glyph-name="eng" unicode="&#x14b;" 
d="M1002 653v-711q0 -180 -44 -261q-61 -112 -223 -112q-73 0 -141 19l34 153q53 -14 85 -14q77 0 99 77q10 36 10 142v700q0 135 -42 202q-53 82 -181 82q-280 0 -280 -350v-580h-180v1062h162v-151q117 175 338 175q111 0 200 -46q102 -52 135 -148q28 -81 28 -239z" />
    <glyph glyph-name="Omacron" unicode="&#x14c;" horiz-adv-x="1593" 
d="M1299 678q0 -346 -113 -503q-141 -195 -477 -195h-3q-182 0 -291 38q-125 44 -199 150q-103 148 -103 484q0 331 83 467q72 116 195 167q118 49 315 49h3q200 0 316 -45q122 -48 191 -160q83 -134 83 -452zM1055 538v240q0 202 -73 276q-63 65 -222 65h-124
q-149 0 -210 -67q-66 -73 -66 -263v-254q0 -185 68 -263t230 -78h102q154 0 222 75q73 80 73 269zM516 1599v148h624v-148h-624z" />
    <glyph glyph-name="omacron" unicode="&#x14d;" 
d="M942 511q0 -272 -82 -385q-102 -140 -346 -140h-2q-261 0 -355 135q-75 107 -75 372q0 261 60 359q96 156 370 156h2q276 0 368 -148q60 -97 60 -349zM709 407v164q0 156 -37 199q-33 40 -150 40h-33q-109 0 -140.5 -42t-31.5 -188v-175q0 -141 33 -181q35 -43 156 -43
h16q116 0 151.5 41.5t35.5 184.5zM271 1227v148h624v-148h-624z" />
    <glyph glyph-name="Obreve" unicode="&#x14e;" horiz-adv-x="1593" 
d="M1299 678q0 -346 -113 -503q-141 -195 -477 -195h-3q-182 0 -291 38q-125 44 -199 150q-103 148 -103 484q0 331 83 467q72 116 195 167q118 49 315 49h3q200 0 316 -45q122 -48 191 -160q83 -134 83 -452zM1055 538v240q0 202 -73 276q-63 65 -222 65h-124
q-149 0 -210 -67q-66 -73 -66 -263v-254q0 -185 68 -263t230 -78h102q154 0 222 75q73 80 73 269zM1001 1826h123q-31 -259 -295 -259q-265 0 -296 259h123q28 -135 167 -135q151 0 178 135z" />
    <glyph glyph-name="obreve" unicode="&#x14f;" 
d="M942 511q0 -272 -82 -385q-102 -140 -346 -140h-2q-261 0 -355 135q-75 107 -75 372q0 261 60 359q96 156 370 156h2q276 0 368 -148q60 -97 60 -349zM709 407v164q0 156 -37 199q-33 40 -150 40h-33q-109 0 -140.5 -42t-31.5 -188v-175q0 -141 33 -181q35 -43 156 -43
h16q116 0 151.5 41.5t35.5 184.5zM756 1464h123q-31 -259 -295 -259q-265 0 -296 259h123q28 -135 167 -135q151 0 178 135z" />
    <glyph glyph-name="Odblacute" unicode="&#x150;" horiz-adv-x="1593" 
d="M1299 678q0 -346 -113 -503q-141 -195 -477 -195h-3q-182 0 -291 38q-125 44 -199 150q-103 148 -103 484q0 331 83 467q72 116 195 167q118 49 315 49h3q200 0 316 -45q122 -48 191 -160q83 -134 83 -452zM1055 538v240q0 202 -73 276q-63 65 -222 65h-124
q-149 0 -210 -67q-66 -73 -66 -263v-254q0 -185 68 -263t230 -78h102q154 0 222 75q73 80 73 269zM485 1556l121 280h234l-211 -280h-144zM832 1556l127 280h231l-207 -280h-151z" />
    <glyph glyph-name="odblacute" unicode="&#x151;" 
d="M942 511q0 -272 -82 -385q-102 -140 -346 -140h-2q-261 0 -355 135q-75 107 -75 372q0 261 60 359q96 156 370 156h2q276 0 368 -148q60 -97 60 -349zM709 407v164q0 156 -37 199q-33 40 -150 40h-33q-109 0 -140.5 -42t-31.5 -188v-175q0 -141 33 -181q35 -43 156 -43
h16q116 0 151.5 41.5t35.5 184.5zM290 1194l121 280h234l-211 -280h-144zM637 1194l127 280h231l-207 -280h-151z" />
    <glyph glyph-name="OE" unicode="&#x152;" horiz-adv-x="2048" 
d="M1983 173v-173h-862v212q-135 -237 -400 -237q-302 0 -456 232q-136 204 -136 528q0 326 130 523q154 233 462 233q264 0 400 -223v198h831v-173h-650v-448h599v-172h-599v-500h681zM720 1334q-118 0 -212 -76q-87 -70 -130 -186q-49 -132 -49 -352q0 -231 79 -387
q102 -202 312 -202q217 0 316 213q74 159 74 401q0 230 -79 387q-102 202 -311 202z" />
    <glyph glyph-name="oe" unicode="&#x153;" horiz-adv-x="1933" 
d="M978 175q-153 -199 -396 -199q-240 0 -373 154q-127 145 -127 388q0 371 237 502q119 66 265 66q276 0 394 -203q140 203 389 203q253 0 380 -182q112 -159 110 -421h-784q3 -153 82 -251q86 -108 234 -108q210 0 274 222l180 -26q-90 -344 -457 -344q-277 0 -408 199z
M267 533q0 -186 71 -283q92 -126 239 -126q156 0 241 133q72 113 72 278t-72 275q-84 128 -241 128q-193 0 -271 -194q-39 -97 -39 -211zM1080 631h587q-11 136 -81 217q-77 90 -208 90t-212 -90q-76 -83 -86 -217z" />
    <glyph glyph-name="Racute" unicode="&#x154;" horiz-adv-x="1479" 
d="M1161 51q11 -14 11 -27q0 -24 -37 -24h-190q-49 0 -81 46l-340 481q-95 0 -109.5 3t-30.5 11v-483q0 -58 -52 -58h-140q-49 0 -49 58v1202q0 52 52 52h545q155 0 248 -86q101 -93 101 -267v-73q0 -301 -310 -349zM849 918q0 103 -19 138q-29 54 -126 54h-320v-375h318
q96 0 125 42q22 33 22 141zM509 1556l133 280h236l-220 -280h-149z" />
    <glyph glyph-name="racute" unicode="&#x155;" horiz-adv-x="682" 
d="M675 946l-4 -155q-1 -36 -30 -22q-86 44 -141 44q-108 0 -130 -21q-16 -15 -16 -56v-702q0 -34 -29 -34h-173q-29 0 -29 34v663q0 151 82 219q106 88 275 88q132 0 170 -20q25 -12 25 -38zM251 1194l133 280h236l-220 -280h-149z" />
    <glyph glyph-name="Rcedilla" unicode="&#x156;" horiz-adv-x="1479" 
d="M954 6q-33 -29 -90 -29q-85 0 -126 48l-215 319q-36 -7 -60 -7q-109 0 -175 39v-266q0 -54 -35.5 -94t-88.5 -40q-11 0 -21 2v1219q127 71 318 71q205 0 334 -123t129 -327q0 -148 -75 -264.5t-210 -176.5zM775 823q0 150 -81 258q-90 118 -235 118q-99 0 -172 -34v-707
q62 -51 164 -51q114 0 210 102q114 121 114 314zM699 -50q35 4 66 4q105 0 174 -38q87 -47 87 -144q0 -103 -101 -154q-78 -39 -192 -39q-63 0 -140 12l11 117q44 -4 87 -4q167 0 167 76q0 67 -127 67q-14 0 -32 -2v105z" />
    <glyph glyph-name="rcedilla" unicode="&#x157;" horiz-adv-x="682" 
d="M518 888q6 -11 6 -23q0 -53 -56 -62q-89 -15 -141 -98q-45 -74 -45 -170v-424q0 -132 -138 -132v563q0 116 -16 180q-5 20 -5 38q0 43 25.5 82.5t66.5 45.5q51 -93 51 -164q30 75 100.5 121t151.5 43zM250 -50q35 4 66 4q105 0 174 -38q87 -47 87 -144q0 -103 -101 -154
q-78 -39 -192 -39q-63 0 -140 12l11 117q44 -4 87 -4q167 0 167 76q0 67 -127 67q-14 0 -32 -2v105z" />
    <glyph glyph-name="Rcaron" unicode="&#x158;" horiz-adv-x="1479" 
d="M1161 51q11 -14 11 -27q0 -24 -37 -24h-190q-49 0 -81 46l-340 481q-95 0 -109.5 3t-30.5 11v-483q0 -58 -52 -58h-140q-49 0 -49 58v1202q0 52 52 52h545q155 0 248 -86q101 -93 101 -267v-73q0 -301 -310 -349zM849 918q0 103 -19 138q-29 54 -126 54h-320v-375h318
q96 0 125 42q22 33 22 141zM655 1660l110 170h204l-225 -280h-192l-216 280h206z" />
    <glyph glyph-name="rcaron" unicode="&#x159;" horiz-adv-x="682" 
d="M666 946l-4 -155q-1 -36 -30 -22q-86 44 -141 44q-108 0 -130 -21q-16 -15 -16 -56v-702q0 -34 -29 -34h-173q-29 0 -29 34v663q0 151 82 219q106 88 275 88q132 0 170 -20q25 -12 25 -38zM379 1304l110 170h204l-225 -280h-192l-216 280h206z" />
    <glyph glyph-name="Sacute" unicode="&#x15a;" horiz-adv-x="1366" 
d="M1040 379q0 -220 -128 -312q-115 -83 -426 -83q-115 0 -324 41q-64 13 -64 64v89q0 44 75 38q187 -15 345 -15q180 0 222 23q47 24 47 124v71q0 123 -61 151q-29 14 -168 14h-115q-207 0 -295 91q-76 80 -76 272q0 89 16 143q29 101 116 163q99 71 341 71q205 0 334 -25
q64 -13 64 -64v-93q0 -36 -46 -38h-29q-27 0 -141 2q-119 1 -173 1q-160 0 -197.5 -21t-37.5 -113v-25q0 -68 4.5 -94.5t17.5 -39.5q32 -33 179 -32h71q254 0 354 -97q95 -92 95 -306zM461 1556l133 280h236l-220 -280h-149z" />
    <glyph glyph-name="sacute" unicode="&#x15b;" horiz-adv-x="1024" 
d="M802 292q0 -164 -111 -244q-83 -59 -296 -59q-94 0 -248 30q-42 8 -42 39v101q0 35 48 31q101 -8 221 -8q108 0 129 5q70 16 70 87v36q0 88 -43 102q-26 9 -87 9h-80q-143 0 -212 72q-59 61 -59 226q0 154 101 226q77 54 248 54q153 0 248 -18q41 -8 41 -40v-97
q0 -31 -47 -31h-125h-147q-68 0 -88 -26q-13 -18 -13 -73v-32q0 -50 27 -67q20 -14 73 -14h47q195 0 267 -69q78 -75 78 -240zM392 1194l133 280h236l-220 -280h-149z" />
    <glyph glyph-name="Scircumflex" unicode="&#x15c;" horiz-adv-x="1366" 
d="M1040 379q0 -220 -128 -312q-115 -83 -426 -83q-115 0 -324 41q-64 13 -64 64v89q0 44 75 38q187 -15 345 -15q180 0 222 23q47 24 47 124v71q0 123 -61 151q-29 14 -168 14h-115q-207 0 -295 91q-76 80 -76 272q0 89 16 143q29 101 116 163q99 71 341 71q205 0 334 -25
q64 -13 64 -64v-93q0 -36 -46 -38h-29q-27 0 -141 2q-119 1 -173 1q-160 0 -197.5 -21t-37.5 -113v-25q0 -68 4.5 -94.5t17.5 -39.5q32 -33 179 -32h71q254 0 354 -97q95 -92 95 -306zM645 1720l-113 -170h-206l216 280h192l225 -280h-204z" />
    <glyph glyph-name="scircumflex" unicode="&#x15d;" horiz-adv-x="1024" 
d="M802 292q0 -164 -111 -244q-83 -59 -296 -59q-94 0 -248 30q-42 8 -42 39v101q0 35 48 31q101 -8 221 -8q108 0 129 5q70 16 70 87v36q0 88 -43 102q-26 9 -87 9h-80q-143 0 -212 72q-59 61 -59 226q0 154 101 226q77 54 248 54q153 0 248 -18q41 -8 41 -40v-97
q0 -31 -47 -31h-125h-147q-68 0 -88 -26q-13 -18 -13 -73v-32q0 -50 27 -67q20 -14 73 -14h47q195 0 267 -69q78 -75 78 -240zM532 1364l-113 -170h-206l216 280h192l225 -280h-204z" />
    <glyph glyph-name="Scedilla" unicode="&#x15e;" horiz-adv-x="1366" 
d="M1040 379q0 -220 -128 -312q-115 -83 -426 -83q-115 0 -324 41q-64 13 -64 64v89q0 44 75 38q187 -15 345 -15q180 0 222 23q47 24 47 124v71q0 123 -61 151q-29 14 -168 14h-115q-207 0 -295 91q-76 80 -76 272q0 89 16 143q29 101 116 163q99 71 341 71q205 0 334 -25
q64 -13 64 -64v-93q0 -36 -46 -38h-29q-27 0 -141 2q-119 1 -173 1q-160 0 -197.5 -21t-37.5 -113v-25q0 -68 4.5 -94.5t17.5 -39.5q32 -33 179 -32h71q254 0 354 -97q95 -92 95 -306zM524 -144l52 177h134l-33 -107q171 -20 171 -147q0 -99 -101 -150q-79 -40 -188 -40
q-82 0 -144 12l11 117q64 -4 94 -4q161 0 161 75q0 39 -54 56q-32 10 -103 11z" />
    <glyph glyph-name="scedilla" unicode="&#x15f;" horiz-adv-x="1024" 
d="M802 292q0 -164 -111 -244q-83 -59 -296 -59q-94 0 -248 30q-42 8 -42 39v101q0 35 48 31q101 -8 221 -8q108 0 129 5q70 16 70 87v36q0 88 -43 102q-26 9 -87 9h-80q-143 0 -212 72q-59 61 -59 226q0 154 101 226q77 54 248 54q153 0 248 -18q41 -8 41 -40v-97
q0 -31 -47 -31h-125h-147q-68 0 -88 -26q-13 -18 -13 -73v-32q0 -50 27 -67q20 -14 73 -14h47q195 0 267 -69q78 -75 78 -240zM373 -134l52 177h134l-33 -107q171 -20 171 -147q0 -99 -101 -150q-79 -40 -188 -40q-82 0 -144 12l11 117q64 -4 94 -4q161 0 161 75
q0 39 -54 56q-32 10 -103 11z" />
    <glyph glyph-name="Scaron" unicode="&#x160;" horiz-adv-x="1366" 
d="M1040 379q0 -220 -128 -312q-115 -83 -426 -83q-115 0 -324 41q-64 13 -64 64v89q0 44 75 38q187 -15 345 -15q180 0 222 23q47 24 47 124v71q0 123 -61 151q-29 14 -168 14h-115q-207 0 -295 91q-76 80 -76 272q0 89 16 143q29 101 116 163q99 71 341 71q205 0 334 -25
q64 -13 64 -64v-93q0 -36 -46 -38h-29q-27 0 -141 2q-119 1 -173 1q-160 0 -197.5 -21t-37.5 -113v-25q0 -68 4.5 -94.5t17.5 -39.5q32 -33 179 -32h71q254 0 354 -97q95 -92 95 -306zM624 1660l110 170h204l-225 -280h-192l-216 280h206z" />
    <glyph glyph-name="scaron" unicode="&#x161;" horiz-adv-x="1024" 
d="M802 292q0 -164 -111 -244q-83 -59 -296 -59q-94 0 -248 30q-42 8 -42 39v101q0 35 48 31q101 -8 221 -8q108 0 129 5q70 16 70 87v36q0 88 -43 102q-26 9 -87 9h-80q-143 0 -212 72q-59 61 -59 226q0 154 101 226q77 54 248 54q153 0 248 -18q41 -8 41 -40v-97
q0 -31 -47 -31h-125h-147q-68 0 -88 -26q-13 -18 -13 -73v-32q0 -50 27 -67q20 -14 73 -14h47q195 0 267 -69q78 -75 78 -240zM505 1304l110 170h204l-225 -280h-192l-216 280h206z" />
    <glyph glyph-name="Tcedilla" unicode="&#x162;" horiz-adv-x="1251" 
d="M531 0v1293h-483v173h1162v-173h-485v-1293h-194zM523 -326v205h205v-205q0 -180 -167 -253l-50 76q60 27 90 78q20 34 24 99h-102z" />
    <glyph glyph-name="tcedilla" unicode="&#x163;" horiz-adv-x="569" 
d="M528 161l26 -159q-76 -16 -136 -16q-179 0 -228 113q-22 51 -22 212v611h-132v140h132v263l179 108v-371h181v-140h-181v-621q0 -79 13 -105q21 -42 89 -42q30 0 79 7zM275 -305v184h185v-184q0 -161 -151 -227l-44 69q95 42 102 158h-92z" />
    <glyph glyph-name="Tcaron" unicode="&#x164;" horiz-adv-x="1251" 
d="M1050 1159q0 -52 -49 -52h-328v-1060q0 -47 -49 -47h-139q-50 0 -50 52v1055h-325q-49 0 -49 52v105q0 49 49 49h891q49 0 49 -49v-105zM643 1660l110 170h204l-225 -280h-192l-216 280h206z" />
    <glyph glyph-name="tcaron" unicode="&#x165;" horiz-adv-x="768" 
d="M581 1281v185h184v-185q0 -195 -150 -260l-45 68q98 44 102 192h-91zM527 161l26 -159q-76 -16 -136 -16q-179 0 -228 113q-22 51 -22 212v611h-132v140h132v263l179 108v-371h181v-140h-181v-621q0 -79 13 -105q21 -42 89 -42q30 0 79 7z" />
    <glyph glyph-name="Tbar" unicode="&#x166;" horiz-adv-x="1251" 
d="M531 629h-330v132h330v532h-483v173h1162v-173h-485v-532h328v-132h-328v-629h-194v629z" />
    <glyph glyph-name="tbar" unicode="&#x167;" horiz-adv-x="569" 
d="M145 514h-133v132h133v276h-132v140h132v263l180 108v-371h180v-140h-180v-276h172v-132h-172v-213q0 -78 13 -105q20 -42 88 -42q32 0 79 7l26 -159q-73 -16 -134 -16q-201 0 -236 131q-16 60 -16 194v203z" />
    <glyph glyph-name="Utilde" unicode="&#x168;" horiz-adv-x="1479" 
d="M1197 410q0 -214 -113 -312q-123 -108 -409 -108q-292 0 -417 107q-115 99 -115 313v845q0 58 49 58h140q52 0 52 -58v-858q0 -110 39 -143q55 -48 247 -48q194 0 248 47q37 33 37 144v858q0 58 52 58h140q50 0 50 -58v-845zM433 1575q-1 97 52 160q56 68 151 68
q62 0 169 -54q59 -30 94 -30q61 0 73 87h130q-6 -228 -196 -228q-63 0 -166 56q-67 36 -98 36q-78 0 -76 -95h-133z" />
    <glyph glyph-name="utilde" unicode="&#x169;" 
d="M1025 69q0 -28 -39 -41l-57 -18q-51 -16 -83 -16q-57 0 -123 107q-47 -65 -80 -87q-43 -27 -117 -27h-121q-137 0 -215 81q-88 90 -88 268v610q0 36 30 36h172q30 0 30 -36v-594q0 -101 33 -137q29 -30 108 -30h91q122 0 122 85v676q0 36 31 36h171q30 0 30 -36v-668
q0 -81 52 -98l21 -7q32 -10 32 -36v-68zM228 1219q-1 97 52 160q56 68 151 68q62 0 169 -54q59 -30 94 -30q61 0 73 87h130q-6 -228 -196 -228q-63 0 -166 56q-67 36 -98 36q-78 0 -76 -95h-133z" />
    <glyph glyph-name="Umacron" unicode="&#x16a;" horiz-adv-x="1479" 
d="M1197 410q0 -214 -113 -312q-123 -108 -409 -108q-292 0 -417 107q-115 99 -115 313v845q0 58 49 58h140q52 0 52 -58v-858q0 -110 39 -143q55 -48 247 -48q194 0 248 47q37 33 37 144v858q0 58 52 58h140q50 0 50 -58v-845zM455 1583v148h624v-148h-624z" />
    <glyph glyph-name="umacron" unicode="&#x16b;" 
d="M1025 69q0 -28 -39 -41l-57 -18q-51 -16 -83 -16q-57 0 -123 107q-47 -65 -80 -87q-43 -27 -117 -27h-121q-137 0 -215 81q-88 90 -88 268v610q0 36 30 36h172q30 0 30 -36v-594q0 -101 33 -137q29 -30 108 -30h91q122 0 122 85v676q0 36 31 36h171q30 0 30 -36v-668
q0 -81 52 -98l21 -7q32 -10 32 -36v-68zM250 1227v148h624v-148h-624z" />
    <glyph glyph-name="Ubreve" unicode="&#x16c;" horiz-adv-x="1479" 
d="M1197 410q0 -214 -113 -312q-123 -108 -409 -108q-292 0 -417 107q-115 99 -115 313v845q0 58 49 58h140q52 0 52 -58v-858q0 -110 39 -143q55 -48 247 -48q194 0 248 47q37 33 37 144v858q0 58 52 58h140q50 0 50 -58v-845zM920 1820h123q-31 -259 -295 -259
q-265 0 -296 259h123q28 -135 167 -135q151 0 178 135z" />
    <glyph glyph-name="ubreve" unicode="&#x16d;" 
d="M1025 69q0 -28 -39 -41l-57 -18q-51 -16 -83 -16q-57 0 -123 107q-47 -65 -80 -87q-43 -27 -117 -27h-121q-137 0 -215 81q-88 90 -88 268v610q0 36 30 36h172q30 0 30 -36v-594q0 -101 33 -137q29 -30 108 -30h91q122 0 122 85v676q0 36 31 36h171q30 0 30 -36v-668
q0 -81 52 -98l21 -7q32 -10 32 -36v-68zM735 1464h123q-31 -259 -295 -259q-265 0 -296 259h123q28 -135 167 -135q151 0 178 135z" />
    <glyph glyph-name="Uring" unicode="&#x16e;" horiz-adv-x="1479" 
d="M1197 410q0 -214 -113 -312q-123 -108 -409 -108q-292 0 -417 107q-115 99 -115 313v845q0 58 49 58h140q52 0 52 -58v-858q0 -110 39 -143q55 -48 247 -48q194 0 248 47q37 33 37 144v858q0 58 52 58h140q50 0 50 -58v-845zM562 1743q0 74 53 126.5t127 52.5
q76 0 128 -53.5t52 -129.5t-51.5 -129.5t-127.5 -53.5q-78 0 -129.5 54t-51.5 133zM638 1742q0 -45 30.5 -78t75.5 -33q44 0 75 32.5t31 76.5q0 45 -30.5 77t-75.5 32q-44 0 -75 -31.5t-31 -75.5z" />
    <glyph glyph-name="uring" unicode="&#x16f;" 
d="M1025 69q0 -28 -39 -41l-57 -18q-51 -16 -83 -16q-57 0 -123 107q-47 -65 -80 -87q-43 -27 -117 -27h-121q-137 0 -215 81q-88 90 -88 268v610q0 36 30 36h172q30 0 30 -36v-594q0 -101 33 -137q29 -30 108 -30h91q122 0 122 85v676q0 36 31 36h171q30 0 30 -36v-668
q0 -81 52 -98l21 -7q32 -10 32 -36v-68zM367 1338q0 74 53 126.5t127 52.5q76 0 128 -53.5t52 -129.5t-51.5 -129.5t-127.5 -53.5q-78 0 -129.5 54t-51.5 133zM443 1337q0 -45 30.5 -78t75.5 -33q44 0 75 32.5t31 76.5q0 45 -30.5 77t-75.5 32q-44 0 -75 -31.5t-31 -75.5z
" />
    <glyph glyph-name="Udblacute" unicode="&#x170;" horiz-adv-x="1479" 
d="M1197 410q0 -214 -113 -312q-123 -108 -409 -108q-292 0 -417 107q-115 99 -115 313v845q0 58 49 58h140q52 0 52 -58v-858q0 -110 39 -143q55 -48 247 -48q194 0 248 47q37 33 37 144v858q0 58 52 58h140q50 0 50 -58v-845zM471 1556l121 280h234l-211 -280h-144z
M818 1556l127 280h231l-207 -280h-151z" />
    <glyph glyph-name="udblacute" unicode="&#x171;" 
d="M1025 69q0 -28 -39 -41l-57 -18q-51 -16 -83 -16q-57 0 -123 107q-47 -65 -80 -87q-43 -27 -117 -27h-121q-137 0 -215 81q-88 90 -88 268v610q0 36 30 36h172q30 0 30 -36v-594q0 -101 33 -137q29 -30 108 -30h91q122 0 122 85v676q0 36 31 36h171q30 0 30 -36v-668
q0 -81 52 -98l21 -7q32 -10 32 -36v-68zM223 1194l121 280h234l-211 -280h-144zM570 1194l127 280h231l-207 -280h-151z" />
    <glyph glyph-name="Uogonek" unicode="&#x172;" horiz-adv-x="1479" 
d="M786 -24q-20 -71 -20 -113q0 -67 39 -111t105 -44q77 0 168 46v-119q-118 -61 -219 -61q-100 0 -159.5 60.5t-59.5 160.5q0 70 28 183q-291 25 -407 190q-100 143 -100 451v847h194v-846q0 -159 22 -239q64 -231 344 -231q237 0 325 119q74 100 74 351v846h194v-847
q0 -189 -32 -298q-94 -322 -496 -345z" />
    <glyph glyph-name="uogonek" unicode="&#x173;" 
d="M952 0q-29 -78 -29 -140q0 -65 40 -108.5t104 -43.5q76 0 168 46v-119q-117 -60 -221 -60q-99 0 -158 60.5t-59 159.5q0 65 26 172l8 33v156q-124 -180 -338 -180q-110 0 -198 47q-100 53 -134 149q-30 85 -30 232v658h180v-589q0 -127 6 -163q30 -179 213 -179
q85 0 156 44q76 47 102 124q24 72 24 194v569h180v-1062h-40z" />
    <glyph glyph-name="Wcircumflex" unicode="&#x174;" horiz-adv-x="1933" 
d="M1884 1257l-279 -1206q-11 -50 -65 -50h-233q-52 0 -65 50l-255 982l-255 -982q-13 -50 -65 -50h-237q-54 0 -65 50l-279 1208q-14 61 39 61h151q52 0 62 -47l229 -1078l277 1069q9 35 26 47q12 9 34 9h166q45 0 61 -61l279 -1063l221 1077q10 47 73 47h141q53 0 39 -63z
M1009 1726l-113 -170h-206l216 280h192l225 -280h-204z" />
    <glyph glyph-name="wcircumflex" unicode="&#x175;" horiz-adv-x="1479" 
d="M1573 944l-218 -897q-11 -46 -58 -46h-232q-41 0 -53 46l-188 705l-188 -705q-13 -46 -55 -46h-234q-44 0 -55 46l-219 895q-12 51 27 51h160q36 0 44 -37l168 -765h16l191 743q10 39 48 39h196q38 0 48 -39l191 -743h17l162 765q8 37 45 37h159q40 0 28 -49zM793 1364
l-113 -170h-206l216 280h192l225 -280h-204z" />
    <glyph glyph-name="Ycircumflex" unicode="&#x176;" horiz-adv-x="1366" 
d="M1066 1257l-374 -636v-563q0 -58 -52 -58h-139q-50 0 -50 58v566l-370 628q-9 16 -9 29q0 32 41 32h173q51 0 72 -42l213 -421l217 423q21 40 70 40h173q43 0 43 -30q0 -12 -8 -26zM741 1726l-113 -170h-206l216 280h192l225 -280h-204z" />
    <glyph glyph-name="ycircumflex" unicode="&#x177;" horiz-adv-x="1024" 
d="M974 951l-330 -1086q-55 -181 -150 -247q-72 -51 -207 -51q-75 0 -139 23q-16 6 -16 33v105q0 22 42 19q1 0 33 -3q27 -3 43 -3q79 0 108 15q44 23 66 103l53 188h-85q-42 0 -56 46l-261 854q-14 46 19 46h187q31 0 40 -36l191 -764h17l203 768q8 32 41 32h172
q42 0 29 -42zM594 1364l-113 -170h-206l216 280h192l225 -280h-204z" />
    <glyph glyph-name="Ydieresis" unicode="&#x178;" horiz-adv-x="1366" 
d="M1066 1257l-374 -636v-563q0 -58 -52 -58h-139q-50 0 -50 58v566l-370 628q-9 16 -9 29q0 32 41 32h173q51 0 72 -42l213 -421l217 423q21 40 70 40h173q43 0 43 -30q0 -12 -8 -26zM429 1556v205h188v-205h-188zM802 1556v205h188v-205h-188z" />
    <glyph glyph-name="Zacute" unicode="&#x179;" horiz-adv-x="1251" 
d="M1098 52q0 -52 -49 -52h-924q-53 0 -53 54q0 24 11 42l635 1011h-545q-49 0 -49 52v105q0 49 49 49h836q53 0 53 -49q0 -23 -14 -45l-636 -1005h637q49 0 49 -50v-112zM517 1556l133 280h236l-220 -280h-149z" />
    <glyph glyph-name="zacute" unicode="&#x17a;" horiz-adv-x="1024" 
d="M823 31q0 -31 -29 -31h-698q-24 0 -30 21q-5 19 6 39l413 735h-368q-29 0 -29 32v125q0 11 2 18q4 11 27 11h662q32 0 32 -29q0 -14 -9 -29l-427 -732h419q24 0 28 -13q1 -6 1 -16v-131zM419 1194l133 280h236l-220 -280h-149z" />
    <glyph glyph-name="Zdot" unicode="&#x17b;" horiz-adv-x="1251" 
d="M1098 52q0 -52 -49 -52h-924q-53 0 -53 54q0 24 11 42l635 1011h-545q-49 0 -49 52v105q0 49 49 49h836q53 0 53 -49q0 -23 -14 -45l-636 -1005h637q49 0 49 -50v-112zM577 1556v224h223v-224h-223z" />
    <glyph glyph-name="zdot" unicode="&#x17c;" horiz-adv-x="1024" 
d="M823 31q0 -31 -29 -31h-698q-24 0 -30 21q-5 19 6 39l413 735h-368q-29 0 -29 32v125q0 11 2 18q4 11 27 11h662q32 0 32 -29q0 -14 -9 -29l-427 -732h419q24 0 28 -13q1 -6 1 -16v-131zM426 1194v224h223v-224h-223z" />
    <glyph glyph-name="Zcaron" unicode="&#x17d;" horiz-adv-x="1251" 
d="M1098 52q0 -52 -49 -52h-924q-53 0 -53 54q0 24 11 42l635 1011h-545q-49 0 -49 52v105q0 49 49 49h836q53 0 53 -49q0 -23 -14 -45l-636 -1005h637q49 0 49 -50v-112zM679 1660l110 170h204l-225 -280h-192l-216 280h206z" />
    <glyph glyph-name="zcaron" unicode="&#x17e;" horiz-adv-x="1024" 
d="M823 31q0 -31 -29 -31h-698q-24 0 -30 21q-5 19 6 39l413 735h-368q-29 0 -29 32v125q0 11 2 18q4 11 27 11h662q32 0 32 -29q0 -14 -9 -29l-427 -732h419q24 0 28 -13q1 -6 1 -16v-131zM571 1304l110 170h204l-225 -280h-192l-216 280h206z" />
    <glyph glyph-name="longs" unicode="&#x17f;" horiz-adv-x="455" 
d="M137 0v1175q0 316 294 316q79 0 167 -18l-26 -157q-54 10 -106 10q-87 0 -120 -41q-29 -35 -29 -125v-1160h-180z" />
    <glyph glyph-name="florin" unicode="&#x192;" 
d="M46 -405l35 155q101 -22 152 -22q67 0 96 44q18 29 32 108l177 1042h-201l24 140h201l24 133q21 119 45 165q67 132 239 132q80 0 215 -38l-35 -153q-103 24 -154 24q-69 0 -98 -47q-17 -28 -33 -113l-19 -103h204l-25 -140h-204l-191 -1092q-23 -132 -74 -190
q-61 -71 -186 -71q-94 0 -224 26z" />
    <glyph glyph-name="Aringacute" unicode="&#x1fa;" horiz-adv-x="1366" 
d="M1183 51q7 -20 7 -29q0 -22 -41 -22h-154q-50 0 -66 55l-75 243h-474l-74 -243q-16 -55 -66 -55h-157q-41 0 -41 22q0 9 7 29l396 1212q16 49 64 49h212q48 0 65 -49zM800 489l-184 601l-186 -601h370zM501 1601q0 74 53 126.5t127 52.5q76 0 128 -53.5t52 -129.5
t-51.5 -129.5t-127.5 -53.5q-78 0 -129.5 54t-51.5 133zM577 1600q0 -45 30.5 -78t75.5 -33q44 0 75 32.5t31 76.5q0 45 -30.5 77t-75.5 32q-44 0 -75 -31.5t-31 -75.5zM581 1844l133 280h236l-220 -280h-149z" />
    <glyph glyph-name="aringacute" unicode="&#x1fb;" 
d="M948 69q0 -28 -39 -41l-57 -18q-50 -16 -83 -16q-57 0 -123 107q-37 -65 -65 -85q-40 -28 -132 -28h-100q-288 0 -288 294v32q0 297 300 297h92q102 0 153 -69h13v122q0 80 -42 111t-158 31q-39 0 -235 -16q-48 -4 -48 21v118q0 31 42 40q156 30 274 30q193 0 270 -63
q120 -98 120 -286v-379q0 -73 53 -91l22 -7q31 -10 31 -36v-68zM618 264v88q0 85 -132 85h-79q-70 0 -99 -23t-29 -85v-41q0 -63 28 -86q25 -23 90 -23h86q135 0 135 85zM363 1338q0 74 53 126.5t127 52.5q76 0 128 -53.5t52 -129.5t-51.5 -129.5t-127.5 -53.5
q-78 0 -129.5 54t-51.5 133zM439 1337q0 -45 30.5 -78t75.5 -33q44 0 75 32.5t31 76.5q0 45 -30.5 77t-75.5 32q-44 0 -75 -31.5t-31 -75.5zM473 1644l133 280h236l-220 -280h-149z" />
    <glyph glyph-name="AEacute" unicode="&#x1fc;" horiz-adv-x="2048" 
d="M1 0l705 1466h1203v-173h-737v-451h685v-172h-685v-497h764v-173h-959v423h-566l-200 -423h-210zM493 595h484v698h-145zM881 1556l133 280h236l-220 -280h-149z" />
    <glyph glyph-name="aeacute" unicode="&#x1fd;" horiz-adv-x="1821" 
d="M1734 325q-104 -349 -468 -349q-246 0 -395 198q-202 -198 -440 -198q-151 0 -251 75q-112 83 -112 229q0 194 189 277q87 38 281 63q151 20 252 49q1 25 1 41q0 127 -54 177t-182 50q-176 0 -235 -80q-29 -39 -48 -124l-175 21q53 222 231 293q98 39 229 39
q167 0 269 -50q59 -29 99 -93q131 143 341 143q314 0 423 -286q49 -129 49 -254q0 -19 -2 -61h-767q2 -120 25 -182q31 -83 118 -135q74 -44 161 -44q216 0 273 225zM969 633h584q-27 304 -288 304q-135 0 -213 -86q-74 -81 -83 -218zM793 533q-79 -34 -322 -73
q-110 -17 -153 -51q-59 -46 -59 -123q0 -83 64 -128q56 -40 143 -40q105 0 190 50q94 54 122 149q15 50 15 216zM822 1194l133 280h236l-220 -280h-149z" />
    <glyph glyph-name="Oslashacute" unicode="&#x1fe;" horiz-adv-x="1593" 
d="M1250 1332l168 188l99 -84l-176 -198q85 -128 116 -224q40 -126 40 -282q0 -213 -82 -383q-90 -189 -264 -284q-164 -90 -350 -90q-138 0 -250 39q-86 30 -201 115l-168 -188l-99 84l176 197q-92 141 -126 240q-38 112 -38 268q0 213 81 384q89 190 262 286
q163 91 361 91q241 0 451 -159zM1130 1197q-88 69 -153 96q-77 32 -177 32q-252 0 -386 -175q-119 -157 -119 -417q0 -114 22 -206q16 -69 67 -165zM1212 1094l-743 -832q77 -63 142 -88q85 -33 184 -33q244 0 379 176q123 159 123 410q0 208 -85 367zM681 1556l133 280h236
l-220 -280h-149z" />
    <glyph glyph-name="oslashacute" unicode="&#x1ff;" horiz-adv-x="1251" 
d="M924 999l99 128l96 -70l-107 -138q65 -89 86 -156q31 -97 31 -233q0 -301 -169 -441q-136 -113 -330 -113q-159 0 -281 80l-105 -135l-94 71l108 141q-59 68 -84 136q-40 109 -40 247q0 252 117 403q130 167 375 167q147 0 298 -87zM823 867q-91 70 -191 70
q-160 0 -243 -128q-70 -109 -70 -278q0 -150 52 -251zM898 770l-449 -583q78 -63 176 -63q164 0 248 127q72 108 72 281q0 74 -12 133q-9 44 -35 105zM532 1194l133 280h236l-220 -280h-149z" />
    <glyph glyph-name="circumflex" unicode="&#x2c6;" horiz-adv-x="682" 
d="M344 1364l-113 -170h-206l216 280h192l225 -280h-204z" />
    <glyph glyph-name="caron" unicode="&#x2c7;" horiz-adv-x="682" 
d="M359 1304l110 170h204l-225 -280h-192l-216 280h206z" />
    <glyph glyph-name="macron" unicode="&#x2c9;" horiz-adv-x="682" 
d="M29 1227v148h624v-148h-624z" />
    <glyph glyph-name="breve" unicode="&#x2d8;" horiz-adv-x="682" 
d="M514 1464h123q-31 -259 -295 -259q-265 0 -296 259h123q28 -135 167 -135q151 0 178 135z" />
    <glyph glyph-name="dotaccent" unicode="&#x2d9;" horiz-adv-x="682" 
d="M229 1194v224h223v-224h-223z" />
    <glyph glyph-name="ring" unicode="&#x2da;" horiz-adv-x="682" 
d="M162 1338q0 74 53 126.5t127 52.5q76 0 128 -53.5t52 -129.5t-51.5 -129.5t-127.5 -53.5q-78 0 -129.5 54t-51.5 133zM238 1337q0 -45 30.5 -78t75.5 -33q44 0 75 32.5t31 76.5q0 45 -30.5 77t-75.5 32q-44 0 -75 -31.5t-31 -75.5z" />
    <glyph glyph-name="ogonek" unicode="&#x2db;" horiz-adv-x="682" 
d="M224 24h124q-39 -89 -39 -164q0 -66 39.5 -109t104.5 -43q77 0 168 46v-119q-117 -61 -219 -61q-100 0 -159.5 60.5t-59.5 160.5q0 86 41 229z" />
    <glyph glyph-name="tilde" unicode="&#x2dc;" horiz-adv-x="682" 
d="M7 1219q-1 97 52 160q56 68 151 68q62 0 169 -54q59 -30 94 -30q61 0 73 87h130q-6 -228 -196 -228q-63 0 -166 56q-67 36 -98 36q-78 0 -76 -95h-133z" />
    <glyph glyph-name="hungarumlaut" unicode="&#x2dd;" horiz-adv-x="682" 
d="M58 1194l121 280h234l-211 -280h-144zM405 1194l127 280h231l-207 -280h-151z" />
    <glyph glyph-name="tonos" unicode="&#x384;" horiz-adv-x="682" 
d="M222 1194l133 280h236l-220 -280h-149z" />
    <glyph glyph-name="dieresistonos" unicode="&#x385;" horiz-adv-x="682" 
d="M347 1507h186l-200 -277h-117zM532 1422h173v-192h-173v192zM-22 1422h173v-192h-173v192z" />
    <glyph glyph-name="Alphatonos" unicode="&#x386;" horiz-adv-x="1367" 
d="M-1 0l563 1466h209l600 -1466h-221l-171 444h-613l-161 -444h-206zM422 602h497l-153 406q-74 196 -104 304q-29 -146 -79 -280zM54 1186l133 280h236l-220 -280h-149z" />
    <glyph glyph-name="anoteleia" unicode="&#x387;" horiz-adv-x="569" 
d="M185 857v205h205v-205h-205z" />
    <glyph glyph-name="Epsilontonos" unicode="&#x388;" horiz-adv-x="1606" 
d="M401 0v1466h1060v-173h-866v-449h811v-172h-811v-499h900v-173h-1094zM-89 1186l133 280h236l-220 -280h-149z" />
    <glyph glyph-name="Etatonos" unicode="&#x389;" horiz-adv-x="1716" 
d="M360 0v1466h194v-602h762v602h194v-1466h-194v691h-762v-691h-194zM-88 1186l133 280h236l-220 -280h-149z" />
    <glyph glyph-name="Iotatonos" unicode="&#x38a;" horiz-adv-x="786" 
d="M360 0v1466h194v-1466h-194zM-88 1186l133 280h236l-220 -280h-149z" />
    <glyph glyph-name="Omicrontonos" unicode="&#x38c;" horiz-adv-x="1586" 
d="M88 714q0 341 177 552q190 226 525 226q325 0 517 -221q183 -210 183 -540q0 -328 -184 -537q-194 -219 -517 -219q-209 0 -375 102q-173 105 -252 293q-74 175 -74 344zM288 711q0 -244 125 -400q137 -170 375 -170q246 0 381 178q121 160 121 413q0 251 -121 413
q-135 180 -378 180q-259 0 -390 -184q-113 -161 -113 -430zM-89 1186l133 280h236l-220 -280h-149z" />
    <glyph glyph-name="Upsilontonos" unicode="&#x38e;" horiz-adv-x="1752" 
d="M945 0v621l-565 845h236l289 -442q83 -127 149 -248q69 119 160 259l284 431h226l-585 -845v-621h-194zM-89 1186l133 280h236l-220 -280h-149z" />
    <glyph glyph-name="Omegatonos" unicode="&#x38f;" horiz-adv-x="1541" 
d="M107 173h320q-304 254 -304 620q0 415 306 607q145 91 351 91q381 0 562 -325q87 -156 87 -373q0 -366 -304 -620h320v-173h-570v162q356 166 356 601q0 227 -110 384q-125 178 -342 178q-216 0 -342 -173q-113 -155 -113 -379q0 -441 354 -611v-162h-571v173zM-89 1186
l133 280h236l-220 -280h-149z" />
    <glyph glyph-name="iotadieresistonos" unicode="&#x390;" horiz-adv-x="455" 
d="M137 0v1062h180v-1062h-180zM233 1507h186l-200 -277h-117zM418 1422h173v-192h-173v192zM-136 1422h173v-192h-173v192z" />
    <glyph glyph-name="Alpha" unicode="&#x391;" horiz-adv-x="1366" 
d="M1183 51q7 -20 7 -29q0 -22 -41 -22h-154q-50 0 -66 55l-75 243h-474l-74 -243q-16 -55 -66 -55h-157q-41 0 -41 22q0 9 7 29l396 1212q16 49 64 49h212q48 0 65 -49zM800 489l-184 601l-186 -601h370z" />
    <glyph glyph-name="Beta" unicode="&#x392;" horiz-adv-x="1366" 
d="M1142 345q0 -345 -414 -345h-536q-49 0 -49 47v1220q0 45 49 45h535q325 0 325 -321v-41q0 -174 -165 -241q129 -15 188 -84q67 -79 67 -250v-30zM822 945q0 106 -22 134q-25 31 -119 31h-305v-328h303q98 0 122 32q21 27 21 131zM902 386q0 114 -29 157q-33 46 -124 46
h-373v-385h373q103 0 132 45q21 32 21 137z" />
    <glyph glyph-name="Gamma" unicode="&#x393;" horiz-adv-x="1128" 
d="M164 1466h916v-173h-722v-1293h-194v1466z" />
    <glyph glyph-name="Epsilon" unicode="&#x395;" horiz-adv-x="1366" 
d="M1068 50q0 -50 -49 -50h-827q-49 0 -49 47v1220q0 46 49 46h827q49 0 49 -49v-102q0 -52 -49 -52h-638v-328h579q50 0 50 -50v-100q0 -52 -50 -52h-579v-373h638q49 0 49 -53v-104z" />
    <glyph glyph-name="Zeta" unicode="&#x396;" horiz-adv-x="1251" 
d="M1098 52q0 -52 -49 -52h-924q-53 0 -53 54q0 24 11 42l635 1011h-545q-49 0 -49 52v105q0 49 49 49h836q53 0 53 -49q0 -23 -14 -45l-636 -1005h637q49 0 49 -50v-112z" />
    <glyph glyph-name="Eta" unicode="&#x397;" horiz-adv-x="1479" 
d="M1195 58q0 -58 -52 -58h-140q-50 0 -50 58v522h-572v-522q0 -58 -52 -58h-140q-49 0 -49 58v1202q0 52 52 52h140q49 0 49 -55v-475h572v478q0 52 52 52h140q50 0 50 -55v-1199z" />
    <glyph glyph-name="Theta" unicode="&#x398;" horiz-adv-x="1593" 
d="M96 714q0 341 177 552q190 226 525 226q325 0 517 -221q183 -210 183 -540q0 -328 -184 -537q-194 -219 -517 -219q-209 0 -375 102q-173 105 -252 293q-74 175 -74 344zM296 711q0 -244 125 -400q137 -170 375 -170q246 0 381 178q121 160 121 413q0 251 -121 413
q-135 180 -378 180q-259 0 -390 -184q-113 -161 -113 -430zM507 647v172h580v-172h-580z" />
    <glyph glyph-name="Theta" unicode="&#x472;" horiz-adv-x="1593" 
d="M96 714q0 341 177 552q190 226 525 226q325 0 517 -221q183 -210 183 -540q0 -328 -184 -537q-194 -219 -517 -219q-209 0 -375 102q-173 105 -252 293q-74 175 -74 344zM296 711q0 -244 125 -400q137 -170 375 -170q246 0 381 178q121 160 121 413q0 251 -121 413
q-135 180 -378 180q-259 0 -390 -184q-113 -161 -113 -430zM507 647v172h580v-172h-580z" />
    <glyph glyph-name="Iota" unicode="&#x399;" horiz-adv-x="569" 
d="M312 49q0 -49 -43 -49h-157q-40 0 -40 49v1220q0 43 43 43h157q40 0 40 -45v-1218z" />
    <glyph glyph-name="Kappa" unicode="&#x39a;" horiz-adv-x="1366" 
d="M1195 52q13 -15 13 -27q0 -25 -38 -25h-193q-43 0 -81 46l-481 576q-18 22 -18 43q0 23 20 49l450 569q23 29 79 29h165q41 0 41 -29q0 -12 -9 -23l-479 -586zM384 58q0 -58 -52 -58h-140q-49 0 -49 58v1202q0 52 52 52h140q49 0 49 -55v-1199z" />
    <glyph glyph-name="Lambda" unicode="&#x39b;" horiz-adv-x="1368" 
d="M784 1466l568 -1466h-211l-381 1064q-51 141 -77 241q-31 -116 -78 -241l-396 -1064h-198l573 1466h200z" />
    <glyph glyph-name="Mu" unicode="&#x39c;" horiz-adv-x="1706" 
d="M1454 58q0 -58 -52 -58h-135q-50 0 -50 58v867l12 194l-342 -1068q-15 -50 -65 -50h-112q-49 0 -65 50l-337 1066l11 -203v-856q0 -58 -52 -58h-136q-49 0 -49 58v1202q0 52 52 52h273q50 0 66 -54l293 -961l297 961q17 54 67 54h275q49 0 49 -55v-1199z" />
    <glyph glyph-name="Nu" unicode="&#x39d;" horiz-adv-x="1479" 
d="M1198 58q0 -58 -52 -58h-159q-44 0 -75 54l-541 949l13 -145v-800q0 -58 -52 -58h-140q-49 0 -49 58v1202q0 52 52 52h179q41 0 70 -50l525 -916l-13 155v759q0 52 52 52h140q50 0 50 -55v-1199z" />
    <glyph glyph-name="Xi" unicode="&#x39e;" horiz-adv-x="1331" 
d="M136 1466h1059v-173h-1059v173zM230 819h871v-172h-871v172zM109 173h1113v-173h-1113v173z" />
    <glyph glyph-name="Omicron" unicode="&#x39f;" horiz-adv-x="1593" 
d="M1299 678q0 -346 -113 -503q-141 -195 -477 -195h-3q-182 0 -291 38q-125 44 -199 150q-103 148 -103 484q0 331 83 467q72 116 195 167q118 49 315 49h3q200 0 316 -45q122 -48 191 -160q83 -134 83 -452zM1055 538v240q0 202 -73 276q-63 65 -222 65h-124
q-149 0 -210 -67q-66 -73 -66 -263v-254q0 -185 68 -263t230 -78h102q154 0 222 75q73 80 73 269z" />
    <glyph glyph-name="Pi" unicode="&#x3a0;" horiz-adv-x="1479" 
d="M164 0v1466h1150v-1466h-194v1293h-762v-1293h-194z" />
    <glyph glyph-name="Rho" unicode="&#x3a1;" horiz-adv-x="1366" 
d="M1088 886q0 -364 -414 -364h-184q-23 0 -106 23v-487q0 -58 -52 -58h-140q-49 0 -49 58v1202q0 52 52 52h544q153 0 248 -93q101 -99 101 -273v-60zM848 918q0 103 -19 138q-29 54 -126 54h-319v-389h317q98 0 124 40q23 34 23 157z" />
    <glyph glyph-name="Sigma" unicode="&#x3a3;" horiz-adv-x="1266" 
d="M1145 1466v-173h-787l500 -532l-500 -588h828v-173h-1038v202l479 559l-479 510v195h997z" />
    <glyph glyph-name="Tau" unicode="&#x3a4;" horiz-adv-x="1251" 
d="M1050 1159q0 -52 -49 -52h-328v-1060q0 -47 -49 -47h-139q-50 0 -50 52v1055h-325q-49 0 -49 52v105q0 49 49 49h891q49 0 49 -49v-105z" />
    <glyph glyph-name="Upsilon" unicode="&#x3a5;" horiz-adv-x="1366" 
d="M1066 1257l-374 -636v-563q0 -58 -52 -58h-139q-50 0 -50 58v566l-370 628q-9 16 -9 29q0 32 41 32h173q51 0 72 -42l213 -421l217 423q21 40 70 40h173q43 0 43 -30q0 -12 -8 -26z" />
    <glyph glyph-name="Phi" unicode="&#x3a6;" horiz-adv-x="1634" 
d="M720 1510h194v-181q277 -17 447 -157q188 -155 188 -423q0 -273 -184 -431q-172 -147 -451 -157v-214h-194v214q-273 10 -446 155q-189 158 -189 424q0 344 287 503q137 76 348 86v181zM720 1161q-204 -6 -316 -110q-117 -108 -117 -310q0 -194 121 -305
q116 -107 312 -110v835zM914 326q202 6 316 110q121 109 121 308q0 200 -120 310q-116 107 -317 107v-835z" />
    <glyph glyph-name="Chi" unicode="&#x3a7;" horiz-adv-x="1366" 
d="M1319 63q17 -23 17 -38q0 -25 -38 -25h-179q-43 0 -81 52l-332 455l-330 -455q-37 -52 -81 -52h-180q-38 0 -38 25q0 15 17 38l469 628l-413 564q-10 14 -10 26q0 32 45 32h166q49 0 79 -42l278 -390l273 387q32 45 82 45h166q40 0 40 -36q0 -17 -12 -33l-404 -549z" />
    <glyph glyph-name="Psi" unicode="&#x3a8;" horiz-adv-x="1711" 
d="M127 1466h194v-395q0 -229 105 -334q101 -99 332 -118v847h194v-847q231 14 335 130q102 112 102 346v371h195v-414q0 -589 -632 -599v-453h-194v453q-631 11 -631 582v431z" />
    <glyph glyph-name="Psi" unicode="&#x470;" horiz-adv-x="1711" 
d="M127 1466h194v-395q0 -229 105 -334q101 -99 332 -118v847h194v-847q231 14 335 130q102 112 102 346v371h195v-414q0 -589 -632 -599v-453h-194v453q-631 11 -631 582v431z" />
    <glyph glyph-name="Omega" unicode="&#x3a9;" horiz-adv-x="1531" 
d="M97 173h320q-304 254 -304 620q0 415 306 607q145 91 351 91q381 0 562 -325q87 -156 87 -373q0 -366 -304 -620h320v-173h-570v162q356 166 356 601q0 227 -110 384q-125 178 -342 178q-216 0 -342 -173q-113 -155 -113 -379q0 -441 354 -611v-162h-571v173z" />
    <glyph glyph-name="Iotadieresis" unicode="&#x3aa;" horiz-adv-x="569" 
d="M377 49q0 -49 -43 -49h-157q-40 0 -40 49v1220q0 43 43 43h157q40 0 40 -45v-1218zM4 1556v205h188v-205h-188zM377 1556v205h188v-205h-188z" />
    <glyph glyph-name="Upsilondieresis" unicode="&#x3ab;" horiz-adv-x="1366" 
d="M1066 1257l-374 -636v-563q0 -58 -52 -58h-139q-50 0 -50 58v566l-370 628q-9 16 -9 29q0 32 41 32h173q51 0 72 -42l213 -421l217 423q21 40 70 40h173q43 0 43 -30q0 -12 -8 -26zM429 1556v205h188v-205h-188zM802 1556v205h188v-205h-188z" />
    <glyph glyph-name="alphatonos" unicode="&#x3ac;" horiz-adv-x="1184" 
d="M923 1062h184q-70 -220 -129 -531q70 -386 129 -531h-179q-43 100 -65 194q-83 -218 -347 -218q-221 0 -340 174q-104 152 -104 383q0 236 103 383q118 170 344 170q216 0 351 -204q7 35 53 180zM549 937q-152 0 -223 -134q-56 -104 -56 -270q0 -163 53 -269
q70 -140 216 -140q151 0 228 140q62 113 62 277q0 162 -58 266q-72 130 -222 130zM466 1194l133 280h236l-220 -280h-149z" />
    <glyph glyph-name="epsilontonos" unicode="&#x3ad;" horiz-adv-x="913" 
d="M829 942l-129 -104q-123 93 -230 93q-72 0 -119 -37q-50 -41 -50 -111q0 -87 79 -129q63 -34 157 -34q15 0 50 1v-151q-32 1 -48 1q-254 0 -254 -179q0 -74 59 -122q55 -46 130 -46q141 0 264 131l129 -109q-160 -170 -398 -170q-158 0 -259 77q-112 86 -112 239
q0 181 176 257q-147 83 -147 229q0 148 106 231q97 77 248 77q206 0 348 -144zM366 1194l133 280h236l-220 -280h-149z" />
    <glyph glyph-name="etatonos" unicode="&#x3ae;" 
d="M139 0v1062h162v-151q117 175 338 175q111 0 200 -46q102 -52 135 -148q28 -81 28 -239v-1060h-180v1053q0 135 -42 202q-53 82 -181 82q-280 0 -280 -350v-580h-180zM466 1194l133 280h236l-220 -280h-149z" />
    <glyph glyph-name="iotatonos" unicode="&#x3af;" horiz-adv-x="455" 
d="M137 0v1062h180v-1062h-180zM99 1194l133 280h236l-220 -280h-149z" />
    <glyph glyph-name="upsilondieresistonos" unicode="&#x3b0;" horiz-adv-x="1120" 
d="M136 1062h180v-629q0 -131 55 -213q64 -96 189 -96q73 0 135.5 42t88.5 110q23 60 23 171v615h179v-622q0 -217 -105 -337q-110 -127 -324 -127q-125 0 -225 54q-109 58 -157 166q-39 88 -39 237v629zM567 1507h186l-200 -277h-117zM752 1422h173v-192h-173v192z
M198 1422h173v-192h-173v192z" />
    <glyph glyph-name="alpha" unicode="&#x3b1;" horiz-adv-x="1184" 
d="M923 1062h184q-70 -220 -129 -531q70 -386 129 -531h-179q-43 100 -65 194q-83 -218 -347 -218q-221 0 -340 174q-104 152 -104 383q0 236 103 383q118 170 344 170q216 0 351 -204q7 35 53 180zM549 937q-152 0 -223 -134q-56 -104 -56 -270q0 -163 53 -269
q70 -140 216 -140q151 0 228 140q62 113 62 277q0 162 -58 266q-72 130 -222 130z" />
    <glyph glyph-name="beta" unicode="&#x3b2;" horiz-adv-x="1178" 
d="M319 135v-542h-179v1413q0 156 37 245q48 115 169 180q110 60 243 60q172 0 286 -97q122 -102 122 -271q0 -123 -76.5 -209.5t-198.5 -107.5q167 -16 265 -120t98 -271q0 -193 -120.5 -316t-313.5 -123q-216 0 -332 159zM478 864q352 0 352 249q0 103 -74 168
q-72 62 -176 62q-80 0 -149 -41q-77 -45 -96 -117q-16 -62 -16 -210v-403q0 -154 15 -218q25 -107 104 -175q83 -71 190 -71q126 0 200 87q70 82 70 210q0 96 -48 178q-51 89 -137 121q-77 29 -209 29h-26v131z" />
    <glyph glyph-name="gamma" unicode="&#x3b3;" horiz-adv-x="1024" 
d="M25 1062h189l297 -837l304 837h184l-397 -1062v-407h-183v407z" />
    <glyph glyph-name="delta" unicode="&#x3b4;" horiz-adv-x="1140" 
d="M174 1466h801v-146h-560q98 -100 313 -249q184 -127 253 -228q87 -126 87 -323q0 -244 -128 -390q-134 -154 -375 -154q-234 0 -367 156q-126 146 -126 384q0 221 110 365q120 159 334 167q-93 65 -342 288v130zM256 514q0 -157 78 -267q88 -123 240 -123q156 0 238 123
q71 105 71 268t-73 270q-84 124 -240 124q-153 0 -239 -125q-75 -109 -75 -270z" />
    <glyph glyph-name="epsilon" unicode="&#x3b5;" horiz-adv-x="913" 
d="M829 942l-129 -104q-123 93 -230 93q-72 0 -119 -37q-50 -41 -50 -111q0 -87 79 -129q63 -34 157 -34q15 0 50 1v-151q-32 1 -48 1q-254 0 -254 -179q0 -74 59 -122q55 -46 130 -46q141 0 264 131l129 -109q-160 -170 -398 -170q-158 0 -259 77q-112 86 -112 239
q0 181 176 257q-147 83 -147 229q0 148 106 231q97 77 248 77q206 0 348 -144z" />
    <glyph glyph-name="zeta" unicode="&#x3b6;" horiz-adv-x="903" 
d="M234 1466h652v-122q-243 -150 -426 -397q-208 -282 -208 -534q0 -226 229 -246q135 -12 184 -24q201 -51 201 -247q0 -92 -56 -175t-142 -119q-78 -33 -192 -33l49 166q168 19 168 141q0 91 -93 112q-43 10 -148 13q-259 8 -342 210q-38 93 -38 210q0 246 185 511
q162 232 393 388h-416v146z" />
    <glyph glyph-name="eta" unicode="&#x3b7;" 
d="M139 0v1062h162v-151q117 175 338 175q111 0 200 -46q102 -52 135 -148q28 -81 28 -239v-1060h-180v1053q0 135 -42 202q-53 82 -181 82q-280 0 -280 -350v-580h-180z" />
    <glyph glyph-name="theta" unicode="&#x3b8;" 
d="M92 733q0 758 478 758t478 -758q0 -757 -478 -757t-478 757zM278 806h584q-17 537 -294 537q-279 0 -290 -537zM862 661h-584q11 -537 292 -537q282 0 292 537z" />
    <glyph glyph-name="theta" unicode="&#x473;" 
d="M92 733q0 758 478 758t478 -758q0 -757 -478 -757t-478 757zM278 806h584q-17 537 -294 537q-279 0 -290 -537zM862 661h-584q11 -537 292 -537q282 0 292 537z" />
    <glyph glyph-name="iota" unicode="&#x3b9;" horiz-adv-x="455" 
d="M137 0v1062h180v-1062h-180z" />
    <glyph glyph-name="kappa" unicode="&#x3ba;" horiz-adv-x="1024" 
d="M134 1062h179v-417l431 417h238l-475 -441l516 -621h-230l-414 500l-66 -61v-439h-179v1062z" />
    <glyph glyph-name="lambda" unicode="&#x3bb;" horiz-adv-x="1024" 
d="M511 794l-297 -794h-190l394 1042l-158 424h190l548 -1466h-190z" />
    <glyph glyph-name="mu" unicode="&#x3bc;" horiz-adv-x="1180" 
d="M1018 1062v-1062h-161v126q-52 -80 -103 -110q-70 -41 -163 -41q-83 0 -147 33q-48 25 -106 99v-514h-178v1469h178v-450q0 -186 7 -233q36 -241 238 -241q173 0 232 158q26 70 26 313v453h177z" />
    <glyph glyph-name="nu" unicode="&#x3bd;" horiz-adv-x="1024" 
d="M1027 949l-314 -902q-15 -46 -56 -46h-213q-40 0 -56 46l-312 904q-15 42 30 42h163q30 0 39 -30l235 -770h21l233 766q10 34 39 34h166q40 0 25 -44z" />
    <glyph glyph-name="xi" unicode="&#x3be;" horiz-adv-x="917" 
d="M772 1491v-149h-147q-311 0 -311 -187q0 -172 299 -172h147v-149q-267 0 -406 -179q-79 -101 -79 -229q0 -133 87 -198q70 -53 212 -69q103 -12 154 -34q69 -30 110.5 -95.5t41.5 -141.5q0 -153 -130 -241q-112 -76 -273 -78l46 167q72 5 122 36q60 39 60 105
q0 102 -171 121q-442 48 -442 422q0 151 93 277q88 119 232 181q-119 15 -195 93.5t-76 196.5q0 163 150 251q123 72 298 72h178z" />
    <glyph glyph-name="omicron" unicode="&#x3bf;" 
d="M942 511q0 -272 -82 -385q-102 -140 -346 -140h-2q-261 0 -355 135q-75 107 -75 372q0 261 60 359q96 156 370 156h2q276 0 368 -148q60 -97 60 -349zM709 407v164q0 156 -37 199q-33 40 -150 40h-33q-109 0 -140.5 -42t-31.5 -188v-175q0 -141 33 -181q35 -43 156 -43
h16q116 0 151.5 41.5t35.5 184.5z" />
    <glyph glyph-name="pi" unicode="&#x3c0;" horiz-adv-x="1413" 
d="M505 916v-916h-180v916h-280v146h1324v-146h-242v-916h-180v916h-442z" />
    <glyph glyph-name="rho" unicode="&#x3c1;" horiz-adv-x="1165" 
d="M131 -407v901q0 592 465 592q235 0 370 -163q127 -151 127 -391q0 -233 -116 -386q-129 -170 -354 -170q-197 0 -312 125v-508h-180zM602 937q-289 0 -289 -420q0 -167 60 -268q74 -125 230 -125q158 0 238 126q67 105 67 272q0 173 -65 282q-79 133 -241 133z" />
    <glyph glyph-name="sigma1" unicode="&#x3c2;" horiz-adv-x="987" 
d="M966 1052l-42 -150q-112 35 -224 35q-187 0 -311 -114q-128 -118 -128 -303q0 -148 93 -234q76 -71 232 -112q119 -31 166 -52q167 -74 167 -240q0 -148 -124 -235q-111 -78 -264 -78q-67 0 -152 14l44 165q58 -12 101 -12q79 0 136 31q70 39 70 111q0 68 -73 102
q-31 15 -132 36q-200 42 -313 154q-126 124 -126 319q0 266 187 435q181 162 450 162q123 0 243 -34z" />
    <glyph glyph-name="sigma" unicode="&#x3c3;" horiz-adv-x="1264" 
d="M1219 1062v-146h-289q133 -124 133 -386q0 -249 -123 -396q-131 -158 -376 -158q-244 0 -375 159q-121 147 -121 396q0 247 122 395q132 160 374 160q75 0 170 -24h485zM561 937q-158 0 -240 -130q-68 -108 -68 -277q0 -171 68 -278q81 -128 243 -128q164 0 246 127
q70 107 70 280q0 174 -70 280q-83 126 -249 126z" />
    <glyph glyph-name="tau" unicode="&#x3c4;" horiz-adv-x="809" 
d="M506 916v-916h-180v916h-280v146h716v-146h-256z" />
    <glyph glyph-name="upsilon" unicode="&#x3c5;" horiz-adv-x="1120" 
d="M136 1062h180v-629q0 -131 55 -213q64 -96 189 -96q73 0 135.5 42t88.5 110q23 60 23 171v615h179v-622q0 -217 -105 -337q-110 -127 -324 -127q-125 0 -225 54q-109 58 -157 166q-39 88 -39 237v629z" />
    <glyph glyph-name="phi" unicode="&#x3c6;" horiz-adv-x="1328" 
d="M499 1083l-35 -156q-207 -69 -207 -362q0 -164 82 -279q86 -120 243 -154v660q0 98 10 142q34 152 219 152q264 0 384 -241q62 -125 62 -269q0 -271 -208 -462q-110 -101 -289 -139v-382h-178v382q-218 0 -369 186q-141 174 -141 396q0 203 109 357q123 174 318 169z
M760 140q151 27 235 167q73 122 73 287q0 122 -42 217q-56 126 -164 126q-70 0 -91 -69q-11 -36 -11 -128v-600z" />
    <glyph glyph-name="chi" unicode="&#x3c7;" horiz-adv-x="1075" 
d="M48 1062h196l292 -588l302 588h198l-390 -724l410 -745h-205l-315 613l-318 -613h-201l409 739z" />
    <glyph glyph-name="psi" unicode="&#x3c8;" horiz-adv-x="1460" 
d="M122 1062h179v-524q0 -134 16 -196q52 -201 323 -215v935h180v-935q253 14 312 182q26 75 26 229v524h179v-518q0 -189 -27 -275q-88 -279 -490 -293v-383h-180v383q-272 8 -402 147q-79 85 -102 196q-14 68 -14 225v518z" />
    <glyph glyph-name="psi" unicode="&#x471;" horiz-adv-x="1460" 
d="M122 1062h179v-524q0 -134 16 -196q52 -201 323 -215v935h180v-935q253 14 312 182q26 75 26 229v524h179v-518q0 -189 -27 -275q-88 -279 -490 -293v-383h-180v383q-272 8 -402 147q-79 85 -102 196q-14 68 -14 225v518z" />
    <glyph glyph-name="omega" unicode="&#x3c9;" horiz-adv-x="1599" 
d="M245 1062h174q-149 -329 -149 -556q0 -138 46 -246q61 -143 181 -143q68 0 124 53q53 49 71 118t18 195v311h179v-311q0 -234 94 -316q57 -50 120 -50q120 0 181 144q45 107 45 245q0 227 -148 556h173q158 -281 158 -545q0 -219 -83 -363q-103 -178 -306 -178
q-226 0 -323 239q-98 -239 -324 -239q-202 0 -305 178q-84 145 -84 363q0 264 158 545z" />
    <glyph glyph-name="iotadieresis" unicode="&#x3ca;" horiz-adv-x="455" 
d="M137 0v1062h180v-1062h-180zM-47 1270v205h188v-205h-188zM326 1270v205h188v-205h-188z" />
    <glyph glyph-name="upsilondieresis" unicode="&#x3cb;" horiz-adv-x="1120" 
d="M136 1062h180v-629q0 -131 55 -213q64 -96 189 -96q73 0 135.5 42t88.5 110q23 60 23 171v615h179v-622q0 -217 -105 -337q-110 -127 -324 -127q-125 0 -225 54q-109 58 -157 166q-39 88 -39 237v629zM301 1270v205h188v-205h-188zM674 1270v205h188v-205h-188z" />
    <glyph glyph-name="omicrontonos" unicode="&#x3cc;" 
d="M942 511q0 -272 -82 -385q-102 -140 -346 -140h-2q-261 0 -355 135q-75 107 -75 372q0 261 60 359q96 156 370 156h2q276 0 368 -148q60 -97 60 -349zM709 407v164q0 156 -37 199q-33 40 -150 40h-33q-109 0 -140.5 -42t-31.5 -188v-175q0 -141 33 -181q35 -43 156 -43
h16q116 0 151.5 41.5t35.5 184.5zM473 1194l133 280h236l-220 -280h-149z" />
    <glyph glyph-name="upsilontonos" unicode="&#x3cd;" horiz-adv-x="1120" 
d="M136 1062h180v-629q0 -131 55 -213q64 -96 189 -96q73 0 135.5 42t88.5 110q23 60 23 171v615h179v-622q0 -217 -105 -337q-110 -127 -324 -127q-125 0 -225 54q-109 58 -157 166q-39 88 -39 237v629zM442 1194l133 280h236l-220 -280h-149z" />
    <glyph glyph-name="omegatonos" unicode="&#x3ce;" horiz-adv-x="1599" 
d="M245 1062h174q-149 -329 -149 -556q0 -138 46 -246q61 -143 181 -143q68 0 124 53q53 49 71 118t18 195v311h179v-311q0 -234 94 -316q57 -50 120 -50q120 0 181 144q45 107 45 245q0 227 -148 556h173q158 -281 158 -545q0 -219 -83 -363q-103 -178 -306 -178
q-226 0 -323 239q-98 -239 -324 -239q-202 0 -305 178q-84 145 -84 363q0 264 158 545zM702 1194l133 280h236l-220 -280h-149z" />
    <glyph glyph-name="afii10023" unicode="&#x401;" horiz-adv-x="1367" 
d="M1068 50q0 -50 -49 -50h-827q-49 0 -49 47v1220q0 46 49 46h827q49 0 49 -49v-102q0 -52 -49 -52h-638v-328h579q50 0 50 -50v-100q0 -52 -50 -52h-579v-373h638q49 0 49 -53v-104zM417 1556v205h188v-205h-188zM790 1556v205h188v-205h-188z" />
    <glyph glyph-name="afii10051" unicode="&#x402;" horiz-adv-x="1771" 
d="M50 1466h1170v-173h-488v-456q253 99 440 99q221 0 366 -130q151 -136 151 -355q0 -206 -125 -339q-129 -137 -333 -137q-104 0 -235 33l31 164q76 -37 158 -37q143 0 224.5 83t81.5 227q0 163 -104 249q-96 80 -263 80q-162 0 -392 -94v-680h-194v1293h-488v173z" />
    <glyph glyph-name="afii10052" unicode="&#x403;" horiz-adv-x="1109" 
d="M161 1466h948v-173h-754v-1293h-194v1466zM473 1556l133 280h236l-220 -280h-149z" />
    <glyph glyph-name="afii10053" unicode="&#x404;" horiz-adv-x="1472" 
d="M857 843v-173h-545q10 -226 120 -369q124 -163 340 -163q350 0 439 372l187 -49q-127 -486 -612 -486q-337 0 -516 223q-166 207 -159 551q9 453 320 644q160 98 359 98q220 0 373 -107q160 -111 216 -320l-190 -50q-83 307 -400 307q-216 0 -339 -133
q-118 -126 -130 -345h537z" />
    <glyph glyph-name="afii10054" unicode="&#x405;" horiz-adv-x="1366" 
d="M1040 379q0 -220 -128 -312q-115 -83 -426 -83q-115 0 -324 41q-64 13 -64 64v89q0 44 75 38q187 -15 345 -15q180 0 222 23q47 24 47 124v71q0 123 -61 151q-29 14 -168 14h-115q-207 0 -295 91q-76 80 -76 272q0 89 16 143q29 101 116 163q99 71 341 71q205 0 334 -25
q64 -13 64 -64v-93q0 -36 -46 -38h-29q-27 0 -141 2q-119 1 -173 1q-160 0 -197.5 -21t-37.5 -113v-25q0 -68 4.5 -94.5t17.5 -39.5q32 -33 179 -32h71q254 0 354 -97q95 -92 95 -306z" />
    <glyph glyph-name="afii10055" unicode="&#x406;" horiz-adv-x="569" 
d="M312 49q0 -49 -43 -49h-157q-40 0 -40 49v1220q0 43 43 43h157q40 0 40 -45v-1218z" />
    <glyph glyph-name="afii10056" unicode="&#x407;" horiz-adv-x="569" 
d="M377 49q0 -49 -43 -49h-157q-40 0 -40 49v1220q0 43 43 43h157q40 0 40 -45v-1218zM4 1556v205h188v-205h-188zM377 1556v205h188v-205h-188z" />
    <glyph glyph-name="afii10057" unicode="&#x408;" horiz-adv-x="1024" 
d="M458 131q0 -230 -135 -340q-106 -88 -277 -88q-155 0 -168 59q-1 9 -1 23v93q0 39 57 36q43 -3 79 -3q112 0 159 42q51 47 51 164v1143q0 53 49 53h137q49 0 49 -46v-1136z" />
    <glyph glyph-name="afii10058" unicode="&#x409;" horiz-adv-x="2165" 
d="M1178 1466v-626h350q188 0 292 -32q156 -48 220 -178q49 -99 49 -203q0 -125 -62 -232q-67 -113 -179 -156q-102 -39 -291 -39h-573v1293h-530v-755q0 -198 -9 -267q-39 -296 -278 -296q-64 0 -154 24l33 172q48 -20 82 -20q93 0 120 104q12 46 12 179v1032h918z
M1178 165h388q315 0 315 256q0 191 -171 233q-78 19 -272 19h-260v-508z" />
    <glyph glyph-name="afii10059" unicode="&#x40a;" horiz-adv-x="2069" 
d="M1082 1466v-626h326q189 0 283 -23q144 -35 223 -138.5t79 -251.5q0 -128 -65 -237q-71 -117 -186 -156q-101 -34 -293 -34h-561v673h-530v-673h-194v1466h194v-626h530v626h194zM1082 165h363q111 0 161 12q179 43 179 244q0 186 -165 230q-82 22 -302 22h-236v-508z
" />
    <glyph glyph-name="afii10060" unicode="&#x40b;" horiz-adv-x="1749" 
d="M49 1466h1173v-173h-489v-451q273 94 437 94q146 0 259 -55q132 -64 182 -186q45 -111 45 -309v-386h-194v379q0 127 -18 194q-53 199 -285 199q-161 0 -426 -92v-680h-194v1293h-490v173z" />
    <glyph glyph-name="afii10061" unicode="&#x40c;" horiz-adv-x="1193" 
d="M161 1466h194v-642q144 0 214 82q36 42 111 217q56 130 81 172q104 172 293 172q112 0 118 -2v-168q-13 0 -39 1t-39 1q-103 0 -160 -71q-33 -40 -83 -166q-56 -140 -89 -188q-56 -82 -158 -124q142 -39 280 -262l302 -488h-241l-245 398q-91 147 -137 195
q-90 93 -208 93v-686h-194v1466zM525 1556l133 280h236l-220 -280h-149z" />
    <glyph glyph-name="afii10062" unicode="&#x40e;" horiz-adv-x="1301" 
d="M10 1466h196l478 -898l418 898h193l-550 -1140q-90 -187 -130 -236q-89 -110 -228 -110q-75 0 -184 35v166q78 -45 165 -45q94 0 155 84q34 47 81 169zM870 1815h123q-31 -259 -295 -259q-265 0 -296 259h123q28 -135 167 -135q151 0 178 135z" />
    <glyph glyph-name="afii10145" unicode="&#x40f;" horiz-adv-x="1472" 
d="M823 0v-407h-173v407h-490v1466h194v-1293h764v1293h195v-1466h-490z" />
    <glyph glyph-name="afii10017" unicode="&#x410;" horiz-adv-x="1366" 
d="M1183 51q7 -20 7 -29q0 -22 -41 -22h-154q-50 0 -66 55l-75 243h-474l-74 -243q-16 -55 -66 -55h-157q-41 0 -41 22q0 9 7 29l396 1212q16 49 64 49h212q48 0 65 -49zM800 489l-184 601l-186 -601h370z" />
    <glyph glyph-name="afii10018" unicode="&#x411;" horiz-adv-x="1344" 
d="M167 1466h951v-173h-757v-452h350q177 0 272 -26q139 -38 214 -141t75 -248q0 -242 -197 -365q-98 -61 -334 -61h-574v1466zM361 165h388q314 0 314 256q0 190 -170 233q-79 20 -273 20h-259v-509z" />
    <glyph glyph-name="afii10019" unicode="&#x412;" horiz-adv-x="1366" 
d="M1142 345q0 -345 -414 -345h-536q-49 0 -49 47v1220q0 45 49 45h535q325 0 325 -321v-41q0 -174 -165 -241q129 -15 188 -84q67 -79 67 -250v-30zM822 945q0 106 -22 134q-25 31 -119 31h-305v-328h303q98 0 122 32q21 27 21 131zM902 386q0 114 -29 157q-33 46 -124 46
h-373v-385h373q103 0 132 45q21 32 21 137z" />
    <glyph glyph-name="afii10020" unicode="&#x413;" horiz-adv-x="1109" 
d="M161 1466h948v-173h-754v-1293h-194v1466z" />
    <glyph glyph-name="afii10021" unicode="&#x414;" horiz-adv-x="1387" 
d="M291 1466h892v-1293h132v-515h-173v342h-969v-342h-173v515h114q177 267 177 1079v214zM989 1293h-511v-75q0 -693 -165 -1045h676v1120z" />
    <glyph glyph-name="afii10022" unicode="&#x415;" horiz-adv-x="1366" 
d="M1068 50q0 -50 -49 -50h-827q-49 0 -49 47v1220q0 46 49 46h827q49 0 49 -49v-102q0 -52 -49 -52h-638v-328h579q50 0 50 -50v-100q0 -52 -50 -52h-579v-373h638q49 0 49 -53v-104z" />
    <glyph glyph-name="afii10024" unicode="&#x416;" horiz-adv-x="1891" 
d="M1045 1466v-642q150 0 220 79q37 41 113 220q55 129 81 172q104 172 292 172q95 0 118 -2v-168q-13 0 -38.5 1t-38.5 1q-102 0 -160 -71q-32 -39 -83 -166q-54 -135 -89 -186q-57 -83 -158 -126q141 -39 279 -262l302 -488h-240l-245 398q-94 153 -139 198
q-89 90 -214 90v-686h-199v686q-119 0 -206 -82q-54 -51 -135 -186l-12 -20l-245 -398h-241l302 488q138 223 280 262q-101 41 -159 125q-34 49 -89 187q-52 130 -82 168q-57 72 -160 69l-78 -2v168q11 2 112 2q185 0 277 -138q41 -61 103 -206q78 -182 113 -221
q68 -76 220 -78v642h199z" />
    <glyph glyph-name="afii10025" unicode="&#x417;" horiz-adv-x="1237" 
d="M78 414l185 48q26 -134 121 -225q101 -96 234 -96q135 0 227 66q105 74 105 204q0 136 -112 206q-94 58 -238 58h-93v169q129 0 179 10q89 18 147.5 79.5t58.5 149.5q0 110 -85 177q-78 61 -191 61q-232 0 -298 -202q-30 -91 -30 -137l-186 42q69 467 516 467
q190 0 322 -102q145 -112 145 -297q0 -205 -194 -318q121 -33 192 -131t71 -224q0 -210 -167 -333q-150 -111 -368 -111q-416 0 -541 439z" />
    <glyph glyph-name="afii10026" unicode="&#x418;" horiz-adv-x="1472" 
d="M161 1466h176v-1161l780 1161h195v-1466h-176v1158l-781 -1158h-194v1466z" />
    <glyph glyph-name="afii10027" unicode="&#x419;" horiz-adv-x="1472" 
d="M161 1466h176v-1161l780 1161h195v-1466h-176v1158l-781 -1158h-194v1466zM890 1815h123q-31 -259 -295 -259q-265 0 -296 259h123q28 -135 167 -135q151 0 178 135z" />
    <glyph glyph-name="afii10028" unicode="&#x41a;" horiz-adv-x="1193" 
d="M161 1466h194v-642q144 0 214 82q36 42 111 217q56 130 81 172q104 172 293 172q112 0 118 -2v-168q-13 0 -39 1t-39 1q-103 0 -160 -71q-33 -40 -83 -166q-56 -140 -89 -188q-56 -82 -158 -124q142 -39 280 -262l302 -488h-241l-245 398q-91 147 -137 195
q-90 93 -208 93v-686h-194v1466z" />
    <glyph glyph-name="afii10029" unicode="&#x41b;" horiz-adv-x="1344" 
d="M265 1466h918v-1466h-194v1293h-530v-755q0 -198 -9 -267q-39 -296 -278 -296q-64 0 -154 24l33 172q48 -20 82 -20q93 0 120 104q12 46 12 179v1032z" />
    <glyph glyph-name="afii10030" unicode="&#x41c;" horiz-adv-x="1706" 
d="M1454 58q0 -58 -52 -58h-135q-50 0 -50 58v867l12 194l-342 -1068q-15 -50 -65 -50h-112q-49 0 -65 50l-337 1066l11 -203v-856q0 -58 -52 -58h-136q-49 0 -49 58v1202q0 52 52 52h273q50 0 66 -54l293 -961l297 961q17 54 67 54h275q49 0 49 -55v-1199z" />
    <glyph glyph-name="afii10031" unicode="&#x41d;" horiz-adv-x="1479" 
d="M1195 58q0 -58 -52 -58h-140q-50 0 -50 58v522h-572v-522q0 -58 -52 -58h-140q-49 0 -49 58v1202q0 52 52 52h140q49 0 49 -55v-475h572v478q0 52 52 52h140q50 0 50 -55v-1199z" />
    <glyph glyph-name="afii10032" unicode="&#x41e;" horiz-adv-x="1593" 
d="M1299 678q0 -346 -113 -503q-141 -195 -477 -195h-3q-182 0 -291 38q-125 44 -199 150q-103 148 -103 484q0 331 83 467q72 116 195 167q118 49 315 49h3q200 0 316 -45q122 -48 191 -160q83 -134 83 -452zM1055 538v240q0 202 -73 276q-63 65 -222 65h-124
q-149 0 -210 -67q-66 -73 -66 -263v-254q0 -185 68 -263t230 -78h102q154 0 222 75q73 80 73 269z" />
    <glyph glyph-name="afii10033" unicode="&#x41f;" horiz-adv-x="1472" 
d="M160 1466h1153v-1466h-195v1293h-764v-1293h-194v1466z" />
    <glyph glyph-name="afii10034" unicode="&#x420;" horiz-adv-x="1366" 
d="M1088 886q0 -364 -414 -364h-184q-23 0 -106 23v-487q0 -58 -52 -58h-140q-49 0 -49 58v1202q0 52 52 52h544q153 0 248 -93q101 -99 101 -273v-60zM848 918q0 103 -19 138q-29 54 -126 54h-319v-389h317q98 0 124 40q23 34 23 157z" />
    <glyph glyph-name="afii10035" unicode="&#x421;" horiz-adv-x="1479" 
d="M1087 81q0 -44 -55 -58q-145 -34 -356 -34q-303 0 -427 132q-73 79 -104 192q-32 121 -32 342q0 271 42 395q37 113 142 187q121 87 379 87q165 0 347 -36q64 -13 64 -63v-96q0 -44 -75 -38q-128 11 -291 11q-186 0 -258 -37q-98 -50 -98 -200v-401q0 -152 84 -206
q68 -44 244 -44q231 0 325 5q38 3 49 -1q20 -7 20 -40v-97z" />
    <glyph glyph-name="afii10036" unicode="&#x422;" horiz-adv-x="1251" 
d="M1050 1159q0 -52 -49 -52h-328v-1060q0 -47 -49 -47h-139q-50 0 -50 52v1055h-325q-49 0 -49 52v105q0 49 49 49h891q49 0 49 -49v-105z" />
    <glyph glyph-name="afii10037" unicode="&#x423;" horiz-adv-x="1301" 
d="M10 1466h196l478 -898l418 898h193l-550 -1140q-90 -187 -130 -236q-89 -110 -228 -110q-75 0 -184 35v166q78 -45 165 -45q94 0 155 84q34 47 81 169z" />
    <glyph glyph-name="afii10038" unicode="&#x424;" horiz-adv-x="1557" 
d="M688 1290v188h182v-188q258 -14 423 -150q181 -150 181 -400q0 -252 -180 -401q-164 -136 -424 -150v-189h-182v189q-257 10 -424 149q-182 152 -182 402q0 251 181 401q167 138 425 149zM870 1124v-768q184 9 290 103q114 101 114 281t-114 280q-106 93 -290 104z
M688 1123q-183 -8 -290 -103q-115 -101 -115 -280t115 -280q107 -95 290 -103v766z" />
    <glyph glyph-name="afii10039" unicode="&#x425;" horiz-adv-x="1366" 
d="M1319 63q17 -23 17 -38q0 -25 -38 -25h-179q-43 0 -81 52l-332 455l-330 -455q-37 -52 -81 -52h-180q-38 0 -38 25q0 15 17 38l469 628l-413 564q-10 14 -10 26q0 32 45 32h166q49 0 79 -42l278 -390l273 387q32 45 82 45h166q40 0 40 -36q0 -17 -12 -33l-404 -549z" />
    <glyph glyph-name="afii10040" unicode="&#x426;" horiz-adv-x="1515" 
d="M159 1466h194v-1293h764v1293h195v-1293h134v-580h-172v407h-1115v1466z" />
    <glyph glyph-name="afii10041" unicode="&#x427;" horiz-adv-x="1365" 
d="M1204 0h-194v591q-261 -97 -457 -97q-140 0 -254 62q-128 69 -172 191q-40 112 -40 288v431h194v-413q0 -391 298 -391q205 0 431 91v713h194v-1466z" />
    <glyph glyph-name="afii10042" unicode="&#x428;" horiz-adv-x="1877" 
d="M161 1466h194v-1293h487v1293h194v-1293h487v1293h194v-1466h-1556v1466z" />
    <glyph glyph-name="afii10043" unicode="&#x429;" horiz-adv-x="1920" 
d="M161 1466h194v-1293h487v1293h194v-1293h487v1293h194v-1293h133v-580h-173v407h-1516v1466z" />
    <glyph glyph-name="afii10044" unicode="&#x42a;" horiz-adv-x="1621" 
d="M0 1466h640v-626h351q560 0 560 -416q0 -424 -548 -424h-557v1293h-446v173zM640 165h355q161 0 242 47q105 60 105 210q0 87 -46.5 151.5t-130.5 82.5q-77 17 -266 17h-259v-508z" />
    <glyph glyph-name="afii10045" unicode="&#x42b;" horiz-adv-x="1813" 
d="M168 1466h194v-626h350q561 0 561 -415q0 -425 -547 -425h-558v1466zM362 165h355q162 0 243 47q105 60 105 211q0 88 -47.5 151.5t-131.5 81.5q-79 17 -264 17h-260v-508zM1449 1466h194v-1466h-194v1466z" />
    <glyph glyph-name="afii10046" unicode="&#x42c;" horiz-adv-x="1344" 
d="M165 1466h194v-626h350q186 0 292 -33q157 -49 221 -179q48 -98 48 -202q0 -426 -548 -426h-557v1466zM359 165h355q162 0 243 48q104 61 104 213q0 85 -45.5 147.5t-126.5 81t-270 18.5h-260v-508z" />
    <glyph glyph-name="afii10047" unicode="&#x42d;" horiz-adv-x="1472" 
d="M604 843v-173h545q-10 -226 -120 -369q-124 -163 -340 -163q-350 0 -439 372l-187 -49q127 -486 612 -486q337 0 516 223q166 207 159 551q-9 454 -318 644q-161 98 -361 98q-220 0 -373 -107q-160 -111 -216 -320l190 -50q83 307 400 307q216 0 339 -133
q118 -126 130 -345h-537z" />
    <glyph glyph-name="afii10048" unicode="&#x42e;" horiz-adv-x="2069" 
d="M164 1466h194v-658h282q20 297 190 484q180 199 471 199q314 0 496 -223q168 -206 168 -527q0 -330 -166 -539q-181 -227 -503 -227q-285 0 -461 192q-162 177 -191 469h-286v-636h-194v1466zM835 726q0 -247 106 -403q123 -182 358 -182q241 0 363 185q104 158 104 412
q0 247 -105 405q-123 184 -358 184q-240 0 -363 -188q-105 -160 -105 -413z" />
    <glyph glyph-name="afii10049" unicode="&#x42f;" horiz-adv-x="1479" 
d="M518 6q33 -29 90 -29q85 0 126 48l215 319q36 -7 60 -7q109 0 175 39v-266q0 -54 35.5 -94t88.5 -40q11 0 21 2v1219q-127 71 -318 71q-205 0 -333 -122q-131 -124 -131 -328q0 -147 76 -264.5t210 -176.5zM697 823q0 149 82 257q90 119 234 119q99 0 172 -34v-707
q-62 -51 -164 -51q-114 0 -210 102q-114 121 -114 314z" />
    <glyph glyph-name="afii10065" unicode="&#x430;" 
d="M948 69q0 -28 -39 -41l-57 -18q-50 -16 -83 -16q-57 0 -123 107q-37 -65 -65 -85q-40 -28 -132 -28h-100q-288 0 -288 294v32q0 297 300 297h92q102 0 153 -69h13v122q0 80 -42 111t-158 31q-39 0 -235 -16q-48 -4 -48 21v118q0 31 42 40q156 30 274 30q193 0 270 -63
q120 -98 120 -286v-379q0 -73 53 -91l22 -7q31 -10 31 -36v-68zM618 264v88q0 85 -132 85h-79q-70 0 -99 -23t-29 -85v-41q0 -63 28 -86q25 -23 90 -23h86q135 0 135 85z" />
    <glyph glyph-name="afii10066" unicode="&#x431;" horiz-adv-x="1173" 
d="M913 1501l159 -2q-18 -177 -141 -203q-66 -14 -237 -12q-158 1 -236 -22q-124 -37 -174 -159q-35 -87 -39 -243q136 202 364 202q226 0 358 -156q125 -146 125 -376q0 -329 -232 -489q-94 -65 -258 -65q-327 0 -455 308q-56 135 -56 470q0 364 108 522q131 191 473 191
q143 0 149 -2q-3 0 -21 -1q102 4 113 37zM904 535q0 158 -69 260q-80 118 -231 118q-162 0 -244 -130q-67 -109 -67 -281q0 -159 73 -263q84 -118 237 -118q152 0 233 137q68 115 68 277z" />
    <glyph glyph-name="afii10067" unicode="&#x432;" horiz-adv-x="1088" 
d="M136 1062h415q131 0 195 -16q97 -24 155.5 -95.5t58.5 -170.5q0 -151 -126 -227q81 -27 129.5 -98.5t44.5 -157.5q-13 -297 -393 -297h-479v1062zM316 615h192q97 0 126 5q60 10 99 46q44 40 44 97q0 98 -89 131q-52 19 -174 19h-198v-298zM316 148h237q124 0 179 21
q89 34 91 137q1 53 -33.5 95.5t-86.5 54t-169 11.5h-218v-319z" />
    <glyph glyph-name="afii10068" unicode="&#x433;" horiz-adv-x="747" 
d="M136 1062h611v-149h-431v-913h-180v1062z" />
    <glyph glyph-name="afii10069" unicode="&#x434;" horiz-adv-x="1195" 
d="M277 1062h740v-914h115v-449h-148v301h-836v-301h-148v449h95q190 258 182 914zM427 913q-20 -517 -160 -765h571v765h-411z" />
    <glyph glyph-name="afii10070" unicode="&#x435;" 
d="M871 431q0 -35 -41 -35h-517v-53q0 -92 38 -123t155 -31q118 0 284 9q43 3 43 -31v-104q0 -27 -35 -35q-152 -36 -304 -36q-227 0 -314 93q-98 104 -98 410q0 200 32 300q29 94 104 146q83 60 260 60q179 0 263 -60q73 -51 101.5 -129t28.5 -229v-152zM643 684
q0 76 -31 100.5t-134 24.5q-109 0 -140 -33q-25 -25 -25 -106v-105h330v119z" />
    <glyph glyph-name="afii10072" unicode="&#x436;" horiz-adv-x="1370" 
d="M777 1062v-459q100 0 148 65q28 38 79 168q47 121 89 165q58 61 176 61h66v-149l-49 1q-76 2 -106 -39q-12 -16 -50 -112.5t-64 -131.5q-38 -50 -116 -86q117 -31 228 -216l198 -329h-198l-193 329q-47 81 -82 113q-53 49 -126 49v-491h-184v491q-73 0 -126 -49
q-32 -30 -81 -113l-193 -329h-198l197 329q111 185 229 216q-89 42 -135 117q-18 29 -73 171q-20 50 -44.5 65.5t-79.5 15.5q-13 0 -53 -1v149h25q86 0 121 -7q65 -13 102 -58q32 -38 87 -169q58 -137 74 -159q49 -66 148 -66v459h184z" />
    <glyph glyph-name="afii10073" unicode="&#x437;" horiz-adv-x="939" 
d="M370 480v141q105 1 125 4q146 22 146 153q0 75 -50 119q-48 41 -124 41q-152 0 -213 -179l-171 28q80 299 386 299q151 0 253 -80q110 -87 110 -235q0 -130 -126 -207q160 -86 160 -267q0 -161 -122 -246q-106 -75 -273 -75q-363 0 -421 323l169 36q22 -96 90 -155
t165 -59q88 0 147 47q65 51 65 136q0 54 -34 103t-85 63q-41 11 -156 11q-9 0 -41 -1z" />
    <glyph glyph-name="afii10074" unicode="&#x438;" horiz-adv-x="1144" 
d="M135 1062h180v-810l499 810h194v-1062h-180v805l-499 -805h-194v1062z" />
    <glyph glyph-name="afii10075" unicode="&#x439;" horiz-adv-x="1144" 
d="M135 1062h180v-810l499 810h194v-1062h-180v805l-499 -805h-194v1062zM760 1464h123q-31 -259 -295 -259q-265 0 -296 259h123q28 -135 167 -135q151 0 178 135z" />
    <glyph glyph-name="afii10076" unicode="&#x43a;" horiz-adv-x="896" 
d="M134 1062h180v-459q99 0 148 65q16 21 74 160q40 94 60 128q45 73 102 92q43 14 138 14h36v-149l-50 1q-75 1 -106 -39q-10 -12 -49 -113q-37 -94 -65 -131q-38 -50 -115 -86q117 -31 228 -216l197 -329h-198l-192 329q-47 80 -82 113q-53 49 -126 49v-491h-180v1062z
" />
    <glyph glyph-name="afii10077" unicode="&#x43b;" horiz-adv-x="1195" 
d="M223 1062h836v-1062h-179v913h-477v-529q0 -169 -2 -186q-24 -205 -232 -205q-63 0 -145 8v150h79q97 0 112 48q8 25 8 163v700z" />
    <glyph glyph-name="afii10078" unicode="&#x43c;" horiz-adv-x="1408" 
d="M140 1062h280l279 -850l310 850h259v-1062h-180v855l-314 -855h-161l-297 896v-896h-176v1062z" />
    <glyph glyph-name="afii10079" unicode="&#x43d;" horiz-adv-x="1131" 
d="M136 1062h180v-442h499v442h180v-1062h-180v471h-499v-471h-180v1062z" />
    <glyph glyph-name="afii10080" unicode="&#x43e;" 
d="M942 511q0 -272 -82 -385q-102 -140 -346 -140h-2q-261 0 -355 135q-75 107 -75 372q0 261 60 359q96 156 370 156h2q276 0 368 -148q60 -97 60 -349zM709 407v164q0 156 -37 199q-33 40 -150 40h-33q-109 0 -140.5 -42t-31.5 -188v-175q0 -141 33 -181q35 -43 156 -43
h16q116 0 151.5 41.5t35.5 184.5z" />
    <glyph glyph-name="afii10081" unicode="&#x43f;" horiz-adv-x="1109" 
d="M136 1062h838v-1062h-180v913h-478v-913h-180v1062z" />
    <glyph glyph-name="afii10082" unicode="&#x440;" 
d="M908 370q0 -179 -95 -277.5t-262 -98.5h-51q-107 0 -174 79v-470q0 -36 -30 -36h-169q-30 0 -30 36v1298q0 37 41 58q79 40 292 40h101q168 0 265 -79q112 -89 112 -266v-284zM682 371v242q0 192 -172 192h-89q-100 0 -100 -31v-489q0 -46 37 -77q33 -28 76 -28h86
q162 0 162 191z" />
    <glyph glyph-name="afii10083" unicode="&#x441;" horiz-adv-x="1024" 
d="M803 55q0 -27 -35 -35q-119 -28 -262 -28q-231 0 -319 93q-105 112 -105 410q0 197 35 298q32 90 108 144q88 62 281 62q121 0 255 -26q42 -8 42 -39v-123q0 -25 -48 -21q-143 12 -221 12q-123 0 -163 -28q-56 -37 -56 -159v-237q0 -123 44 -158q35 -28 155 -28
q166 0 245 4q44 3 44 -23v-118z" />
    <glyph glyph-name="afii10084" unicode="&#x442;" horiz-adv-x="938" 
d="M38 1062h863v-149h-342v-913h-179v913h-342v149z" />
    <glyph glyph-name="afii10085" unicode="&#x443;" horiz-adv-x="1024" 
d="M974 951l-330 -1086q-55 -181 -150 -247q-72 -51 -207 -51q-75 0 -139 23q-16 6 -16 33v105q0 22 42 19q1 0 33 -3q27 -3 43 -3q79 0 108 15q44 23 66 103l53 188h-85q-42 0 -56 46l-261 854q-14 46 19 46h187q31 0 40 -36l191 -764h17l203 768q8 32 41 32h172
q42 0 29 -42z" />
    <glyph glyph-name="afii10086" unicode="&#x444;" horiz-adv-x="1685" 
d="M753 1466h180v-507q111 127 267 127q206 0 317 -182q93 -152 93 -372q0 -216 -97 -372q-114 -184 -318 -184q-140 0 -262 116v-499h-180v499q-108 -116 -261 -116q-207 0 -321 188q-96 158 -96 378q0 216 98 367q115 177 319 177q160 0 261 -127v507zM932 527
q0 -405 231 -405q144 0 213 146q52 110 52 271q0 158 -49 261q-66 139 -206 139q-241 0 -241 -412zM258 547q0 -166 49 -275q67 -148 214 -148q233 0 233 394q0 420 -245 420q-133 0 -200 -137q-51 -105 -51 -254z" />
    <glyph glyph-name="afii10087" unicode="&#x445;" horiz-adv-x="1024" 
d="M971 40q10 -15 7 -27q-3 -13 -16 -13h-194q-36 0 -64 45l-196 312l-189 -312q-28 -45 -64 -45h-194q-14 0 -17 13q-3 12 7 27l328 477l-302 429q-8 11 -4 28q4 19 18 19h186q26 0 52 -40l182 -286l177 282q27 44 57 44h185q17 0 22 -15q5 -14 -7 -32l-304 -429z" />
    <glyph glyph-name="afii10088" unicode="&#x446;" horiz-adv-x="1173" 
d="M138 1062h180v-914h498v914h180v-914h116v-449h-148v301h-826v1062z" />
    <glyph glyph-name="afii10089" unicode="&#x447;" horiz-adv-x="1067" 
d="M69 1062h180v-201q0 -117 9 -160q36 -174 229 -174q102 0 264 54v481h180v-1062h-180v428q-166 -52 -310 -52q-110 0 -203 55q-99 58 -136 157q-33 89 -33 196v278z" />
    <glyph glyph-name="afii10090" unicode="&#x448;" horiz-adv-x="1643" 
d="M141 1062h180v-913h410v913h180v-913h411v913h179v-1062h-1360v1062z" />
    <glyph glyph-name="afii10091" unicode="&#x449;" horiz-adv-x="1685" 
d="M141 1062h180v-914h410v914h180v-914h411v914h179v-914h119v-449h-149v301h-1330v1062z" />
    <glyph glyph-name="afii10092" unicode="&#x44a;" horiz-adv-x="1280" 
d="M0 1062h515v-415h229q190 0 311 -67q152 -84 152 -259q0 -168 -133 -251q-111 -70 -288 -70h-451v913h-335v149zM515 146h189q138 0 205 24q111 40 111 151q0 109 -99 150q-63 26 -193 26h-213v-351z" />
    <glyph glyph-name="afii10093" unicode="&#x44b;" horiz-adv-x="1472" 
d="M1146 1062h180v-1062h-180v1062zM139 1062h180v-415h228q191 0 311 -66q153 -83 153 -259q0 -168 -133 -252q-111 -70 -289 -70h-450v1062zM319 148h189q317 0 317 173q0 177 -293 177h-213v-350z" />
    <glyph glyph-name="afii10094" unicode="&#x44c;" horiz-adv-x="1067" 
d="M132 1062h180v-415h228q191 0 311 -66q153 -83 153 -259q0 -168 -133 -252q-111 -70 -289 -70h-450v1062zM312 148h189q317 0 317 173q0 177 -293 177h-213v-350z" />
    <glyph glyph-name="afii10095" unicode="&#x44d;" horiz-adv-x="1045" 
d="M398 618v-148h375q-34 -346 -291 -346q-228 0 -269 264l-176 -23q60 -377 453 -389q240 -7 363 159q108 147 105 396q-3 246 -117 392q-126 163 -364 163q-166 0 -279 -86q-117 -91 -143 -252l175 -28q44 217 253 217q128 0 206 -99q68 -85 84 -220h-375z" />
    <glyph glyph-name="afii10096" unicode="&#x44e;" horiz-adv-x="1536" 
d="M137 1062h180v-444h218q22 212 128 333q117 135 322 135q279 0 408 -244q60 -113 60 -307q0 -247 -105 -393q-121 -166 -359 -166q-211 0 -332 145q-108 131 -122 349h-218v-470h-180v1062zM995 933q-149 0 -221 -125q-58 -100 -58 -261q0 -423 272 -423q280 0 280 399
q0 410 -273 410z" />
    <glyph glyph-name="afii10097" unicode="&#x44f;" horiz-adv-x="1109" 
d="M971 1062v-1062h-179v414h-104q-111 0 -166 -42q-34 -26 -111 -140l-157 -232h-223l194 286q89 131 177 148q-136 19 -217 99q-86 85 -86 219q0 156 116 238q101 72 264 72h492zM792 913h-256q-254 0 -254 -167q0 -116 105 -158q66 -26 206 -26h199v351z" />
    <glyph glyph-name="afii10071" unicode="&#x451;" 
d="M871 431q0 -35 -41 -35h-517v-53q0 -92 38 -123t155 -31q118 0 284 9q43 3 43 -31v-104q0 -27 -35 -35q-152 -36 -304 -36q-227 0 -314 93q-98 104 -98 410q0 200 32 300q29 94 104 146q83 60 260 60q179 0 263 -60q73 -51 101.5 -129t28.5 -229v-152zM643 684
q0 76 -31 100.5t-134 24.5q-109 0 -140 -33q-25 -25 -25 -106v-105h330v119zM269 1270v205h188v-205h-188zM642 1270v205h188v-205h-188z" />
    <glyph glyph-name="afii10099" unicode="&#x452;" 
d="M135 1217h-134l-1 119h135v130h179v-130h343v-119h-343v-278q121 147 321 147q365 0 365 -413v-731q0 -178 -45 -261q-61 -112 -221 -112q-79 0 -142 19l34 153q52 -14 84 -14q78 0 100 77q10 34 10 142v727q0 258 -226 258q-280 0 -280 -350v-581h-179v1217z" />
    <glyph glyph-name="afii10100" unicode="&#x453;" horiz-adv-x="747" 
d="M136 1062h611v-149h-431v-913h-180v1062zM342 1194l133 280h236l-220 -280h-149z" />
    <glyph glyph-name="afii10101" unicode="&#x454;" horiz-adv-x="1045" 
d="M641 618v-148h-375q34 -346 291 -346q228 0 269 264l176 -23q-60 -377 -453 -389q-240 -7 -363 159q-108 147 -105 396q3 246 117 392q126 163 364 163q166 0 279 -86q117 -91 143 -252l-175 -28q-44 217 -253 217q-128 0 -206 -99q-68 -85 -84 -220h375z" />
    <glyph glyph-name="afii10102" unicode="&#x455;" horiz-adv-x="1024" 
d="M802 292q0 -164 -111 -244q-83 -59 -296 -59q-94 0 -248 30q-42 8 -42 39v101q0 35 48 31q101 -8 221 -8q108 0 129 5q70 16 70 87v36q0 88 -43 102q-26 9 -87 9h-80q-143 0 -212 72q-59 61 -59 226q0 154 101 226q77 54 248 54q153 0 248 -18q41 -8 41 -40v-97
q0 -31 -47 -31h-125h-147q-68 0 -88 -26q-13 -18 -13 -73v-32q0 -50 27 -67q20 -14 73 -14h47q195 0 267 -69q78 -75 78 -240z" />
    <glyph glyph-name="afii10103" unicode="&#x456;" horiz-adv-x="455" 
d="M328 1178q0 -31 -30 -31h-166q-29 0 -29 27v157q0 31 29 31h166q30 0 30 -27v-157zM327 31q0 -31 -29 -31h-167q-29 0 -29 27v924q0 32 30 32h166q29 0 29 -27v-925z" />
    <glyph glyph-name="afii10104" unicode="&#x457;" horiz-adv-x="569" 
d="M198 0v1062h180v-1062h-180zM9 1270v205h188v-205h-188zM382 1270v205h188v-205h-188z" />
    <glyph glyph-name="afii10105" unicode="&#x458;" horiz-adv-x="455" 
d="M358 1178q0 -31 -29 -31h-167q-29 0 -29 27v157q0 31 30 31h166q29 0 29 -27v-157zM358 19q0 -163 -93 -239q-71 -58 -179 -58q-72 0 -143 22q-25 8 -25 38v101q0 21 35 19q32 -2 50 -2q74 0 102 27t28 107v917q0 32 30 32h166q29 0 29 -27v-937z" />
    <glyph glyph-name="afii10106" unicode="&#x459;" horiz-adv-x="1856" 
d="M1092 1062v-415h229q190 0 311 -67q152 -84 152 -258q0 -167 -133 -252q-112 -70 -289 -70h-450v913h-499v-529q0 -142 -8 -192q-18 -110 -77 -156q-56 -42 -169 -42q-29 0 -140 6v147q71 -10 111 -10q79 0 97 80q6 26 6 145v700h859zM1092 148h189q136 0 205 24
q113 39 113 149q0 177 -293 177h-214v-350z" />
    <glyph glyph-name="afii10107" unicode="&#x45a;" horiz-adv-x="1664" 
d="M901 620h229q186 0 307 -62q156 -80 156 -249q0 -163 -136 -244q-111 -65 -286 -65h-450v471h-410v-471h-180v1062h180v-442h410v442h180v-442zM901 141h189q317 0 317 163q0 167 -293 167h-213v-330z" />
    <glyph glyph-name="afii10108" unicode="&#x45b;" 
d="M135 1336v130h179v-130h343v-119h-343v-278q121 147 321 147q365 0 365 -413v-673h-180v673q0 258 -226 258q-280 0 -280 -350v-581h-179v1217h-134l-1 119h135z" />
    <glyph glyph-name="afii10109" unicode="&#x45c;" horiz-adv-x="896" 
d="M134 1062h180v-459q99 0 148 65q16 21 74 160q40 94 60 128q45 73 102 92q43 14 138 14h36v-149l-50 1q-75 1 -106 -39q-10 -12 -49 -113q-37 -94 -65 -131q-38 -50 -115 -86q117 -31 228 -216l197 -329h-198l-192 329q-47 80 -82 113q-53 49 -126 49v-491h-180v1062z
M342 1194l133 280h236l-220 -280h-149z" />
    <glyph glyph-name="afii10110" unicode="&#x45e;" horiz-adv-x="1024" 
d="M974 951l-330 -1086q-55 -181 -150 -247q-72 -51 -207 -51q-75 0 -139 23q-16 6 -16 33v105q0 22 42 19q1 0 33 -3q27 -3 43 -3q79 0 108 15q44 23 66 103l53 188h-85q-42 0 -56 46l-261 854q-14 46 19 46h187q31 0 40 -36l191 -764h17l203 768q8 32 41 32h172
q42 0 29 -42zM732 1464h123q-31 -259 -295 -259q-265 0 -296 259h123q28 -135 167 -135q151 0 178 135z" />
    <glyph glyph-name="afii10193" unicode="&#x45f;" horiz-adv-x="1131" 
d="M640 0v-302h-149v302h-355v1062h180v-914h499v914h180v-1062h-355z" />
    <glyph glyph-name="afii10050" unicode="&#x490;" horiz-adv-x="1001" 
d="M767 1466v406h173v-579h-585v-1293h-194v1466h606z" />
    <glyph glyph-name="afii10098" unicode="&#x491;" horiz-adv-x="842" 
d="M631 1062v406h149v-555h-464v-913h-180v1062h495z" />
    <glyph glyph-name="Wgrave" unicode="&#x1e80;" horiz-adv-x="1933" 
d="M1884 1257l-279 -1206q-11 -50 -65 -50h-233q-52 0 -65 50l-255 982l-255 -982q-13 -50 -65 -50h-237q-54 0 -65 50l-279 1208q-14 61 39 61h151q52 0 62 -47l229 -1078l277 1069q9 35 26 47q12 9 34 9h166q45 0 61 -61l279 -1063l221 1077q10 47 73 47h141q53 0 39 -63z
M1051 1442q11 -28 7 -35q-3 -6 -22 -6q-23 0 -57 31q-126 112 -223 282l-40 70q-12 21 -12 36q0 31 45 31h74q62 0 86 -59z" />
    <glyph glyph-name="wgrave" unicode="&#x1e81;" horiz-adv-x="1479" 
d="M1573 944l-218 -897q-11 -46 -58 -46h-232q-41 0 -53 46l-188 705l-188 -705q-13 -46 -55 -46h-234q-44 0 -55 46l-219 895q-12 51 27 51h160q36 0 44 -37l168 -765h16l191 743q10 39 48 39h196q38 0 48 -39l191 -743h17l162 765q8 37 45 37h159q40 0 28 -49zM755 1080
q11 -28 7 -35q-3 -6 -22 -6q-23 0 -57 31q-126 112 -223 282l-40 70q-12 21 -12 36q0 31 45 31h74q62 0 86 -59z" />
    <glyph glyph-name="Wacute" unicode="&#x1e82;" horiz-adv-x="1933" 
d="M1884 1257l-279 -1206q-11 -50 -65 -50h-233q-52 0 -65 50l-255 982l-255 -982q-13 -50 -65 -50h-237q-54 0 -65 50l-279 1208q-14 61 39 61h151q52 0 62 -47l229 -1078l277 1069q9 35 26 47q12 9 34 9h166q45 0 61 -61l279 -1063l221 1077q10 47 73 47h141q53 0 39 -63z
M917 1556l133 280h236l-220 -280h-149z" />
    <glyph glyph-name="wacute" unicode="&#x1e83;" horiz-adv-x="1479" 
d="M1573 944l-218 -897q-11 -46 -58 -46h-232q-41 0 -53 46l-188 705l-188 -705q-13 -46 -55 -46h-234q-44 0 -55 46l-219 895q-12 51 27 51h160q36 0 44 -37l168 -765h16l191 743q10 39 48 39h196q38 0 48 -39l191 -743h17l162 765q8 37 45 37h159q40 0 28 -49zM621 1194
l133 280h236l-220 -280h-149z" />
    <glyph glyph-name="Wdieresis" unicode="&#x1e84;" horiz-adv-x="1933" 
d="M1884 1257l-279 -1206q-11 -50 -65 -50h-233q-52 0 -65 50l-255 982l-255 -982q-13 -50 -65 -50h-237q-54 0 -65 50l-279 1208q-14 61 39 61h151q52 0 62 -47l229 -1078l277 1069q9 35 26 47q12 9 34 9h166q45 0 61 -61l279 -1063l221 1077q10 47 73 47h141q53 0 39 -63z
M726 1556v205h188v-205h-188zM1099 1556v205h188v-205h-188z" />
    <glyph glyph-name="wdieresis" unicode="&#x1e85;" horiz-adv-x="1479" 
d="M1573 944l-218 -897q-11 -46 -58 -46h-232q-41 0 -53 46l-188 705l-188 -705q-13 -46 -55 -46h-234q-44 0 -55 46l-219 895q-12 51 27 51h160q36 0 44 -37l168 -765h16l191 743q10 39 48 39h196q38 0 48 -39l191 -743h17l162 765q8 37 45 37h159q40 0 28 -49zM510 1270
v205h188v-205h-188zM883 1270v205h188v-205h-188z" />
    <glyph glyph-name="Ygrave" unicode="&#x1ef2;" horiz-adv-x="1366" 
d="M1066 1257l-374 -636v-563q0 -58 -52 -58h-139q-50 0 -50 58v566l-370 628q-9 16 -9 29q0 32 41 32h173q51 0 72 -42l213 -421l217 423q21 40 70 40h173q43 0 43 -30q0 -12 -8 -26zM721 1442q11 -28 7 -35q-3 -6 -22 -6q-23 0 -57 31q-126 112 -223 282l-40 70
q-12 21 -12 36q0 31 45 31h74q62 0 86 -59z" />
    <glyph glyph-name="ygrave" unicode="&#x1ef3;" horiz-adv-x="1024" 
d="M974 951l-330 -1086q-55 -181 -150 -247q-72 -51 -207 -51q-75 0 -139 23q-16 6 -16 33v105q0 22 42 19q1 0 33 -3q27 -3 43 -3q79 0 108 15q44 23 66 103l53 188h-85q-42 0 -56 46l-261 854q-14 46 19 46h187q31 0 40 -36l191 -764h17l203 768q8 32 41 32h172
q42 0 29 -42zM574 1080q11 -28 7 -35q-3 -6 -22 -6q-23 0 -57 31q-126 112 -223 282l-40 70q-12 21 -12 36q0 31 45 31h74q62 0 86 -59z" />
    <glyph glyph-name="endash" unicode="&#x2013;" 
d="M-4 458v145h1139v-145h-1139z" />
    <glyph glyph-name="emdash" unicode="&#x2014;" horiz-adv-x="2048" 
d="M0 458v145h2048v-145h-2048z" />
    <glyph glyph-name="afii00208" unicode="&#x2015;" horiz-adv-x="2048" 
d="M65 458v145h1919v-145h-1919z" />
    <glyph glyph-name="underscoredbl" unicode="&#x2017;" horiz-adv-x="1131" 
d="M-31 -407v130h1193v-130h-1193zM-31 -665v129h1193v-129h-1193z" />
    <glyph glyph-name="quoteleft" unicode="&#x2018;" horiz-adv-x="455" 
d="M321 1220v-209h-193v165q0 133 32 194q42 80 133 121l44 -70q-105 -44 -110 -201h94z" />
    <glyph glyph-name="quoteright" unicode="&#x2019;" horiz-adv-x="455" 
d="M124 1272v209h193v-165q0 -134 -31 -193q-43 -81 -134 -122l-44 71q104 42 110 200h-94z" />
    <glyph glyph-name="quotesinglbase" unicode="&#x201a;" horiz-adv-x="455" 
d="M124 0v209h193v-165q0 -134 -31 -193q-43 -81 -134 -122l-44 71q104 42 110 200h-94z" />
    <glyph glyph-name="quotereversed" unicode="&#x201b;" horiz-adv-x="455" 
d="M331 1272h-94q2 -156 110 -200l-44 -71q-98 44 -135 127q-30 67 -30 188v165h193v-209z" />
    <glyph glyph-name="quotedblleft" unicode="&#x201c;" horiz-adv-x="682" 
d="M276 1220v-209h-193v165q0 133 32 194q42 80 133 121l44 -70q-105 -44 -110 -201h94zM586 1220v-209h-193v165q0 133 32 194q42 80 133 121l44 -70q-105 -44 -110 -201h94z" />
    <glyph glyph-name="quotedblright" unicode="&#x201d;" horiz-adv-x="682" 
d="M87 1272v209h193v-165q0 -134 -31 -193q-43 -81 -134 -122l-44 71q104 42 110 200h-94zM397 1272v209h193v-165q0 -134 -31 -193q-43 -81 -134 -122l-44 71q104 42 110 200h-94z" />
    <glyph glyph-name="quotedblbase" unicode="&#x201e;" horiz-adv-x="682" 
d="M87 0v209h193v-165q0 -134 -31 -193q-43 -81 -134 -122l-44 71q104 42 110 200h-94zM397 0v209h193v-165q0 -134 -31 -193q-43 -81 -134 -122l-44 71q104 42 110 200h-94z" />
    <glyph glyph-name="dagger" unicode="&#x2020;" 
d="M472 -346v1212h-399v160h399v406h180v-406h402v-160h-402v-1212h-180z" />
    <glyph glyph-name="daggerdbl" unicode="&#x2021;" 
d="M475 -346v370h-402v161h402v725h-402v161h402v375h180v-375h403v-161h-403v-725h403v-161h-403v-370h-180z" />
    <glyph glyph-name="bullet" unicode="&#x2022;" horiz-adv-x="717" 
d="M109 718q0 106 73.5 179.5t179.5 73.5q107 0 180.5 -73t73.5 -180t-73.5 -180.5t-180.5 -73.5q-106 0 -179.5 74t-73.5 180z" />
    <glyph glyph-name="ellipsis" unicode="&#x2026;" horiz-adv-x="2048" 
d="M239 0v205h205v-205h-205zM922 0v205h205v-205h-205zM1604 0v205h206v-205h-206z" />
    <glyph glyph-name="perthousand" unicode="&#x2030;" horiz-adv-x="2048" 
d="M320 -54l601 1545h131l-600 -1545h-132zM37 1099q0 380 286 380q288 0 288 -376q0 -395 -286 -395q-288 0 -288 391zM185 1091q0 -258 144 -258q134 0 134 260q0 262 -138 262q-140 0 -140 -264zM763 336q0 380 285 380q153 0 227 -117q62 -97 62 -259q0 -394 -286 -394
q-288 0 -288 390zM911 328q0 -258 144 -258q134 0 134 260q0 262 -138 262q-140 0 -140 -264zM1437 336q0 380 286 380q288 0 288 -376q0 -394 -286 -394q-288 0 -288 390zM1585 328q0 -258 144 -258q134 0 134 260q0 262 -138 262q-140 0 -140 -264z" />
    <glyph glyph-name="minute" unicode="&#x2032;" horiz-adv-x="384" 
d="M128 947l12 274l52 245h206l-53 -245l-105 -274h-112z" />
    <glyph glyph-name="second" unicode="&#x2033;" horiz-adv-x="725" 
d="M128 947l12 274l52 245h206l-53 -245l-105 -274h-112zM411 947l12 274l52 245h206l-53 -245l-105 -274h-112z" />
    <glyph glyph-name="guilsinglleft" unicode="&#x2039;" horiz-adv-x="682" 
d="M291 527l265 -455h-149l-315 455l315 457h149z" />
    <glyph glyph-name="guilsinglright" unicode="&#x203a;" horiz-adv-x="682" 
d="M357 530l-265 454h149l304 -448l-304 -464h-149z" />
    <glyph glyph-name="exclamdbl" unicode="&#x203c;" horiz-adv-x="1024" 
d="M507 902q0 -222 -74 -458q-17 -51 -44 -51h-38q-21 0 -29 21q-3 18 -7 35q-77 252 -77 453v352q0 94 95 94h81q93 0 93 -94v-352zM527 120q0 -88 -31.5 -118t-114.5 -30q-84 0 -114.5 30t-30.5 118q0 92 28.5 122.5t116.5 30.5t116 -28q30 -31 30 -125zM955 902
q0 -222 -74 -458q-17 -51 -44 -51h-38q-21 0 -29 21q-3 18 -7 35q-77 252 -77 453v352q0 94 95 94h81q93 0 93 -94v-352zM975 120q0 -88 -31.5 -118t-114.5 -30q-84 0 -114.5 30t-30.5 118q0 92 28.5 122.5t116.5 30.5t116 -28q30 -31 30 -125z" />
    <glyph glyph-name="radicalex" unicode="&#x203e;" horiz-adv-x="682" 
d="M-31 1227v148h745v-148h-745z" />
    <glyph glyph-name="fraction" unicode="&#x2044;" horiz-adv-x="342" 
d="M-455 -57l1101 1548h157l-1101 -1548h-157z" />
    <glyph glyph-name="nsuperior" unicode="&#x207f;" horiz-adv-x="747" 
d="M82 519v665h130v-69q83 83 208 83q166 0 222 -113q25 -51 25 -160v-406h-141v401q0 157 -133 157q-170 0 -170 -196v-362h-141z" />
    <glyph glyph-name="franc" unicode="&#x20a3;" 
d="M168 246h-168v149h168v1071h869v-173h-675v-454h568v-173h-568v-271h315v-149h-315v-246h-194v246z" />
    <glyph glyph-name="afii08941" unicode="&#x20a4;" 
d="M433 614h278v-148h-282q-33 -144 -161 -275q77 22 141 22q87 0 190 -25q170 -41 238 -41q69 0 187 56l58 -165q-146 -63 -238 -63q-74 0 -218 44q-151 46 -221 46q-165 0 -309 -93l-69 173q194 112 226 321h-209v148h209q-4 31 -41 148h-168v148h126q-23 90 -23 167
q0 194 134 307q127 107 324 107q180 0 297.5 -101t141.5 -278l-179 -27q-13 112 -84 183q-74 75 -184 75q-105 0 -180 -68q-78 -70 -78 -174q0 -58 28 -191h344v-148h-310q26 -105 32 -148z" />
    <glyph glyph-name="peseta" unicode="&#x20a7;" horiz-adv-x="2240" 
d="M51 1466h462q434 0 464 -402h92v310l182 -1v-309h320q85 28 177 28q189 0 307 -102q95 -82 99 -227l-187 1q-12 170 -212 170q-71 0 -129 -27q-74 -34 -74 -99q0 -71 107 -117q44 -19 165 -48q129 -31 189 -59q182 -85 182 -271q0 -158 -141 -254q-125 -85 -290 -85
q-221 0 -352 157l-1 -131q-56 -16 -93 -16q-147 0 -212 78q-37 44 -37 146v711h-102q-63 -235 -289 -299q-78 -22 -274 -22h-159v-598h-194v1466zM245 1295v-528h132q131 0 195 14q207 45 207 250q0 169 -134 234q-62 30 -195 30h-205zM1251 919l-1 -686q0 -82 90 -82
q24 0 52 10q-40 82 -42 177l182 -1q17 -210 245 -210q105 0 181 61q57 46 57 106q0 46 -35 78q-47 43 -214 88q-92 25 -225 74q-167 88 -167 244q0 77 32 140z" />
    <glyph glyph-name="afii61248" unicode="&#x2105;" horiz-adv-x="1813" 
d="M620 1004l123 -16q-20 -126 -101.5 -199t-207.5 -73q-166 0 -255 112q-82 103 -82 273q0 174 80 277q89 113 258 113q252 0 296 -234l-122 -20q-34 151 -169 151q-214 0 -214 -284q0 -285 207 -285q160 0 187 185zM408 -54l802 1545h146l-799 -1545h-149zM1021 371
q0 174 86 277q92 111 262 111q164 0 258 -108q90 -102 90 -269q0 -179 -83 -284q-90 -115 -265 -115q-170 0 -262 111q-86 103 -86 277zM1150 371q0 -119 48 -195q58 -89 171 -89q114 0 171 91q48 76 48 197q0 117 -50 192q-58 88 -169 88q-112 0 -170 -90q-49 -76 -49 -194
z" />
    <glyph glyph-name="afii61289" unicode="&#x2113;" horiz-adv-x="662" 
d="M15 422l177 235v455q0 172 35 254q53 125 199 125q102 0 163 -69q57 -66 57 -170q0 -190 -285 -587v-415q0 -63 4 -82q11 -50 52 -50q47 0 199 107v-162q-111 -87 -225 -87q-199 0 -199 241v225l-79 -98zM361 899q77 133 94 168q51 107 51 184q0 120 -76 120
q-31 0 -46 -26q-23 -41 -23 -219v-227z" />
    <glyph glyph-name="afii61352" unicode="&#x2116;" horiz-adv-x="2197" 
d="M160 1466h195l717 -1136v1136h185v-1466h-194l-721 1131v-1131h-182v1466zM1391 785q0 172 95 277q98 110 268 110q172 0 268 -116q90 -108 90 -283q0 -178 -93 -286q-98 -115 -273 -115q-176 0 -270 122q-85 110 -85 291zM1566 779q0 -107 39 -179q48 -91 146 -91
q95 0 145 89q41 72 41 175q0 105 -40 177q-50 88 -147 88q-95 0 -144 -86q-40 -71 -40 -173zM1410 266h681v-148h-681v148z" />
    <glyph glyph-name="trademark" unicode="&#x2122;" horiz-adv-x="1431" 
d="M813 1128v-423q0 -21 -10.5 -29t-26.5 -8h-45q-23 0 -28 12t-5 25v573q0 18 14.5 26.5t26.5 8.5h98q14 0 26.5 -7.5t16.5 -27.5l107 -406l110 406q10 35 43 35h101q14 0 27.5 -7.5t13.5 -29.5v-571q0 -21 -10.5 -29t-26.5 -8h-45q-23 0 -29 12t-6 25v434l-125 -441
q-10 -30 -37 -30h-35q-28 0 -37 30zM616 1194h-156v-494q0 -20 -12 -26t-23 -6h-47q-22 0 -28 10t-6 24v492h-160q-35 0 -35 35v51q0 33 35 33h432q35 0 35 -33v-51q0 -35 -35 -35z" />
    <glyph glyph-name="Ohm" unicode="&#x2126;" horiz-adv-x="1573" 
d="M496 160q-108 67 -165 130q-181 200 -181 512q0 194 74 350q81 172 237 263q151 88 347 88q336 0 516 -254q131 -185 131 -448q0 -310 -195 -520q-55 -59 -149 -121l364 6v-166h-575v177q78 38 124 78q144 123 198 324q25 93 25 198q0 143 -46 269q-53 147 -153.5 220.5
t-243.5 73.5q-192 0 -296 -120q-146 -168 -146 -440q0 -201 81 -354q89 -168 261 -246v-180h-577v168z" />
    <glyph glyph-name="estimated" unicode="&#x212e;" horiz-adv-x="1229" 
d="M321 531v-371q120 -121 298 -121q254 0 395 246l72 -43q-97 -140 -196 -203q-114 -73 -271 -73q-242 0 -388 163q-141 157 -141 402t141 402q146 163 388 163q245 0 387 -163q132 -152 142 -402h-827zM917 605v297q-128 121 -300 121q-175 0 -296 -122v-296h596z" />
    <glyph glyph-name="oneeighth" unicode="&#x215b;" horiz-adv-x="1708" 
d="M228 -57l1101 1548h157l-1101 -1548h-157zM331 733v554q-102 -81 -224 -113v123q65 20 142.5 76t118.5 111h108v-751h-145zM1225 367q-130 47 -130 162q0 191 264 191q278 0 278 -193q0 -115 -140 -160q167 -41 167 -184q0 -115 -95 -178q-83 -54 -203 -54t-202 52
q-97 61 -97 175q0 148 158 189zM1244 519q0 -102 121 -102q50 0 84 23q40 27 40 74q0 101 -126 101q-47 0 -81 -24q-38 -27 -38 -72zM1216 190q0 -127 149 -127q63 0 104 29q47 33 47 93q0 62 -48 96q-42 30 -106 30q-146 0 -146 -121z" />
    <glyph glyph-name="fi" unicode="&#xf001;" horiz-adv-x="1033" 
d="M625 1252q0 -21 -35 -19q-32 2 -114 2q-101 0 -101 -106q0 -13 2 -29l15 -126h186q29 0 29 -27v-127q0 -32 -29 -32h-178v-757q0 -31 -30 -31h-166q-29 0 -29 27v761h-101q-29 0 -29 27v108q0 19 30 31l48 20q46 19 46 60v81q0 298 258 298q102 0 173 -23q25 -8 25 -37
v-101zM943 1178q0 -31 -30 -31h-166q-29 0 -29 27v157q0 31 29 31h166q30 0 30 -27v-157zM942 31q0 -31 -29 -31h-167q-29 0 -29 27v924q0 32 30 32h166q29 0 29 -27v-925z" />
    <glyph glyph-name="fl" unicode="&#xf002;" horiz-adv-x="1093" 
d="M625 1252q0 -21 -35 -19q-32 2 -114 2q-101 0 -101 -106q0 -13 2 -29l15 -126h186q29 0 29 -27v-127q0 -32 -29 -32h-178v-757q0 -31 -30 -31h-166q-29 0 -29 27v761h-101q-29 0 -29 27v108q0 19 30 31l48 20q46 19 46 60v81q0 298 258 298q102 0 173 -23q25 -8 25 -37
v-101zM1062 59q0 -30 -39 -41l-57 -15q-49 -13 -93 -13q-78 0 -119 61q-37 53 -37 136v1190q0 36 30 36h169q30 0 30 -36v-1134q0 -58 53 -70l31 -7q32 -7 32 -39v-68z" />
    <glyph glyph-name="glyph4" horiz-adv-x="597" 
 />
    <glyph glyph-name="glyph5" horiz-adv-x="597" 
 />
    <glyph glyph-name="Delta" horiz-adv-x="1253" 
d="M1226 0h-1200l628 1387zM990 82l-399 967l-440 -967h839z" />
    <glyph glyph-name="pi1" horiz-adv-x="1124" 
d="M0 1063h1124v-158h-162v-905h-189v905h-426v-905h-188v905h-159v158z" />
    </font>
</defs>
</svg>
