<?xml version="1.0" standalone="no"?>
<!DOCTYPE svg PUBLIC "-//W3C//DTD SVG 1.1//EN" "http://www.w3.org/Graphics/SVG/1.1/DTD/svg11.dtd" >
<svg>
<metadata>
Created by FontForge 20090622 at Tue Feb 28 14:38:51 2017
 By deploy user
Copyright &#194;&#169; 2016 by AlefAlefAlef. All rights reserved.
</metadata>
<defs>
<font id="GveretLevinAlefAlefAlef-Regular" horiz-adv-x="0" >
  <font-face 
    font-family="Gveret Levin AlefAlefAlef"
    font-weight="400"
    font-style="italic"
    font-stretch="normal"
    units-per-em="1000"
    panose-1="0 0 5 0 0 0 0 0 0 0"
    ascent="800"
    descent="-200"
    bbox="-479.41 -374.696 883.345 1032.41"
    underline-thickness="60"
    underline-position="-80"
    slope="-16"
    unicode-range="U+0020-U+FB4B"
  />
<missing-glyph horiz-adv-x="500" 
d="M410 800v-1000h-317v1000h317zM333 733h-165v-33h65v-37h-66v-33h166v33h-66v37h66v33zM267 604h-100v-104h166v34h-66v70zM233 570v-36h-33v36h33zM333 473h-166v-33h66v-37h-66v-33h100v70h66v33zM333 413h-33v-66h-133v-34h166v100zM333 291h-100v-56h34v23h33v-47
h-100v80h-33v-113h166v113zM333 118h-166v-113h166v113zM300 85v-47h-100v47h100zM333 -18h-166v-33h70l-70 -47v-33h166v33h-102l70 47h32v33z" />
    <glyph glyph-name=".notdef" horiz-adv-x="500" 
d="M410 800v-1000h-317v1000h317zM333 733h-165v-33h65v-37h-66v-33h166v33h-66v37h66v33zM267 604h-100v-104h166v34h-66v70zM233 570v-36h-33v36h33zM333 473h-166v-33h66v-37h-66v-33h100v70h66v33zM333 413h-33v-66h-133v-34h166v100zM333 291h-100v-56h34v23h33v-47
h-100v80h-33v-113h166v113zM333 118h-166v-113h166v113zM300 85v-47h-100v47h100zM333 -18h-166v-33h70l-70 -47v-33h166v33h-102l70 47h32v33z" />
    <glyph glyph-name=".null" 
 />
    <glyph glyph-name="nonmarkingreturn" horiz-adv-x="333" 
 />
    <glyph glyph-name="space" unicode=" " horiz-adv-x="290" 
 />
    <glyph glyph-name="exclam" unicode="!" horiz-adv-x="230" 
d="M59 215q-33 16 -17 74q20 75 146 311q36 68 89 38q22 -13 26 -38.5t-15 -57.5q-54 -82 -88.5 -146t-69.5 -149q-10 -25 -32.5 -33t-38.5 1zM14 -7q-57 0 -57 74q0 30 21.5 51.5t52.5 21.5q36 0 54.5 -20.5t18.5 -52.5q0 -29 -29 -51.5t-61 -22.5z" />
    <glyph glyph-name="quotedbl" unicode="&#x22;" horiz-adv-x="333" 
d="M125 447q-30 10 -15 55q59 176 63 200q5 26 25.5 43.5t38.5 12.5q57 -15 39 -73q-24 -81 -76 -163t-75 -75zM259 447q-30 10 -15 55q61 182 64 200q5 26 25.5 43.5t38.5 12.5q27 -7 36.5 -27t1.5 -46q-24 -81 -76 -163t-75 -75z" />
    <glyph glyph-name="numbersign" unicode="#" horiz-adv-x="550" 
d="M504 406q22 0 37.5 -11.5t12.5 -28.5q-3 -16 -20 -29.5t-43 -14.5q-30 0 -81 -3q-2 -6 -26 -64q79 0 87 -1q17 -3 27.5 -17.5t8.5 -27.5q-3 -16 -23 -30t-33 -14q-46 0 -102 -1q-34 -94 -45 -127q-8 -25 -33.5 -37t-39.5 -6q-25 10 -15 40l46 129q-14 0 -44 -0.5
t-45 -0.5l-46 -121q-24 -50 -64 -52q-24 -1 -33.5 16t0.5 46l43 108q-5 0 -16 -0.5t-17 -0.5q-20 -1 -29.5 10t-9.5 27q0 20 16.5 33.5t37.5 15.5q16 1 53 3l11.5 30l13.5 34q-40 -1 -65 1q-30 4 -20 48q4 15 19 28t37 13q34 0 65 1q29 69 46 115q7 19 28.5 33.5t38.5 12.5
q29 -5 11 -67q-6 -19 -32 -93q15 0 46 0.5t45 0.5q46 119 47 120q22 45 67 45q16 0 26 -14t1 -35l-48 -115q31 1 59 1zM296 253l23 63l-90 -3q-16 -42 -23 -62q15 1 45 1.5t45 0.5z" />
    <glyph glyph-name="dollar" unicode="$" horiz-adv-x="500" 
d="M352 424q-4 20 -26 42l-42 -120q79 -54 108 -85q70 -75 44 -154q-14 -44 -45.5 -74.5t-69.5 -42t-81.5 -14.5t-82.5 8l-12 -35q-10 -32 -45 -22q-37 11 -23 49l12 33q-58 34 -81 98.5t1 109.5q36 71 81 51q37 -17 22 -65q-18 -54 15 -92l67 177q-64 39 -98 93.5t-6 118.5
q20 48 75 69t131 10l11 39q5 18 21 30.5t29 6.5t17.5 -23.5t-0.5 -29.5l-14 -41q49 -27 85 -98q31 -64 -13 -87q-24 -13 -48 1t-32 47zM189 463q-15 -42 39 -80l40 112q-65 8 -79 -32zM331 127q25 66 -79 128l-63 -181q44 -12 86.5 3.5t55.5 49.5z" />
    <glyph glyph-name="percent" unicode="%" horiz-adv-x="620" 
d="M164 296q-52 0 -77 35t-23 90q2 61 48.5 111t102.5 50q106 0 99 -123q-3 -62 -45 -112.5t-105 -50.5zM51 3q-9 7 -8.5 24.5t11.5 32.5l441 486q14 16 33 21t38 -5q11 -7 10 -25t-11 -32q-41 -57 -235 -263.5t-220 -237.5q-7 -9 -28 -9t-31 8zM171 377q26 0 45.5 25.5
t21.5 54.5q2 46 -32 46q-18 0 -37.5 -20.5t-22.5 -43.5q-3 -24 3 -43t22 -19zM406 -13q-52 0 -77.5 35t-22.5 90q4 61 50 111t101 50q54 0 79 -33t21 -91q-4 -62 -46 -112t-105 -50zM412 64q28 0 49 27t23 56q2 51 -34 51q-5 0 -10.5 -2t-10 -5.5t-7.5 -6.5t-6 -6.5t-4 -4.5
t-2 -6.5t-3 -8.5q-8 -11 -13 -11q-1 0 -4 -6t-6 -16t-3 -20q-1 -15 8.5 -28t22.5 -13z" />
    <glyph glyph-name="ampersand" unicode="&#x26;" horiz-adv-x="500" 
d="M397 149l60 -114q11 -21 4.5 -43t-27.5 -29q-51 -18 -72 25l-39 79q-86 -79 -173.5 -94t-141.5 33q-30 25 -39 71t20 110.5t103 120.5q40 31 82 59l-33 65q-11 18 -16.5 32.5t-5.5 27.5t0.5 19.5t5.5 20.5t6 18q12 44 69 71.5t120 14.5q60 -14 94 -59.5t23 -112.5
q-5 -33 -30.5 -54.5t-94.5 -63.5l-15 -9l55 -103q23 31 55 87q11 22 34 33.5t43 -6.5q9 -11 11 -24t-4 -28t-12 -25.5t-19 -29t-18 -26.5q-22 -36 -45 -66zM270 548q-67 -12 -13 -132q11 6 28 14t24 12t16 10t13.5 12t8.5 15q12 25 -13 50t-64 19zM77 133q-4 -55 43 -61
q59 -8 142 62q10 8 19 17l-67 134q-15 -9 -37 -24q-42 -27 -70 -64.5t-30 -63.5z" />
    <glyph glyph-name="quotesingle" unicode="'" horiz-adv-x="199" 
d="M125 447q-30 10 -15 55q61 182 64 200q5 26 25.5 43.5t38.5 12.5q27 -7 36.5 -27t1.5 -46q-24 -81 -76 -163t-75 -75z" />
    <glyph glyph-name="parenleft" unicode="(" horiz-adv-x="309" 
d="M316 699q36 24 57.5 22t31.5 -24q11 -29 -36 -54q-11 -6 -34.5 -33.5t-53.5 -71.5t-59.5 -109.5t-46.5 -133.5q-38 -162 31 -350q10 -32 2 -55t-25 -27q-21 -5 -37.5 9t-24.5 32q-21 41 -31 62.5t-23.5 60t-17.5 70.5t-4 78t9 97q48 271 262 427z" />
    <glyph glyph-name="parenright" unicode=")" horiz-adv-x="310" 
d="M3 -116q-36 -24 -57.5 -22t-31.5 24q-11 29 36 54q11 6 34.5 33.5t53.5 71.5t59.5 109.5t46.5 133.5q38 162 -31 350q-10 32 -2 55t25 27q21 5 37.5 -9t24.5 -32q21 -41 31 -62.5t23.5 -60t17.5 -70.5t4 -78t-9 -97q-48 -271 -262 -427z" />
    <glyph glyph-name="asterisk" unicode="*" horiz-adv-x="319" 
d="M370 515q3 -23 -39 -34q-15 -4 -50 -7q30 -51 37 -68q4 -9 -2.5 -22.5t-14.5 -17.5q-8 -5 -20 1t-18 19q-5 9 -32 45q-13 -25 -22 -38q-22 -35 -45 -25q-13 6 -18.5 19.5t1.5 31.5l5.5 11.5t10 19.5t10.5 21q-8 0 -24 -0.5t-23 -0.5q-25 -1 -39.5 10t-14.5 31q0 17 15 29
t40 10q22 -2 33 -2q-14 26 -27 57q-7 14 -3.5 30.5t18.5 24.5q9 5 19 -1.5t16 -18.5l35 -61q8 23 12 41q6 24 22 34t32 5q39 -12 23 -63q-10 -29 -19 -50q34 2 38 2q40 1 44 -33z" />
    <glyph glyph-name="plus" unicode="+" horiz-adv-x="464" 
d="M421 327q13 0 24.5 -12.5t8.5 -29.5q-2 -15 -19 -31.5t-36 -16.5l-48 -1h-87q-41 -129 -45 -137q-18 -39 -61 -32q-14 2 -22 16.5t-6 31.5q4 16 38 121q-105 0 -116 2q-42 6 -35 51q2 15 16.5 27t31.5 15q8 2 134 0l20 60.5l17.5 53l8.5 25.5q4 13 20.5 23.5t32.5 7.5
q14 -3 25.5 -20t5.5 -36q-2 -5 -7 -21l-13.5 -44l-15.5 -51z" />
    <glyph glyph-name="comma" unicode="," horiz-adv-x="170" 
d="M-61 -135q-31 10 -18 55q3 11 18 57.5l27 84.5t14 48q5 27 25 44t39 12q60 -15 44 -73q-22 -80 -73 -158t-76 -70z" />
    <glyph glyph-name="hyphen" unicode="-" horiz-adv-x="357" 
d="M298 237q-231 0 -238 1q-42 6 -42 51q0 15 13 27t29 15q23 2 66 1t106.5 -3t74.5 -2q13 0 26 -12.5t13 -29.5q0 -15 -14.5 -31.5t-33.5 -16.5z" />
    <glyph glyph-name="period" unicode="." horiz-adv-x="180" 
d="M15 -7q-57 0 -57 74q0 30 21.5 51.5t52.5 21.5q36 0 54.5 -20.5t18.5 -52.5q0 -29 -29 -51.5t-61 -22.5z" />
    <glyph glyph-name="slash" unicode="/" horiz-adv-x="310" 
d="M-130 -111q-11 9 -12.5 31t9.5 39l145.5 204l198.5 276.5t148 194.5q15 18 35.5 22t47.5 -10q12 -8 11 -24.5t-12 -32.5q-400 -572 -505 -697q-12 -14 -32 -14.5t-34 11.5z" />
    <glyph glyph-name="zero" unicode="0" horiz-adv-x="547" 
d="M216 -10q-106 0 -152.5 75.5t-35.5 195.5q8 86 53 166t115.5 131t145.5 51q110 0 159 -71t37 -197q-8 -84 -48.5 -163.5t-113.5 -133.5t-160 -54zM218 109q77 0 137.5 78t68.5 165q11 142 -90 142q-19 0 -31.5 -4t-17 -8t-10 -11.5t-7.5 -9.5q-4 -4 -24.5 -41.5
t-25.5 -44.5t-10.5 -12t-8.5 -6.5t-11 -3.5t-10 -3q-13 -4 -24.5 -41t-15.5 -82q-3 -44 20 -81t60 -37z" />
    <glyph glyph-name="one" unicode="1" horiz-adv-x="271" 
d="M60 -14q-19 -4 -42 5.5t-29 27.5q-4 13 -1 27q22 116 42 172q33 98 69 184q28 67 69 141q59 102 117 56q24 -19 28.5 -44t-3.5 -46t-25 -47q-67 -106 -122 -245q-35 -86 -49 -137q-1 -5 -6.5 -26t-9 -31t-14 -22t-24.5 -15z" />
    <glyph glyph-name="two" unicode="2" horiz-adv-x="430" 
d="M80 -12q-56 14 -82 57t-12 100q8 33 35.5 64.5t64 57l74 49.5t73 53.5t53.5 57.5q60 94 17 89q-16 -2 -37 -14l-37.5 -25.5l-50 -33t-32.5 -15.5q-19 -4 -34.5 4.5t-22.5 23.5q-9 18 -4.5 42t20.5 35q5 4 21.5 15.5l28 19.5t32.5 21.5t36 20t37.5 14.5t37 6.5t35.5 -4.5
q115 -38 107 -148q-3 -38 -21.5 -73.5t-33 -51.5t-40.5 -40q-28 -26 -114.5 -81.5t-104.5 -70.5q-31 -25 -35 -41q-1 -5 -1 -11q2 -27 45 -24q153 11 178 9q19 -2 28 -11q15 -15 10 -37q-8 -36 -66 -52t-115 -15t-90 9z" />
    <glyph glyph-name="three" unicode="3" horiz-adv-x="433" 
d="M30 27q-103 85 -52 133q15 15 32 16t28.5 -7t18.5 -20q16 -29 47.5 -47t64 -20.5t61.5 19.5t40 68q3 19 4 41t-12 45t-38 32q-26 8 -42.5 30t-8.5 48q3 10 11 19.5t21.5 17l23 12.5t26 12t20.5 9q60 28 62 59q2 24 -30 31q-39 8 -96 -18q-27 -13 -49.5 4.5t-27.5 39.5
q-8 42 51 64t117 12q63 -12 103 -44.5t41 -89.5q1 -45 -35 -83t-85 -54q-11 -4 -13.5 -11t0 -13t5.5 -9q63 -70 61 -154t-56 -130q-61 -53 -149 -55.5t-144 43.5z" />
    <glyph glyph-name="four" unicode="4" horiz-adv-x="470" 
d="M442 594q83 -20 43 -126l-131 -351q-49 -130 -94 -132l-12 3q-26 7 -33.5 33t1.5 62t18.5 63t22.5 54q-146 65 -184 165.5t39 231.5q13 21 30.5 25t29 -2.5t17.5 -14.5q25 -36 5 -105q-12 -39 -13 -66.5t11 -46t23 -27t34 -22.5q27 -16 51 -24l68 208q10 33 28.5 51
t31.5 19z" />
    <glyph glyph-name="five" unicode="5" horiz-adv-x="466" 
d="M302 -11q-70 -26 -148 -9.5t-127 63.5q-26 23 -35.5 45t0.5 39q28 37 85 1q37 -24 83 -34t85.5 1.5t53.5 45.5q10 26 2.5 60t-25.5 57q-26 32 -90 81t-75 59q-29 26 -29 67q-1 56 34.5 88t93.5 41q47 8 113.5 5.5t112.5 -14.5q28 -7 39.5 -23.5t7.5 -33.5t-11 -30
t-13 -17q-7 -4 -105.5 2.5t-114.5 1.5q-14 -4 -21 -11t-3.5 -16.5t20.5 -17.5q56 -26 111.5 -91.5t70.5 -134.5q15 -68 -17 -133.5t-98 -91.5z" />
    <glyph glyph-name="six" unicode="6" horiz-adv-x="559" 
d="M565 526q32 -22 36 -52.5t-18 -40.5q-8 -4 -24.5 0t-42.5 11.5t-47 9.5q-74 6 -154.5 -20.5t-129.5 -78.5q-50 -53 -40 -137q36 34 80 54q45 23 103.5 18t102.5 -44q53 -47 56 -113t-52 -115q-37 -31 -104 -40t-141 16t-116 85q-57 79 -39.5 197.5t98.5 188.5
q60 52 149 76t165.5 18.5t117.5 -33.5zM353 174q-28 12 -51 14.5t-56 -10t-70 -44.5q23 -31 54 -44q85 -35 139 16q14 14 8.5 37t-24.5 31z" />
    <glyph glyph-name="seven" unicode="7" horiz-adv-x="485" 
d="M485 303q7 -56 -113 -51q-35 -55 -103 -133q-72 -83 -127 -110q-29 -14 -58.5 -15t-44.5 18q-5 8 -5.5 16.5t4.5 17.5t10 16t16 17t18 15.5l20 15.5q94 73 149 145q-18 -1 -145 -22q-42 -7 -60 1.5t-23 38.5q-3 17 14 35t63 31q98 28 210 28q16 57 -4 78t-79 -1
q-61 -25 -99 -20q-34 4 -39 20q-8 26 24.5 54.5t75.5 44.5q5 2 13 4.5t32 8t46 8t49.5 0.5t48.5 -10.5t37 -28.5t20 -51q7 -56 -14 -119q60 -16 64 -52z" />
    <glyph glyph-name="eight" unicode="8" horiz-adv-x="426" 
d="M337 613q65 -7 97 -56.5t20 -122.5q-15 -88 -154 -130q63 -100 38 -197q-35 -136 -236 -125q-68 4 -103 62t-9 154q17 65 64 102.5t99 49.5q-18 19 -27 54.5t-4 65.5q12 81 70 116.5t145 26.5zM228 466q-6 -41 20 -90q45 10 65 24t29 40q9 25 0.5 52.5t-30.5 31.5
q-29 6 -54 -9t-30 -49zM89 177q-15 -41 3 -68.5t49 -29.5q85 -5 102 61q6 25 0 49.5t-20 51t-15 27.5q-45 -8 -74 -28.5t-45 -62.5z" />
    <glyph glyph-name="nine" unicode="9" horiz-adv-x="534" 
d="M458 433q57 -79 39.5 -197.5t-98.5 -188.5q-60 -52 -149 -76t-165.5 -18.5t-117.5 33.5q-32 22 -36 52.5t18 40.5q8 4 24.5 0t42.5 -11.5t47 -9.5q74 -6 154.5 20.5t129.5 78.5q50 53 40 137q-36 -34 -80 -54q-45 -23 -103.5 -18t-102.5 44q-53 47 -56 113t52 115
q37 31 104 40t141 -16t116 -85zM179 338q28 -12 51 -14.5t56 10t70 44.5q-23 31 -54 44q-85 35 -139 -16q-14 -14 -8.5 -37t24.5 -31z" />
    <glyph glyph-name="colon" unicode=":" horiz-adv-x="210" 
d="M125 325q-57 0 -57 74q0 30 21.5 51.5t52.5 21.5q36 0 54.5 -20.5t18.5 -52.5q0 -29 -29 -51.5t-61 -22.5zM25 -7q-57 0 -57 74q0 30 21.5 51.5t52.5 21.5q36 0 54.5 -20.5t18.5 -52.5q0 -29 -29 -51.5t-61 -22.5z" />
    <glyph glyph-name="semicolon" unicode=";" horiz-adv-x="190" 
d="M115 325q-57 0 -57 74q0 30 21.5 51.5t52.5 21.5q36 0 54.5 -20.5t18.5 -52.5q0 -29 -29 -51.5t-61 -22.5zM-31 -135q-31 10 -18 55q3 11 18 57.5l27 84.5t14 48q5 27 25 44t39 12q60 -15 44 -73q-22 -80 -73 -158t-76 -70z" />
    <glyph glyph-name="less" unicode="&#x3c;" horiz-adv-x="439" 
d="M425 437q20 -39 -22 -71q-28 -21 -128.5 -55t-114.5 -40q130 -51 183 -86q13 -8 20 -13.5t15 -14.5t7.5 -16.5t-3.5 -18.5q-10 -20 -32 -25t-44 7l-240 131q-25 13 -27 38t19 42q62 52 287 128q21 7 33 9.5t26 0t21 -15.5z" />
    <glyph glyph-name="equal" unicode="=" horiz-adv-x="467" 
d="M422 322q-321 0 -328 1q-42 6 -42 51q0 14 13 26.5t29 15.5q27 2 89 1t150.5 -3t97.5 -2q13 0 26 -12.5t13 -29.5q0 -15 -14.5 -31.5t-33.5 -16.5zM377 161q-321 0 -328 1q-42 6 -42 51q0 15 13 27t29 15q27 2 89 1t150.5 -3t97.5 -2q13 0 26 -12.5t13 -29.5
q0 -15 -14.5 -31.5t-33.5 -16.5z" />
    <glyph glyph-name="greater" unicode="&#x3e;" horiz-adv-x="440" 
d="M377 327q25 -13 27 -38t-19 -42q-62 -52 -287 -128q-21 -7 -33 -9.5t-26 0t-21 15.5q-20 39 22 71q28 21 128.5 55t114.5 40q-130 51 -183 86q-13 8 -20 13.5t-15 14.5t-7.5 16.5t3.5 18.5q10 20 32 25t44 -7z" />
    <glyph glyph-name="question" unicode="?" horiz-adv-x="460" 
d="M208 193q-51 12 -42 71q6 42 42.5 79t76 58.5t73.5 45.5t37 44q4 29 -33 49.5t-83 19.5q-76 -1 -112 -100q-7 -18 -27.5 -28t-35.5 -2q-44 24 -30 77q15 57 74.5 107t134.5 48q88 -2 150.5 -53.5t62.5 -108.5q0 -45 -21 -77.5t-52.5 -51.5t-63.5 -35.5t-57.5 -41.5
t-30.5 -59q-4 -24 -26 -34.5t-37 -7.5zM176 -7q-57 0 -57 74q0 30 21.5 51.5t52.5 21.5q36 0 54.5 -20.5t18.5 -52.5q0 -29 -29 -51.5t-61 -22.5z" />
    <glyph glyph-name="at" unicode="@" horiz-adv-x="809" 
d="M491 635q95 0 164 -50t95.5 -134t2.5 -180q-28 -115 -95 -171t-126 -33q-32 12 -56 54q-35 -32 -87 -40t-93 12q-55 27 -66 93t32 156q23 46 54 78t63 47t61 20t54 2q42 -5 54 -51q8 8 15 11q38 13 38 -19q-1 -15 -26 -99q-24 -81 -20 -124q5 -53 33 -53q30 2 58 56
q13 27 21 61q26 109 -26.5 185t-165.5 76q-114 0 -203 -72t-122 -189q-33 -118 14 -187.5t161 -59.5q135 12 139 -27q3 -29 -34.5 -49t-127.5 -26q-71 -4 -131.5 23t-95 75.5t-47 113.5t12.5 137q48 151 177.5 257.5t272.5 106.5zM360 178q12 -4 30.5 -6.5t40 11t28.5 40.5
q4 22 16 60.5t13 46.5q9 55 -20 62q-27 4 -58.5 -18.5t-55.5 -77.5q-39 -92 6 -118z" />
    <glyph glyph-name="bracketleft" unicode="[" horiz-adv-x="299" 
d="M95 -128q-16 0 -37 8.5t-45 31t-29.5 61.5t8.5 101l34 129l62 227t41 133q24 60 74 100.5t112 45.5q44 3 70 -6t22 -37q-2 -15 -8 -26t-11.5 -16t-17.5 -7.5t-18.5 -3t-23 0t-22.5 0.5q-33 0 -56.5 -24.5t-32.5 -61.5l-125 -458q-14 -45 -6 -69t44 -24q32 0 51 -16
t15 -49q-1 -7 -3 -13t-6.5 -10t-8.5 -7t-11.5 -5t-12 -3t-14.5 -1.5t-14 -0.5h-15.5h-15.5z" />
    <glyph glyph-name="backslash" unicode="\" horiz-adv-x="370" 
d="M294 -145q-16 -5 -34 8t-24 35l-104 382.5l-88 316.5q-7 27 2.5 51.5t35.5 33.5q15 5 30 -7.5t22 -33.5q37 -106 105 -359.5t92 -366.5q3 -14 -10 -34.5t-27 -25.5z" />
    <glyph glyph-name="bracketright" unicode="]" horiz-adv-x="300" 
d="M213 709q16 0 37 -8.5t45 -31t29.5 -61.5t-8.5 -101l-34 -129l-62 -227t-41 -133q-24 -60 -74 -100.5t-112 -45.5q-44 -3 -70 6t-22 37q2 15 8 26t11.5 16t17.5 7.5t18.5 3t23 0t22.5 -0.5q33 0 56.5 24.5t32.5 61.5l125 458q14 45 6 69t-44 24q-32 0 -51 16t-15 49
q1 7 3 13t6.5 10t8.5 7t11.5 5t12 3t14.5 1.5t14 0.5h15.5h15.5z" />
    <glyph glyph-name="asciicircum" unicode="^" horiz-adv-x="330" 
d="M363 455q7 -17 -6.5 -37.5t-34.5 -22.5q-11 -2 -24 9t-17 27q-5 15 -35 146l-94 -120q-16 -21 -40 -35t-40 -11q-17 3 -23.5 21t3.5 33q13 20 67 85.5t61 76.5q13 21 37 37t48 13q14 -1 27.5 -14.5t17.5 -24.5t26.5 -92.5t26.5 -90.5z" />
    <glyph glyph-name="underscore" unicode="_" horiz-adv-x="430" 
d="M321 -3q-351 0 -358 1q-42 6 -42 51q0 15 13 27t29 15q29 2 97 1t164.5 -3t105.5 -2q13 0 26 -12.5t13 -29.5q0 -15 -14.5 -31.5t-33.5 -16.5z" />
    <glyph glyph-name="braceleft" unicode="{" horiz-adv-x="340" 
d="M388 709q22 1 41 1.5t30.5 -9.5t9.5 -30q-1 -12 -4 -20.5t-9.5 -13.5l-11 -8.5t-15.5 -4.5t-15.5 -1.5t-19 0t-18.5 0.5q-33 0 -64 -29.5t-41 -65.5q-29 -102 -60 -197q-11 -32 -71 -52q43 -17 37 -53q-3 -18 -10 -42t-19 -58.5t-18 -55.5q-14 -45 -2.5 -74t48.5 -29
q29 0 48.5 -13t16.5 -42q-2 -15 -7.5 -24t-18.5 -12.5t-20.5 -4.5t-28.5 0t-28 1q-16 0 -36.5 8.5t-44 31t-27.5 61.5t12 101q9 27 20 64.5l17 56.5q5 16 -20 30t-38 14q-9 0 -18.5 12.5t-4.5 27.5q5 17 19 28t29 11t45.5 12t38.5 33q6 16 34 101.5t33 98.5q22 61 74 100.5
t117 45.5z" />
    <glyph glyph-name="bar" unicode="|" horiz-adv-x="187" 
d="M-50 -118q-14 5 -19.5 18.5t-0.5 28.5l246 767q5 17 20 23.5t33 0.5q23 -7 34 -26t4 -39l-271 -751q-13 -34 -46 -22z" />
    <glyph glyph-name="braceright" unicode="}" horiz-adv-x="340" 
d="M328 342q9 0 18.5 -12.5t4.5 -27.5q-5 -17 -19 -28t-29 -11t-45.5 -12t-38.5 -33q-6 -16 -34 -101.5t-33 -98.5q-22 -61 -74 -100.5t-117 -45.5q-22 -1 -41 -1.5t-30.5 9.5t-9.5 30q1 12 4 20.5t9.5 13.5l11 8.5t15.5 4.5t15.5 1.5t19 0t18.5 -0.5q33 0 64 29.5t41 65.5
q29 102 60 197q11 32 71 52q-43 17 -37 53q3 18 10 42t19 58.5t18 55.5q14 45 2.5 74t-48.5 29q-29 0 -48.5 13t-16.5 42q2 15 7.5 24t18.5 12.5t20.5 4.5t28.5 0t28 -1q16 0 36.5 -8.5t44 -31t27.5 -61.5t-12 -101q-9 -27 -20 -64.5l-17 -56.5q-5 -16 20 -30t38 -14z" />
    <glyph glyph-name="asciitilde" unicode="~" horiz-adv-x="470" 
d="M71 191q-51 1 -48 63q3 68 45 98q53 37 96 33q18 -1 37 -11.5t26.5 -17.5l23.5 -23l19.5 -20.5t18.5 -19t14.5 -10t18.5 -6.5q13 -2 27.5 9.5t15.5 29.5q1 24 17 38.5t39 13.5q31 -1 26 -58q-4 -56 -43 -85.5t-94 -26.5q-32 2 -57 15t-37 28.5t-27.5 30t-30.5 18.5
t-28 -9.5t-14 -34.5q-1 -28 -13 -42t-32 -13z" />
    <glyph glyph-name="copyright" unicode="&#xa9;" horiz-adv-x="692" 
d="M403 602q134 0 215.5 -94t54.5 -223q-29 -137 -136.5 -233.5t-237.5 -96.5q-132 0 -214.5 100t-57.5 230q62 317 376 317zM584 285q19 106 -34.5 175t-157.5 69q-226 0 -287 -244q-24 -96 35.5 -171t163.5 -75q103 0 182 70t98 176zM277 109q-53 25 -69 84.5t14 141.5
q31 79 87 109.5t110 24.5q31 -4 53.5 -26t27.5 -50q5 -29 -9 -53q-10 -18 -25 -23.5t-26 -0.5q-13 5 -17.5 20t2.5 30q4 8 -2.5 18t-17.5 12q-25 5 -56 -20.5t-49 -82.5q-28 -92 17 -117q13 -7 32.5 6t25.5 31q4 13 21 21t29 3q13 -5 19 -20t1 -27q-17 -46 -66.5 -75.5
t-101.5 -5.5z" />
    <glyph glyph-name="degree" unicode="&#xb0;" horiz-adv-x="360" 
d="M247 406q-67 0 -108 48.5t-29 115.5q12 65 61 100t118 35q67 0 102 -44t23 -111t-56.5 -105.5t-110.5 -38.5zM254 486q29 0 50.5 18.5t26.5 47.5t-10 47.5t-44 18.5t-50.5 -18.5t-27.5 -47.5t9.5 -47.5t45.5 -18.5z" />
    <glyph glyph-name="periodcentered" unicode="&#xb7;" horiz-adv-x="180" 
d="M77 228q-57 0 -57 74q0 30 21.5 51.5t52.5 21.5q36 0 54.5 -20.5t18.5 -52.5q0 -29 -29 -51.5t-61 -22.5z" />
    <glyph glyph-name="multiply" unicode="&#xd7;" horiz-adv-x="403" 
d="M386 432q9 -12 5 -29t-16 -30q-6 -7 -111 -94l27 -48.5l24 -43l12 -20.5q8 -9 2 -27.5t-22 -28.5q-10 -9 -33 -7t-33 18l-56 93l-111 -90q-11 -9 -28.5 -9t-28.5 11q-9 8 -6.5 31t17.5 37q10 9 112 94q-60 102 -63 111q-14 36 27 62q14 9 30.5 6.5t26.5 -14.5
q7 -9 59 -98q83 69 101 82q38 27 65 -6z" />
    <glyph glyph-name="divide" unicode="&#xf7;" horiz-adv-x="467" 
d="M245 374q-51 0 -51 66q0 27 19.5 46.5t47.5 19.5q32 0 48.5 -18.5t16.5 -47.5q0 -27 -26 -46.5t-55 -19.5zM410 245q-341 0 -348 1q-42 6 -42 51q0 15 13 27t29 15q29 2 94.5 1t159.5 -3t103 -2q13 0 26 -12.5t13 -29.5q0 -15 -14.5 -31.5t-33.5 -16.5zM186 73
q-51 0 -51 66q0 27 19.5 46.5t47.5 19.5q32 0 48.5 -18.5t16.5 -47.5q0 -27 -26 -46.5t-55 -19.5z" />
    <glyph glyph-name="uni05B0" unicode="&#x5b0;" 
d="M251 -84q-29 0 -29 38q0 15 10.5 26t26.5 11q18 0 27.5 -10.5t9.5 -26.5q0 -15 -14.5 -26.5t-30.5 -11.5zM227 -197q-29 0 -29 38q0 15 10.5 26t26.5 11q18 0 27.5 -10.5t9.5 -26.5q0 -15 -14.5 -26.5t-30.5 -11.5z" />
    <glyph glyph-name="uni05B1" unicode="&#x5b1;" 
d="M136 -80q-29 0 -29 38q0 15 10.5 26t26.5 11q18 0 27.5 -10.5t9.5 -26.5q0 -15 -14.5 -26.5t-30.5 -11.5zM247 -87q-29 0 -29 38q0 15 10.5 26t26.5 11q18 0 27.5 -10.5t9.5 -26.5q0 -15 -14.5 -26.5t-30.5 -11.5zM352 -91q-29 0 -29 38q0 15 10.5 26t26.5 11
q18 0 27.5 -10.5t9.5 -26.5q0 -15 -14.5 -26.5t-30.5 -11.5zM169 -180q-29 0 -29 38q0 15 10.5 26t26.5 11q18 0 27.5 -10.5t9.5 -26.5q0 -15 -14.5 -26.5t-30.5 -11.5zM330 -195q-29 0 -29 38q0 15 10.5 26t26.5 11q18 0 27.5 -10.5t9.5 -26.5q0 -15 -14.5 -26.5
t-30.5 -11.5z" />
    <glyph glyph-name="uni05B2" unicode="&#x5b2;" 
d="M359 -88q-29 0 -29 38q0 15 10.5 26t26.5 11q18 0 27.5 -10.5t9.5 -26.5q0 -15 -14.5 -26.5t-30.5 -11.5zM259 -83q-2 0 -140 8q-13 1 -22 8.5t-9 17.5q0 24 31 24q5 0 68.5 3.5t71.5 3.5q14 0 23 -9.5t9 -22.5q0 -15 -10 -24t-22 -9zM330 -192q-29 0 -29 38
q0 15 10.5 26t26.5 11q18 0 27.5 -10.5t9.5 -26.5q0 -15 -14.5 -26.5t-30.5 -11.5z" />
    <glyph glyph-name="uni05B3" unicode="&#x5b3;" 
d="M367 -13q18 0 27.5 -10.5t9.5 -26.5q0 -15 -14.5 -26.5t-30.5 -11.5q-29 0 -29 38q0 15 10.5 26t26.5 11zM269 -15q14 0 23 -9t9 -23q0 -15 -10 -23.5t-22 -8.5q-24 0 -47 1v-72q0 -20 -8 -28.5t-26 -8.5q-16 0 -26 12.5t-6 28.5l17 71q-30 2 -44 4q-30 4 -30 26
q0 24 30 24q5 0 68.5 3t71.5 3zM345 -117q18 0 27.5 -10.5t9.5 -26.5q0 -15 -14.5 -26.5t-30.5 -11.5q-29 0 -29 38q0 15 10.5 26t26.5 11z" />
    <glyph glyph-name="uni05B4" unicode="&#x5b4;" 
d="M244 -116q-34 0 -34 43q0 18 13 30.5t31 12.5q21 0 32 -12t11 -31q0 -17 -17.5 -30t-35.5 -13z" />
    <glyph glyph-name="uni05B5" unicode="&#x5b5;" 
d="M204 -110q-29 0 -29 38q0 15 10.5 26t26.5 11q18 0 27.5 -10.5t9.5 -26.5q0 -15 -14.5 -26.5t-30.5 -11.5zM305 -110q-29 0 -29 38q0 15 10.5 26t26.5 11q18 0 27.5 -10.5t9.5 -26.5q0 -15 -14.5 -26.5t-30.5 -11.5z" />
    <glyph glyph-name="uni05B6" unicode="&#x5b6;" 
d="M194 -83q-29 0 -29 38q0 15 10.5 26t26.5 11q18 0 27.5 -10.5t9.5 -26.5q0 -15 -14.5 -26.5t-30.5 -11.5zM305 -89q-29 0 -29 38q0 15 10.5 26t26.5 11q18 0 27.5 -10.5t9.5 -26.5q0 -15 -14.5 -26.5t-30.5 -11.5zM228 -184q-29 0 -29 38q0 15 10.5 26t26.5 11
q18 0 27.5 -10.5t9.5 -26.5q0 -15 -14.5 -26.5t-30.5 -11.5z" />
    <glyph glyph-name="uni05B7" unicode="&#x5b7;" 
d="M371 -124q-53 0 -146 9q-32 2 -32 27t32 25q6 0 72 3.5t74 3.5q15 0 24.5 -9.5t9.5 -24.5q0 -16 -10.5 -25t-23.5 -9z" />
    <glyph glyph-name="uni05B8" unicode="&#x5b8;" 
d="M377 -24q15 0 25 -10.5t10 -25.5q0 -16 -11 -25.5t-24 -9.5q-2 0 -56 2l3 -34.5t2 -24.5q0 -29 -6 -39t-31 -10q-24 0 -34 16.5t-1 38.5l24 56q-39 2 -55 4q-33 3 -33 28q0 27 33 27q6 0 76 3.5t78 3.5z" />
    <glyph glyph-name="uni05B9" unicode="&#x5b9;" 
d="M388 532q-34 0 -34 43q0 18 13 30.5t31 12.5q21 0 32 -12t11 -31q0 -17 -17.5 -30t-35.5 -13z" />
    <glyph glyph-name="uni05BA" unicode="&#x5ba;" 
d="M371 525q-34 0 -34 42q0 18 13 30.5t31 12.5q21 0 32 -12t11 -31q0 -17 -17 -29.5t-36 -12.5z" />
    <glyph glyph-name="uni05BB" unicode="&#x5bb;" 
d="M171 -80q-29 0 -29 38q0 15 10.5 26t26.5 11q18 0 27.5 -10.5t9.5 -26.5q0 -15 -14.5 -26.5t-30.5 -11.5zM231 -155q-29 0 -29 38q0 15 10.5 26t26.5 11q18 0 27.5 -10.5t9.5 -26.5q0 -15 -14.5 -26.5t-30.5 -11.5zM291 -235q-29 0 -29 38q0 15 10.5 26t26.5 11
q18 0 27.5 -10.5t9.5 -26.5q0 -15 -14.5 -26.5t-30.5 -11.5z" />
    <glyph glyph-name="uni05BC" unicode="&#x5bc;" 
d="M251 296q-29 0 -29 38q0 15 10.5 26t26.5 11q18 0 27.5 -10.5t9.5 -26.5q0 -15 -14.5 -26.5t-30.5 -11.5z" />
    <glyph glyph-name="uni05BE" unicode="&#x5be;" horiz-adv-x="357" 
d="M337 438q-5 0 -33 -3t-52.5 -5t-59.5 -2t-62 4q-30 5 -40.5 28.5t1.5 46t39 24.5q45 3 80.5 2t81 -3.5t55.5 -2.5q13 0 26 -12.5t13 -29.5q0 -20 -13.5 -32.5t-35.5 -14.5z" />
    <glyph glyph-name="uni05BF" unicode="&#x5bf;" 
d="M413 547q-86 0 -150 8q-29 3 -29 25t29 22q5 0 74 3.5t76 3.5q14 0 22.5 -9t8.5 -22q0 -14 -9.5 -22.5t-21.5 -8.5z" />
    <glyph glyph-name="uni05C1" unicode="&#x5c1;" 
d="M371 525q-34 0 -34 42q0 18 13 30.5t31 12.5q21 0 32 -12t11 -31q0 -17 -17 -29.5t-36 -12.5z" />
    <glyph glyph-name="uni05C2" unicode="&#x5c2;" 
d="M371 525q-34 0 -34 42q0 18 13 30.5t31 12.5q21 0 32 -12t11 -31q0 -17 -17 -29.5t-36 -12.5z" />
    <glyph glyph-name="uni05C7" unicode="&#x5c7;" 
d="M307 -35q23 0 23 -24q0 -10 -7.5 -16.5t-15.5 -6.5q-3 0 -8 0.5t-14 1t-16 0.5q0 -6 1 -15.5t2 -16t1 -7.5q0 -19 -4 -26t-20 -7t-22.5 11t-0.5 26l15 36l-36 3q-22 4 -22 19q0 18 22 18q4 0 50 2t52 2z" />
    <glyph glyph-name="uni05D0" unicode="&#x5d0;" horiz-adv-x="537" 
d="M-25 -72q-41 10 -17 118q12 57 96.5 276t107.5 253q43 61 94 44q17 -6 23 -32t-9 -62q-30 -63 -116.5 -272t-96.5 -257q-18 -83 -82 -68zM339 -19q-20 2 -46 14t-54 33t-45 57t-14 79q4 49 31.5 95t63.5 77t77 56t68 36.5t41 15.5q66 18 89 -16q17 -22 4 -50t-52 -42
q-30 -10 -59 -23.5t-65.5 -36t-59 -53t-22.5 -63.5q0 -32 20 -55t43.5 -32t43.5 -18.5t20 -18.5q0 -25 -24.5 -42t-59.5 -13z" />
    <glyph glyph-name="uni05D1" unicode="&#x5d1;" horiz-adv-x="642" 
d="M-4 -99q-18 7 -21.5 32t17.5 63l24 39.5t36.5 57.5l37.5 53t42.5 46.5t37.5 18.5q19 2 36 -10.5t29 -29t32.5 -30.5t44.5 -15q54 -2 122 48t63 100q-4 43 -44 68.5t-88 25.5q-50 0 -129 -22t-103 -25q-28 -5 -52.5 -1.5t-36.5 20.5q-30 42 34 80q35 21 128.5 43t174.5 17
q90 -5 165 -66t71 -148q-3 -59 -56 -117t-126.5 -92t-134.5 -30q-69 4 -123 55q-83 -120 -100 -153q-25 -49 -81 -28z" />
    <glyph glyph-name="uni05D2" unicode="&#x5d2;" horiz-adv-x="513" 
d="M412 427q52 0 83 -16.5t31 -41.5q0 -29 -31.5 -55t-90.5 -26q-30 0 -67 14q-115 -38 -193.5 -105.5t-78.5 -129.5q0 -48 25.5 -83.5t72.5 -69.5q22 -16 26.5 -41.5t-16.5 -44.5q-17 -12 -45.5 -4.5t-55.5 28.5q-61 47 -93.5 107.5t-25.5 125.5q10 99 86.5 171.5
t183.5 118.5q-55 53 -72 110q-22 71 19 97q29 18 59.5 -2.5t49.5 -68.5q25 -61 75 -93q37 9 58 9z" />
    <glyph glyph-name="uni05D3" unicode="&#x5d3;" horiz-adv-x="519" 
d="M393 666q77 -8 127 -50.5t42 -115.5q-4 -41 -28 -76.5t-58.5 -59t-64 -37.5t-57.5 -22q53 -22 42 -132q-3 -30 -7.5 -52.5t-14.5 -42.5t-13.5 -26.5t-19 -27t-16.5 -21.5q-15 -21 -42 -22.5t-42 16.5t-1 43q44 84 50 140q3 30 -13 46t-61 21q-16 2 -40.5 -1l-44 -5.5
t-39 -1t-32 13t-16.5 35.5q-5 36 42.5 52.5t97.5 15.5l49 -2q56 17 121 55t89 65q24 23 16 50.5t-51 32.5q-88 8 -178 -29q-36 -15 -79 -17.5t-65 15.5q-13 25 -5.5 46t23.5 34q35 28 128 47.5t161 12.5z" />
    <glyph glyph-name="uni05D4" unicode="&#x5d4;" horiz-adv-x="651" 
d="M401 5q-18 -11 -36 -16t-34.5 -0.5t-24.5 21.5q-16 35 44 89q4 3 28 24.5l36 33l35.5 35t36.5 42.5t27.5 42.5t20.5 47t4 46.5q-4 53 -60 80.5t-148 20.5t-191 -51q-68 -30 -93 9q-12 19 -1 41.5t42 41.5q94 58 208 70t208.5 -28.5t127.5 -124.5q23 -53 13 -108
t-34.5 -102t-64 -91t-75.5 -73.5t-69 -49.5zM27 -12q-16 9 -24.5 24.5t-3.5 38.5t30 44q67 58 95 177q6 25 34.5 36t48.5 -1q45 -21 24 -93q-15 -53 -50 -111t-74 -88q-53 -42 -80 -27z" />
    <glyph glyph-name="uni05D5" unicode="&#x5d5;" horiz-adv-x="233" 
d="M-21 -14q-27 10 -2 94q2 7 28 74.5l61.5 166.5t60.5 186q20 68 43 96.5t62 17.5q59 -16 25 -128q-29 -94 -101 -261t-97 -207q-21 -33 -41.5 -41t-38.5 2z" />
    <glyph glyph-name="uni05D6" unicode="&#x5d6;" horiz-adv-x="541" 
d="M256 446q43 10 83.5 10.5t82 -11t66.5 -49.5t25 -99q0 -56 -29 -110.5t-72 -95.5t-99 -77.5t-103 -59t-91 -38.5q-61 -20 -109 -17t-76.5 23.5t-23.5 47.5q2 13 12.5 20t22 7.5l24 1t19.5 0.5q62 6 141 42.5t145 80.5q47 31 83 74t45.5 82t-21.5 63q-20 17 -63.5 10
t-79.5 -20.5t-74.5 -30t-48.5 -18.5q-29 -5 -50 13t-22 42.5t15 45.5q15 15 119 138.5t129 155.5q24 30 53.5 37t53.5 -10q26 -16 23 -51t-33 -64z" />
    <glyph glyph-name="uni05D7" unicode="&#x5d7;" horiz-adv-x="658" 
d="M520 542q73 -20 112 -87.5t9 -149.5q-24 -63 -74 -144.5t-114.5 -140.5t-107.5 -36q-21 11 -25 28t9 39.5t27.5 41t37.5 44.5t33 39q12 16 25 35.5t30.5 48.5t27.5 55t14 51t-8 42t-39 22q-76 13 -214 -34q-135 -271 -176 -328q-27 -38 -48 -52t-44 -4q-19 8 -22 32
t17 62q10 17 119 229q-47 -7 -62 32q-11 28 20.5 59.5t73.5 50.5q12 5 47 17q11 21 36 75q22 50 49.5 72.5t52.5 10.5q49 -22 11 -105l-8 -17q136 28 191 12z" />
    <glyph glyph-name="uni05D8" unicode="&#x5d8;" horiz-adv-x="564" 
d="M244 -21q-87 0 -150 59.5t-63 154.5q0 119 50.5 232.5t134 198t198 135.5t236.5 51q45 0 72.5 -4t47 -17t19.5 -37q0 -53 -84 -53q-108 0 -207.5 -36t-176 -100.5t-122 -162.5t-45.5 -214q0 -36 27.5 -63t64.5 -27q58 0 96 53t54 130q7 33 26.5 49t39.5 16q33 0 48.5 -30
t8.5 -73q-5 -31 -25 -72.5t-52.5 -85.5t-85 -74t-112.5 -30z" />
    <glyph glyph-name="uni05D9" unicode="&#x5d9;" horiz-adv-x="207" 
d="M62 229q-18 7 -23 26t2.5 49t18 58.5l25 66.5t21.5 62q10 37 33.5 55.5t48.5 10.5q59 -20 27 -110l-7 -20l-9 -26l-10.5 -30.5t-12.5 -32t-15 -31.5t-16.5 -29.5t-18 -25t-20 -17.5t-21.5 -8.5t-23 2.5z" />
    <glyph glyph-name="uni05DA" unicode="&#x5da;" horiz-adv-x="430" 
d="M-56 -370q-38 30 5 90q27 38 65 97l64 101.5l58 95.5t34 56l54 90t41 92t23 108q0 63 -42.5 99t-102.5 24q-79 -15 -87 37q-8 47 36 67t116 11q73 -9 119.5 -47.5t62 -91.5t13 -114.5t-22 -120t-49.5 -106.5q-5 -7 -37 -59l-49.5 -80l-52 -81.5l-59 -89l-55 -76.5
t-54.5 -68q-18 -20 -35.5 -30t-27.5 -8.5t-17 4.5z" />
    <glyph glyph-name="uni05DB" unicode="&#x5db;" horiz-adv-x="596" 
d="M87 -8q-56 18 -84.5 53t-18.5 64q12 37 97 5l26 -10q102 -40 203.5 9.5t131.5 154.5q26 93 -28 143.5t-149 48.5q-115 -2 -138 5q-30 8 -32 37q-4 49 72 68q69 17 136.5 10t119 -34.5t90 -71t48.5 -99.5t-5 -120q-23 -82 -67 -140.5t-95 -88t-108.5 -42t-107 -9
t-91.5 16.5z" />
    <glyph glyph-name="uni05DC" unicode="&#x5dc;" horiz-adv-x="265" 
d="M672 913q31 -26 39.5 -55t-5.5 -38q-14 -15 -37 -10t-41 17t-44.5 24.5t-47.5 13.5q-43 1 -81.5 -23.5t-68 -63.5t-56 -98t-44.5 -113.5t-35.5 -125t-27.5 -117.5t-21 -105q-1 -7 -2 -11q-12 -60 -29.5 -104t-35 -66.5t-39 -35t-37 -14.5t-32.5 -1q-39 4 -57 34t-13 77
q5 45 29.5 76.5t50.5 43t56 16.5q35 203 106 421q49 152 131.5 227.5t188.5 79.5q38 2 81 -11.5t72 -37.5z" />
    <glyph glyph-name="uni05DD" unicode="&#x5dd;" horiz-adv-x="568" 
d="M371 530q61 -8 115 -72t54 -159q0 -93 -56 -156t-140 -63q-111 0 -201 142q-30 -81 -67 -164t-52 -97q-24 -23 -51 -12.5t-27 41.5q0 16 19.5 74.5l50 146t46.5 144.5q14 49 52 49q6 0 9 -1q5 29 26 50q29 29 93 57t129 20zM433 315q1 46 -28 77t-57 33q-32 2 -68.5 -16
t-54.5 -33t-26 -24q-5 -6 -13 -7l27.5 -45t33.5 -45.5t47.5 -44t53.5 -19.5q34 -4 59 33t26 91z" />
    <glyph glyph-name="uni05DE" unicode="&#x5de;" horiz-adv-x="450" 
d="M482 622q52 -27 13 -122q-16 -39 -88 -192.5t-104 -243.5q-15 -42 -39 -60t-49 -8q-55 22 -79 139q-5 28 -7 52q-38 -98 -79 -151q-41 -54 -77 -35q-19 10 -21.5 29t6.5 41.5t30 64.5q28 54 98 227q25 61 41 81t40 14q22 -6 31 -23.5t9.5 -38.5t1.5 -67.5t6 -86.5
q5 -39 6 -67q27 76 90.5 220.5t82.5 177.5q40 74 88 49z" />
    <glyph glyph-name="uni05DF" unicode="&#x5df;" horiz-adv-x="220" 
d="M-153 -354q-23 8 -20 56t32 92t122 290.5t133 397.5q6 22 14.5 45t23 52.5t35.5 44.5t44 8q58 -17 12 -152q-73 -221 -176.5 -468t-135.5 -299q-28 -45 -45 -60t-39 -7z" />
    <glyph glyph-name="uni05E0" unicode="&#x5e0;" horiz-adv-x="236" 
d="M-345 -319q-68 5 -103 28.5t-31 58.5q3 23 37 28t62 0q22 1 46.5 -1t52.5 5.5t57 17.5t59.5 34.5t59.5 56.5t58 83.5t54.5 115t48.5 152.5t41 195q9 56 36 87t69 16q17 -6 24.5 -19t6 -34.5t-5 -39.5t-12 -48.5t-11.5 -46.5q-10 -47 -21 -92t-36 -120t-53.5 -137.5
t-73.5 -131t-95.5 -114t-121 -73t-148.5 -21.5z" />
    <glyph glyph-name="uni05E1" unicode="&#x5e1;" horiz-adv-x="566" 
d="M381 562q70 -8 118.5 -63t38.5 -151q-10 -89 -44 -164t-80 -121t-98 -69t-100 -18q-38 4 -72 19t-65 43.5t-46.5 78t-8.5 114.5q17 166 151 219q-7 8 -8 17q-10 46 41 72q33 16 82 22t91 1zM429 362q5 44 -16 71t-49 30q-23 3 -107 -23q1 -7 0 -19q-1 -13 -29.5 -35.5
t-57.5 -56.5t-33 -76q-7 -69 15 -116t61 -52q40 -5 75 15t59 52t42.5 73t27.5 75.5t12 61.5z" />
    <glyph glyph-name="uni05E2" unicode="&#x5e2;" horiz-adv-x="518" 
d="M579 512q12 -31 -13.5 -48t-71.5 -23q-52 -7 -118 -30q17 -82 22 -154t-4 -144.5t-45.5 -125.5t-99.5 -76q-67 -24 -137.5 2.5t-99.5 105.5q-49 133 18 259.5t206 202.5l-6 16q-7 19 -18 45l-19.5 46t-17 43t-12 40t-3.5 33t8 26.5t23 16.5q13 4 19 5.5t20 1.5t24 -6.5
t22 -23t22 -42.5q24 -64 50 -153q67 21 138 24q76 3 93 -41zM200 6q15 6 32 28t34 66t18.5 107.5t-14.5 152.5q-94 -57 -139 -136t-13 -166q26 -72 82 -52z" />
    <glyph glyph-name="uni05E3" unicode="&#x5e3;" horiz-adv-x="309" 
d="M564 1002q93 4 133 -36t33 -115q-8 -82 -82 -126.5t-223 -76.5q-37 -8 -81 -20q-56 -158 -99 -420q-10 -60 -27 -104t-34.5 -66.5t-40 -35t-38 -14.5t-33.5 -1q-39 4 -57 34t-13 77q5 45 29.5 76t49.5 43t55 17q31 188 73 342q-97 -47 -152 -123q-4 -5 -14 -21t-16.5 -24
t-17 -18t-21.5 -13t-23 0q-23 6 -33 35t1 60q29 78 113.5 138t202.5 99q49 145 130.5 217t184.5 76zM413 751q134 25 188 78q34 33 6 49q-14 9 -43 9q-93 0 -168 -139z" />
    <glyph glyph-name="uni05E4" unicode="&#x5e4;" horiz-adv-x="624" 
d="M192 -56q-85 0 -140.5 45.5t-55.5 147.5q0 89 65 164t137 88t124 -30.5t36 -114.5q-5 -24 -36 -58t-66.5 -51.5t-63.5 1.5q-13 11 4.5 41.5l36.5 61.5t7 43q-13 13 -45.5 -3t-62 -58.5t-29.5 -93.5q0 -33 23.5 -51.5t65.5 -18.5q30 0 68.5 13t81 41.5t78 67t58.5 95.5
t23 121q0 69 -29 107.5t-76 47.5q-49 9 -110 -7.5t-112 -50.5q-60 -41 -91 -9q-18 17 -5 49t55 62q91 65 246 67q120 1 183 -90.5t53 -211.5q-9 -110 -74 -207t-159.5 -152.5t-189.5 -55.5z" />
    <glyph glyph-name="uni05E5" unicode="&#x5e5;" horiz-adv-x="265" 
d="M519 1032q94 4 133.5 -31.5t32.5 -109.5q-8 -86 -92.5 -149.5t-222.5 -93.5q-41 -9 -67 -11q-48 -145 -103 -429q-12 -60 -29.5 -104t-35 -66.5t-39 -35t-37 -14.5t-32.5 -1q-39 4 -57 34t-13 77q13 114 134 136q34 227 83 407q-48 11 -83 36t-52 56t-28 66t-10.5 65.5
t1.5 55.5q12 100 62 100q40 0 40 -70q0 -162 105 -197q99 271 310 279zM388 761q132 38 177 94q30 37 -3 54q-15 8 -43 8q-93 0 -172 -166q31 7 41 10z" />
    <glyph glyph-name="uni05E6" unicode="&#x5e6;" horiz-adv-x="536" 
d="M534 525q-12 -58 -51 -102t-81 -65q45 -19 68.5 -69.5t16.5 -90.5q-15 -77 -65.5 -129.5t-113.5 -75.5t-144 -31q-100 -10 -154 13q-40 17 -53 48.5t16 58.5q14 12 32 13t34 -4.5t43 -10.5t52 -4q104 4 167.5 42t72.5 85q8 43 -30 67t-98 21q-55 -3 -74.5 10.5
t-13.5 41.5q8 46 80 50q39 2 120 51.5t78 90.5q-2 29 -49 40t-103.5 6.5t-100.5 -17.5q-61 -17 -85.5 -8.5t-24.5 35.5q0 28 25 49.5t66.5 34t85 19.5t91.5 9q88 5 148 -47.5t45 -130.5z" />
    <glyph glyph-name="uni05E7" unicode="&#x5e7;" horiz-adv-x="536" 
d="M280 70q-25 27 -16.5 54.5t40.5 52.5q81 63 104.5 152t-25.5 139q-7 8 -17 13t-23.5 6.5t-24 2t-28 -1.5t-25.5 -3.5l-26.5 -5t-21.5 -3.5q-18 -3 -42 -11t-35.5 -11t-25.5 2.5t-26 23.5q-25 38 23.5 71t142.5 46q158 21 228 -69q57 -74 40.5 -189.5t-93.5 -193.5
q-52 -54 -92 -72.5t-57 -2.5zM-82 -239q-33 22 2 92q23 46 55.5 127l72.5 188.5l51 136.5q13 34 34.5 47.5t47.5 1.5q22 -10 29 -33t-7 -66q-154 -398 -184 -444q-53 -82 -101 -50z" />
    <glyph glyph-name="uni05E8" unicode="&#x5e8;" horiz-adv-x="547" 
d="M243 -31q-21 15 -16 40.5t35 46.5q52 38 91.5 129t39.5 169q0 46 -18 75.5t-47 39t-62 7.5t-65 -15q-51 -20 -81.5 -14t-39.5 34q-10 32 24.5 61t93.5 43t115 7q73 -9 120 -47.5t63.5 -91.5t14.5 -115t-20.5 -120.5t-48.5 -106.5q-25 -39 -52.5 -69.5t-49.5 -45
t-43.5 -24t-34 -7.5t-19.5 4z" />
    <glyph glyph-name="uni05E9" unicode="&#x5e9;" horiz-adv-x="574" 
d="M598 531q-8 -55 -56 -113t-118.5 -107.5t-138 -87t-136.5 -68.5q15 -54 47 -66q64 -25 124 17t91 109q38 82 88 61q48 -20 14 -102q-42 -102 -122 -156t-168 -40q-139 21 -179 136q-8 -1 -13 -3q-32 -5 -40.5 18t11.5 49q6 9 30 24q2 32 8 56q22 94 65.5 170t93.5 123
t106.5 79t104.5 44.5t88 12.5q60 0 85.5 -41t14.5 -115zM285 340q81 53 135.5 108t71 90.5t6.5 49.5q-12 16 -61.5 -1.5t-114 -62.5t-110.5 -101q-54 -67 -68 -162q90 45 141 79z" />
    <glyph glyph-name="uni05EA" unicode="&#x5ea;" horiz-adv-x="445" 
d="M367 389q24 -62 28.5 -136t-10 -124t-41.5 -50q-63 0 -60 90q4 97 -16 175.5t-57 87.5q1 -83 -23.5 -197.5t-74.5 -226.5t-110 -156q-140 -101 -334 -84q-26 2 -39 14t-11 33q4 40 60 48q13 2 52.5 4t76.5 8.5t70 19.5q90 37 147 178t74 302q9 81 27 123t61 47
q116 12 180 -156zM199 432h-2h2z" />
    <glyph glyph-name="uni05F3" unicode="&#x5f3;" horiz-adv-x="199" 
d="M125 447q-30 10 -15 55q61 182 64 200q5 26 25.5 43.5t38.5 12.5q27 -7 36.5 -27t1.5 -46q-24 -81 -76 -163t-75 -75z" />
    <glyph glyph-name="uni05F4" unicode="&#x5f4;" horiz-adv-x="333" 
d="M139 447q-30 10 -15 55q59 176 63 200q5 26 25.5 43.5t38.5 12.5q57 -15 39 -73q-24 -81 -76 -163t-75 -75zM273 447q-30 10 -15 55q61 182 64 200q5 26 25.5 43.5t38.5 12.5q27 -7 36.5 -27t1.5 -46q-24 -81 -76 -163t-75 -75z" />
    <glyph glyph-name="endash" unicode="&#x2013;" horiz-adv-x="540" 
d="M489 237q-300 0 -438 6q-42 2 -42 44q0 38 42 42q5 0 57.5 -0.5t165 -1t224.5 -0.5q17 0 28 -10.5t11 -28.5q0 -21 -13 -36t-35 -15z" />
    <glyph glyph-name="emdash" unicode="&#x2014;" horiz-adv-x="669" 
d="M47 242q-42 6 -42 47q0 15 13 27t29 15q6 1 64.5 1.5t141.5 0.5t163 -0.5t145 -1t71 -0.5q12 0 26 -11.5t15 -24.5q2 -14 -13 -31t-35 -17q-5 0 -157 -2l-265 -3.5t-156 0.5z" />
    <glyph glyph-name="quoteleft" unicode="&#x2018;" horiz-adv-x="199" 
d="M125 447q-30 10 -15 55q61 182 64 200q5 26 25.5 43.5t38.5 12.5q27 -7 36.5 -27t1.5 -46q-24 -81 -76 -163t-75 -75z" />
    <glyph glyph-name="quoteright" unicode="&#x2019;" horiz-adv-x="199" 
d="M125 447q-30 10 -15 55q61 182 64 200q5 26 25.5 43.5t38.5 12.5q27 -7 36.5 -27t1.5 -46q-24 -81 -76 -163t-75 -75z" />
    <glyph glyph-name="quotesinglbase" unicode="&#x201a;" horiz-adv-x="166" 
d="M-73 -166q-30 10 -15 55q61 182 64 200q5 26 25.5 43.5t38.5 12.5q27 -7 36.5 -27t1.5 -46q-24 -81 -76 -163t-75 -75z" />
    <glyph glyph-name="quotedblleft" unicode="&#x201c;" horiz-adv-x="333" 
d="M125 447q-30 10 -15 55q59 176 63 200q5 26 25.5 43.5t38.5 12.5q57 -15 39 -73q-24 -81 -76 -163t-75 -75zM259 447q-30 10 -15 55q61 182 64 200q5 26 25.5 43.5t38.5 12.5q27 -7 36.5 -27t1.5 -46q-24 -81 -76 -163t-75 -75z" />
    <glyph glyph-name="quotedblright" unicode="&#x201d;" horiz-adv-x="333" 
d="M125 447q-30 10 -15 55q59 176 63 200q5 26 25.5 43.5t38.5 12.5q57 -15 39 -73q-24 -81 -76 -163t-75 -75zM259 447q-30 10 -15 55q61 182 64 200q5 26 25.5 43.5t38.5 12.5q27 -7 36.5 -27t1.5 -46q-24 -81 -76 -163t-75 -75z" />
    <glyph glyph-name="quotedblbase" unicode="&#x201e;" horiz-adv-x="300" 
d="M-68 -149q-30 10 -15 55q59 176 63 200q5 26 25.5 43.5t38.5 12.5q57 -15 39 -73q-24 -81 -76 -163t-75 -75zM66 -149q-30 10 -15 55q61 182 64 200q5 26 25.5 43.5t38.5 12.5q27 -7 36.5 -27t1.5 -46q-24 -81 -76 -163t-75 -75z" />
    <glyph glyph-name="bullet" unicode="&#x2022;" horiz-adv-x="371" 
d="M174 127q-69 0 -104.5 39.5t-35.5 106.5q0 63 45.5 108t109.5 45q75 0 114 -43t39 -110q0 -62 -51.5 -104t-116.5 -42z" />
    <glyph glyph-name="uni20AA" unicode="&#x20aa;" horiz-adv-x="741" 
d="M385 342q-65 12 -178 -29q-121 -235 -143 -266q-42 -59 -76 -45q-16 6 -18 26t14 51l97 185q-38 -5 -50 26q-9 24 17 50t60 41q10 4 39 14q25 50 30 62q18 41 40 59.5t43 8.5q41 -18 9 -87l-7 -14q111 24 158 10q61 -17 93.5 -73t6.5 -122q-13 -35 -29 -68
q-10 -21 -31 -29.5t-43 2.5q-43 24 -14 80q7 13 11.5 30t6 36t-7 33.5t-28.5 18.5zM695 421q15 -4 22.5 -25.5t-2.5 -66.5q-3 -9 -15.5 -49l-25.5 -81.5t-20 -66.5q-14 -53 -54.5 -86t-93.5 -44q-94 -20 -175 6q-51 17 -82 69t-22 96q8 40 29 94q7 18 27 29t36 6
q15 -5 21.5 -21t-1.5 -40l-20 -56q-9 -29 7 -56.5t43 -37.5q56 -20 129 0q37 10 58 57q12 27 37.5 108.5t31.5 106.5q8 29 30 46t40 12z" />
    <glyph glyph-name="Euro" unicode="&#x20ac;" horiz-adv-x="578" 
d="M540 597q58 -19 80.5 -39.5t13.5 -47.5q-9 -29 -44 -35t-69 10q-74 28 -141 8t-114 -78l146 -2q12 0 25.5 -11.5t14.5 -26.5q2 -15 -9.5 -28.5t-30.5 -14.5q-12 -1 -192 -3q-1 -3 -2.5 -9t-2.5 -9q-2 -6 -4 -18q31 0 68 -1t61 -1.5t30 -0.5q13 0 25.5 -12.5t11.5 -29.5
q-2 -15 -16.5 -29t-33.5 -14q-9 0 -145 -4q27 -85 160 -82q92 2 113 -6q25 -9 27 -36q4 -49 -72 -68q-138 -35 -236 20.5t-113 169.5q-56 0 -64 1q-41 6 -38 51q1 15 14.5 27t30.5 15q5 1 60 1q4 20 7 30q0 1 0.5 2.5t0.5 2.5q-21 0 -25 1q-46 7 -43 47q1 13 12 24.5
t25 13.5q5 1 64 1q35 71 87.5 117.5t109 62.5t109 16t99.5 -15z" />
    <glyph glyph-name="alephsymbol" unicode="&#x2135;" horiz-adv-x="800" 
d="M402 297l-313 180l313 181l313 -181zM421 366l5 4q-2 4 -4 11.5t-5.5 24t-3.5 26.5q80 -1 154 36l14 -9l20 7l2 5l-43 24q-14 8 -3 25l-33 13l-28 -16l21 -18q-58 -44 -100 -45q3 50 36 127q-9 5 -26.5 6t-30.5 -1l-13 -1l3 -59q-46 17 -94 -13q-14 -8 -36 -42l-6 -1
l-13 7l-17 6l-30 -10l15 -15q16 3 25 -3l44 -26q23 7 29 11q2 4 8 18.5t13 26t16 18.5q23 17 44 6l-28 -142zM392 -82l-312 182l-1 360l313 -181v-361zM412 -82v362l313 180l-1 -360zM461 7l21 6q6 14 15 20l43 26q7 23 7 30q-31 45 -35 64q-6 26 18 43q12 -14 39 -38.5
l47 -42.5l21 -18l34 57v5q-41 7 -61 21q48 80 48 151l14 8l5 20l-4 3l-42 -23q-17 -10 -23 9l-29 -21v-32l26 9q9 -72 -14 -111q-25 19 -52 50.5t-36 46.5q-9 -5 -19 -19.5t-16 -26.5l-5 -12q35 -15 53 -26q-41 -33 -38 -88q2 -27 19 -53l-1 -6l-15 -8l-14 -11zM305 7l35 17
l-1 7q-42 53 -63 92q21 9 33 31t14 36t2 23l15 -8l6 14l-4 8l-43 24q-18 10 -25 38l-28 11v-31l27 -24q4 -23 2 -52.5t-16 -36.5q-18 31 -38 74.5l-35.5 79t-17.5 40.5q-11 5 -20.5 2.5t-15.5 -8.5l-5 -5q36 -53 54 -85q-19 7 -29.5 -4t-8.5 -39q1 -18 19 -74l-1 -3l-16 9
l-14 6l-6 -25l21 -18q3 9 16 2l45 -26q7 15 7 21q-33 89 -36 104q-4 14 -0.5 21t17.5 1z" />
    <glyph glyph-name="minus" unicode="&#x2212;" horiz-adv-x="467" 
d="M408 237q-341 0 -348 1q-42 6 -42 51q0 15 13 27t29 15q29 2 94.5 1t159.5 -3t103 -2q13 0 26 -12.5t13 -29.5q0 -15 -14.5 -31.5t-33.5 -16.5z" />
    <glyph glyph-name="uniFB2A" unicode="&#xfb2a;" horiz-adv-x="574" 
d="M661 730q21 0 32 -12t11 -31q0 -17 -17 -29.5t-36 -12.5q-34 0 -34 42q0 18 13 30.5t31 12.5zM498 687q60 0 85.5 -41t14.5 -115q-8 -55 -56 -113t-118.5 -107.5t-138 -87t-136.5 -68.5q15 -54 47 -66q64 -25 124 17t91 109q38 82 88 61q48 -20 14 -102
q-42 -102 -122 -156t-168 -40q-139 21 -179 136q-8 -1 -13 -3q-32 -5 -40.5 18t11.5 49q6 9 30 24q2 32 8 56q22 94 65.5 170t93.5 123t106.5 79t104.5 44.5t88 12.5zM285 340q81 53 135.5 108t71 90.5t6.5 49.5q-12 16 -61.5 -1.5t-114 -62.5t-110.5 -101q-54 -67 -68 -162
q90 45 141 79z" />
    <glyph glyph-name="uniFB2B" unicode="&#xfb2b;" horiz-adv-x="574" 
d="M197 612q-34 0 -34 42q0 18 13 30.5t31 12.5q21 0 32 -12t11 -31q0 -17 -17 -29.5t-36 -12.5zM598 531q-8 -55 -56 -113t-118.5 -107.5t-138 -87t-136.5 -68.5q15 -54 47 -66q64 -25 124 17t91 109q38 82 88 61q48 -20 14 -102q-42 -102 -122 -156t-168 -40
q-139 21 -179 136q-8 -1 -13 -3q-32 -5 -40.5 18t11.5 49q6 9 30 24q2 32 8 56q22 94 65.5 170t93.5 123t106.5 79t104.5 44.5t88 12.5q60 0 85.5 -41t14.5 -115zM285 340q81 53 135.5 108t71 90.5t6.5 49.5q-12 16 -61.5 -1.5t-114 -62.5t-110.5 -101q-54 -67 -68 -162
q90 45 141 79z" />
    <glyph glyph-name="uniFB2C" unicode="&#xfb2c;" horiz-adv-x="574" 
d="M661 730q21 0 32 -12t11 -31q0 -17 -17 -29.5t-36 -12.5q-34 0 -34 42q0 18 13 30.5t31 12.5zM498 687q60 0 85.5 -41t14.5 -115q-8 -55 -56 -113t-118.5 -107.5t-138 -87t-136.5 -68.5q15 -54 47 -66q64 -25 124 17t91 109q38 82 88 61q48 -20 14 -102
q-42 -102 -122 -156t-168 -40q-139 21 -179 136q-8 -1 -13 -3q-32 -5 -40.5 18t11.5 49q6 9 30 24q2 32 8 56q22 94 65.5 170t93.5 123t106.5 79t104.5 44.5t88 12.5zM285 340q81 53 135.5 108t71 90.5t6.5 49.5q-12 16 -61.5 -1.5t-114 -62.5t-110.5 -101q-54 -67 -68 -162
q90 45 141 79zM338 499q18 0 27.5 -10.5t9.5 -26.5q0 -15 -14.5 -26.5t-30.5 -11.5q-29 0 -29 38q0 15 10.5 26t26.5 11z" />
    <glyph glyph-name="uniFB2D" unicode="&#xfb2d;" horiz-adv-x="574" 
d="M197 612q-34 0 -34 42q0 18 13 30.5t31 12.5q21 0 32 -12t11 -31q0 -17 -17 -29.5t-36 -12.5zM598 531q-8 -55 -56 -113t-118.5 -107.5t-138 -87t-136.5 -68.5q15 -54 47 -66q64 -25 124 17t91 109q38 82 88 61q48 -20 14 -102q-42 -102 -122 -156t-168 -40
q-139 21 -179 136q-8 -1 -13 -3q-32 -5 -40.5 18t11.5 49q6 9 30 24q2 32 8 56q22 94 65.5 170t93.5 123t106.5 79t104.5 44.5t88 12.5q60 0 85.5 -41t14.5 -115zM285 340q81 53 135.5 108t71 90.5t6.5 49.5q-12 16 -61.5 -1.5t-114 -62.5t-110.5 -101q-54 -67 -68 -162
q90 45 141 79zM338 499q18 0 27.5 -10.5t9.5 -26.5q0 -15 -14.5 -26.5t-30.5 -11.5q-29 0 -29 38q0 15 10.5 26t26.5 11z" />
    <glyph glyph-name="uniFB2E" unicode="&#xfb2e;" horiz-adv-x="537" 
d="M-25 -72q-41 10 -17 118q12 57 96.5 276t107.5 253q43 61 94 44q17 -6 23 -32t-9 -62q-30 -63 -116.5 -272t-96.5 -257q-18 -83 -82 -68zM339 -19q-20 2 -46 14t-54 33t-45 57t-14 79q4 49 31.5 95t63.5 77t77 56t68 36.5t41 15.5q66 18 89 -16q17 -22 4 -50t-52 -42
q-30 -10 -59 -23.5t-65.5 -36t-59 -53t-22.5 -63.5q0 -32 20 -55t43.5 -32t43.5 -18.5t20 -18.5q0 -25 -24.5 -42t-59.5 -13zM250 -193q-53 0 -146 9q-32 2 -32 27t32 25q6 0 72 3.5t74 3.5q15 0 24.5 -9.5t9.5 -24.5q0 -16 -10.5 -25t-23.5 -9z" />
    <glyph glyph-name="uniFB2F" unicode="&#xfb2f;" horiz-adv-x="537" 
d="M256 619q17 -6 23 -32t-9 -62q-30 -63 -116.5 -272t-96.5 -257q-18 -83 -82 -68q-41 10 -17 118q12 57 96.5 276t107.5 253q43 61 94 44zM550 428q17 -22 4 -50t-52 -42q-30 -10 -59 -23.5t-65.5 -36t-59 -53t-22.5 -63.5q0 -32 20 -55t43.5 -32t43.5 -18.5t20 -18.5
q0 -25 -24.5 -42t-59.5 -13q-20 2 -46 14t-54 33t-45 57t-14 79q4 49 31.5 95t63.5 77t77 56t68 36.5t41 15.5q66 18 89 -16zM258 -96q15 0 25 -10.5t10 -25.5q0 -16 -11 -25.5t-24 -9.5q-2 0 -56 2l3 -34.5t2 -24.5q0 -29 -6 -39t-31 -10q-24 0 -34 16.5t-1 38.5l24 56
q-39 2 -55 4q-33 3 -33 28q0 27 33 27q6 0 76 3.5t78 3.5z" />
    <glyph glyph-name="uniFB30" unicode="&#xfb30;" horiz-adv-x="537" 
d="M-25 -72q-41 10 -17 118q12 57 96.5 276t107.5 253q43 61 94 44q17 -6 23 -32t-9 -62q-30 -63 -116.5 -272t-96.5 -257q-18 -83 -82 -68zM339 -19q-20 2 -46 14t-54 33t-45 57t-14 79q4 49 31.5 95t63.5 77t77 56t68 36.5t41 15.5q66 18 89 -16q17 -22 4 -50t-52 -42
q-30 -10 -59 -23.5t-65.5 -36t-59 -53t-22.5 -63.5q0 -32 20 -55t43.5 -32t43.5 -18.5t20 -18.5q0 -25 -24.5 -42t-59.5 -13zM397 149q-29 0 -29 38q0 15 10.5 26t26.5 11q18 0 27.5 -10.5t9.5 -26.5q0 -15 -14.5 -26.5t-30.5 -11.5z" />
    <glyph glyph-name="uniFB31" unicode="&#xfb31;" horiz-adv-x="642" 
d="M-4 -99q-18 7 -21.5 32t17.5 63l24 39.5t36.5 57.5l37.5 53t42.5 46.5t37.5 18.5q19 2 36 -10.5t29 -29t32.5 -30.5t44.5 -15q54 -2 122 48t63 100q-4 43 -44 68.5t-88 25.5q-50 0 -129 -22t-103 -25q-28 -5 -52.5 -1.5t-36.5 20.5q-30 42 34 80q35 21 128.5 43t174.5 17
q90 -5 165 -66t71 -148q-3 -59 -56 -117t-126.5 -92t-134.5 -30q-69 4 -123 55q-83 -120 -100 -153q-25 -49 -81 -28zM324 207q-29 0 -29 38q0 15 10.5 26t26.5 11q18 0 27.5 -10.5t9.5 -26.5q0 -15 -14.5 -26.5t-30.5 -11.5z" />
    <glyph glyph-name="uniFB32" unicode="&#xfb32;" horiz-adv-x="513" 
d="M412 427q52 0 83 -16.5t31 -41.5q0 -29 -31.5 -55t-90.5 -26q-30 0 -67 14q-115 -38 -193.5 -105.5t-78.5 -129.5q0 -48 25.5 -83.5t72.5 -69.5q22 -16 26.5 -41.5t-16.5 -44.5q-17 -12 -45.5 -4.5t-55.5 28.5q-61 47 -93.5 107.5t-25.5 125.5q10 99 86.5 171.5
t183.5 118.5q-55 53 -72 110q-22 71 19 97q29 18 59.5 -2.5t49.5 -68.5q25 -61 75 -93q37 9 58 9zM312 187q18 0 27.5 -10.5t9.5 -26.5q0 -15 -14.5 -26.5t-30.5 -11.5q-29 0 -29 38q0 15 10.5 26t26.5 11z" />
    <glyph glyph-name="uniFB33" unicode="&#xfb33;" horiz-adv-x="519" 
d="M393 666q77 -8 127 -50.5t42 -115.5q-4 -41 -28 -76.5t-58.5 -59t-64 -37.5t-57.5 -22q53 -22 42 -132q-3 -30 -7.5 -52.5t-14.5 -42.5t-13.5 -26.5t-19 -27t-16.5 -21.5q-15 -21 -42 -22.5t-42 16.5t-1 43q44 84 50 140q3 30 -13 46t-61 21q-16 2 -40.5 -1l-44 -5.5
t-39 -1t-32 13t-16.5 35.5q-5 36 42.5 52.5t97.5 15.5l49 -2q56 17 121 55t89 65q24 23 16 50.5t-51 32.5q-88 8 -178 -29q-36 -15 -79 -17.5t-65 15.5q-13 25 -5.5 46t23.5 34q35 28 128 47.5t161 12.5zM274 446q0 -15 -14.5 -26.5t-30.5 -11.5q-29 0 -29 38q0 15 10.5 26
t26.5 11q18 0 27.5 -10.5t9.5 -26.5z" />
    <glyph glyph-name="uniFB34" unicode="&#xfb34;" horiz-adv-x="651" 
d="M401 5q-18 -11 -36 -16t-34.5 -0.5t-24.5 21.5q-16 35 44 89q4 3 28 24.5l36 33l35.5 35t36.5 42.5t27.5 42.5t20.5 47t4 46.5q-4 53 -60 80.5t-148 20.5t-191 -51q-68 -30 -93 9q-12 19 -1 41.5t42 41.5q94 58 208 70t208.5 -28.5t127.5 -124.5q23 -53 13 -108
t-34.5 -102t-64 -91t-75.5 -73.5t-69 -49.5zM390 300q-29 0 -29 38q0 15 10.5 26t26.5 11q18 0 27.5 -10.5t9.5 -26.5q0 -15 -14.5 -26.5t-30.5 -11.5zM27 -12q-16 9 -24.5 24.5t-3.5 38.5t30 44q67 58 95 177q6 25 34.5 36t48.5 -1q45 -21 24 -93q-15 -53 -50 -111t-74 -88
q-53 -42 -80 -27z" />
    <glyph glyph-name="uniFB35" unicode="&#xfb35;" horiz-adv-x="233" 
d="M-21 -14q-27 10 -2 94q2 7 28 74.5l61.5 166.5t60.5 186q20 68 43 96.5t62 17.5q59 -16 25 -128q-29 -94 -101 -261t-97 -207q-21 -33 -41.5 -41t-38.5 2zM12 330q-29 0 -29 38q0 15 10.5 26t26.5 11q18 0 27.5 -10.5t9.5 -26.5q0 -15 -14.5 -26.5t-30.5 -11.5z" />
    <glyph glyph-name="uniFB36" unicode="&#xfb36;" horiz-adv-x="541" 
d="M256 446q43 10 83.5 10.5t82 -11t66.5 -49.5t25 -99q0 -56 -29 -110.5t-72 -95.5t-99 -77.5t-103 -59t-91 -38.5q-61 -20 -109 -17t-76.5 23.5t-23.5 47.5q2 13 12.5 20t22 7.5l24 1t19.5 0.5q62 6 141 42.5t145 80.5q47 31 83 74t45.5 82t-21.5 63q-20 17 -63.5 10
t-79.5 -20.5t-74.5 -30t-48.5 -18.5q-29 -5 -50 13t-22 42.5t15 45.5q15 15 119 138.5t129 155.5q24 30 53.5 37t53.5 -10q26 -16 23 -51t-33 -64zM250 198q0 -15 -14.5 -26.5t-30.5 -11.5q-29 0 -29 38q0 15 10.5 26t26.5 11q18 0 27.5 -10.5t9.5 -26.5z" />
    <glyph glyph-name="uniFB38" unicode="&#xfb38;" horiz-adv-x="564" 
d="M244 -21q-87 0 -150 59.5t-63 154.5q0 119 50.5 232.5t134 198t198 135.5t236.5 51q45 0 72.5 -4t47 -17t19.5 -37q0 -53 -84 -53q-108 0 -207.5 -36t-176 -100.5t-122 -162.5t-45.5 -214q0 -36 27.5 -63t64.5 -27q58 0 96 53t54 130q7 33 26.5 49t39.5 16q33 0 48.5 -30
t8.5 -73q-5 -31 -25 -72.5t-52.5 -85.5t-85 -74t-112.5 -30zM275 237q-29 0 -29 38q0 15 10.5 26t26.5 11q18 0 27.5 -10.5t9.5 -26.5q0 -15 -14.5 -26.5t-30.5 -11.5z" />
    <glyph glyph-name="uniFB39" unicode="&#xfb39;" horiz-adv-x="207" 
d="M62 229q-18 7 -23 26t2.5 49t18 58.5l25 66.5t21.5 62q10 37 33.5 55.5t48.5 10.5q59 -20 27 -110l-7 -20l-9 -26l-10.5 -30.5t-12.5 -32t-15 -31.5t-16.5 -29.5t-18 -25t-20 -17.5t-21.5 -8.5t-23 2.5zM39 101q-29 0 -29 38q0 15 10.5 26t26.5 11q18 0 27.5 -10.5
t9.5 -26.5q0 -15 -14.5 -26.5t-30.5 -11.5z" />
    <glyph glyph-name="uniFB3A" unicode="&#xfb3a;" horiz-adv-x="430" 
d="M-56 -370q-38 30 5 90q27 38 65 97l64 101.5l58 95.5t34 56l54 90t41 92t23 108q0 63 -42.5 99t-102.5 24q-79 -15 -87 37q-8 47 36 67t116 11q73 -9 119.5 -47.5t62 -91.5t13 -114.5t-22 -120t-49.5 -106.5q-5 -7 -37 -59l-49.5 -80l-52 -81.5l-59 -89l-55 -76.5
t-54.5 -68q-18 -20 -35.5 -30t-27.5 -8.5t-17 4.5zM121 252q-29 0 -29 38q0 15 10.5 26t26.5 11q18 0 27.5 -10.5t9.5 -26.5q0 -15 -14.5 -26.5t-30.5 -11.5z" />
    <glyph glyph-name="uniFB3B" unicode="&#xfb3b;" horiz-adv-x="596" 
d="M87 -8q-56 18 -84.5 53t-18.5 64q12 37 97 5l26 -10q102 -40 203.5 9.5t131.5 154.5q26 93 -28 143.5t-149 48.5q-115 -2 -138 5q-30 8 -32 37q-4 49 72 68q69 17 136.5 10t119 -34.5t90 -71t48.5 -99.5t-5 -120q-23 -82 -67 -140.5t-95 -88t-108.5 -42t-107 -9
t-91.5 16.5zM213 237q-29 0 -29 38q0 15 10.5 26t26.5 11q18 0 27.5 -10.5t9.5 -26.5q0 -15 -14.5 -26.5t-30.5 -11.5z" />
    <glyph glyph-name="uniFB3C" unicode="&#xfb3c;" horiz-adv-x="265" 
d="M672 913q31 -26 39.5 -55t-5.5 -38q-14 -15 -37 -10t-41 17t-44.5 24.5t-47.5 13.5q-43 1 -81.5 -23.5t-68 -63.5t-56 -98t-44.5 -113.5t-35.5 -125t-27.5 -117.5t-21 -105q-1 -7 -2 -11q-12 -60 -29.5 -104t-35 -66.5t-39 -35t-37 -14.5t-32.5 -1q-39 4 -57 34t-13 77
q5 45 29.5 76.5t50.5 43t56 16.5q35 203 106 421q49 152 131.5 227.5t188.5 79.5q38 2 81 -11.5t72 -37.5zM27 293q-29 0 -29 38q0 15 10.5 26t26.5 11q18 0 27.5 -10.5t9.5 -26.5q0 -15 -14.5 -26.5t-30.5 -11.5z" />
    <glyph glyph-name="uniFB3E" unicode="&#xfb3e;" horiz-adv-x="450" 
d="M482 622q52 -27 13 -122q-16 -39 -88 -192.5t-104 -243.5q-15 -42 -39 -60t-49 -8q-55 22 -79 139q-5 28 -7 52q-38 -98 -79 -151q-41 -54 -77 -35q-19 10 -21.5 29t6.5 41.5t30 64.5q28 54 98 227q25 61 41 81t40 14q22 -6 31 -23.5t9.5 -38.5t1.5 -67.5t6 -86.5
q5 -39 6 -67q27 76 90.5 220.5t82.5 177.5q40 74 88 49zM267 410q-29 0 -29 38q0 15 10.5 26t26.5 11q18 0 27.5 -10.5t9.5 -26.5q0 -15 -14.5 -26.5t-30.5 -11.5z" />
    <glyph glyph-name="uniFB40" unicode="&#xfb40;" horiz-adv-x="236" 
d="M-345 -319q-68 5 -103 28.5t-31 58.5q3 23 37 28t62 0q22 1 46.5 -1t52.5 5.5t57 17.5t59.5 34.5t59.5 56.5t58 83.5t54.5 115t48.5 152.5t41 195q9 56 36 87t69 16q17 -6 24.5 -19t6 -34.5t-5 -39.5t-12 -48.5t-11.5 -46.5q-10 -47 -21 -92t-36 -120t-53.5 -137.5
t-73.5 -131t-95.5 -114t-121 -73t-148.5 -21.5zM-20 237q-29 0 -29 38q0 15 10.5 26t26.5 11q18 0 27.5 -10.5t9.5 -26.5q0 -15 -14.5 -26.5t-30.5 -11.5z" />
    <glyph glyph-name="uniFB41" unicode="&#xfb41;" horiz-adv-x="566" 
d="M381 562q70 -8 118.5 -63t38.5 -151q-10 -89 -44 -164t-80 -121t-98 -69t-100 -18q-38 4 -72 19t-65 43.5t-46.5 78t-8.5 114.5q17 166 151 219q-7 8 -8 17q-10 46 41 72q33 16 82 22t91 1zM429 362q5 44 -16 71t-49 30q-23 3 -107 -23q1 -7 0 -19q-1 -13 -29.5 -35.5
t-57.5 -56.5t-33 -76q-7 -69 15 -116t61 -52q40 -5 75 15t59 52t42.5 73t27.5 75.5t12 61.5zM284 312q18 0 27.5 -10.5t9.5 -26.5q0 -15 -14.5 -26.5t-30.5 -11.5q-29 0 -29 38q0 15 10.5 26t26.5 11z" />
    <glyph glyph-name="uniFB43" unicode="&#xfb43;" horiz-adv-x="309" 
d="M564 1002q93 4 133 -36t33 -115q-8 -82 -82 -126.5t-223 -76.5q-37 -8 -81 -20q-56 -158 -99 -420q-10 -60 -27 -104t-34.5 -66.5t-40 -35t-38 -14.5t-33.5 -1q-39 4 -57 34t-13 77q5 45 29.5 76t49.5 43t55 17q31 188 73 342q-97 -47 -152 -123q-4 -5 -14 -21t-16.5 -24
t-17 -18t-21.5 -13t-23 0q-23 6 -33 35t1 60q29 78 113.5 138t202.5 99q49 145 130.5 217t184.5 76zM413 751q134 25 188 78q34 33 6 49q-14 9 -43 9q-93 0 -168 -139zM98 316q0 -15 -14.5 -26.5t-30.5 -11.5q-29 0 -29 38q0 15 10.5 26t26.5 11q18 0 27.5 -10.5t9.5 -26.5z
" />
    <glyph glyph-name="uniFB44" unicode="&#xfb44;" horiz-adv-x="624" 
d="M192 -56q-85 0 -140.5 45.5t-55.5 147.5q0 89 65 164t137 88t124 -30.5t36 -114.5q-5 -24 -36 -58t-66.5 -51.5t-63.5 1.5q-13 11 4.5 41.5l36.5 61.5t7 43q-13 13 -45.5 -3t-62 -58.5t-29.5 -93.5q0 -33 23.5 -51.5t65.5 -18.5q30 0 68.5 13t81 41.5t78 67t58.5 95.5
t23 121q0 69 -29 107.5t-76 47.5q-49 9 -110 -7.5t-112 -50.5q-60 -41 -91 -9q-18 17 -5 49t55 62q91 65 246 67q120 1 183 -90.5t53 -211.5q-9 -110 -74 -207t-159.5 -152.5t-189.5 -55.5zM373 407q-29 0 -29 38q0 15 10.5 26t26.5 11q18 0 27.5 -10.5t9.5 -26.5
q0 -15 -14.5 -26.5t-30.5 -11.5z" />
    <glyph glyph-name="uniFB46" unicode="&#xfb46;" horiz-adv-x="536" 
d="M534 525q-12 -58 -51 -102t-81 -65q45 -19 68.5 -69.5t16.5 -90.5q-15 -77 -65.5 -129.5t-113.5 -75.5t-144 -31q-100 -10 -154 13q-40 17 -53 48.5t16 58.5q14 12 32 13t34 -4.5t43 -10.5t52 -4q104 4 167.5 42t72.5 85q8 43 -30 67t-98 21q-55 -3 -74.5 10.5
t-13.5 41.5q8 46 80 50q39 2 120 51.5t78 90.5q-2 29 -49 40t-103.5 6.5t-100.5 -17.5q-61 -17 -85.5 -8.5t-24.5 35.5q0 28 25 49.5t66.5 34t85 19.5t91.5 9q88 5 148 -47.5t45 -130.5zM216 181q0 -15 -14.5 -26.5t-30.5 -11.5q-29 0 -29 38q0 15 10.5 26t26.5 11
q18 0 27.5 -10.5t9.5 -26.5z" />
    <glyph glyph-name="uniFB47" unicode="&#xfb47;" horiz-adv-x="536" 
d="M280 70q-25 27 -16.5 54.5t40.5 52.5q81 63 104.5 152t-25.5 139q-7 8 -17 13t-23.5 6.5t-24 2t-28 -1.5t-25.5 -3.5l-26.5 -5t-21.5 -3.5q-18 -3 -42 -11t-35.5 -11t-25.5 2.5t-26 23.5q-25 38 23.5 71t142.5 46q158 21 228 -69q57 -74 40.5 -189.5t-93.5 -193.5
q-52 -54 -92 -72.5t-57 -2.5zM308 324q-29 0 -29 38q0 15 10.5 26t26.5 11q18 0 27.5 -10.5t9.5 -26.5q0 -15 -14.5 -26.5t-30.5 -11.5zM-82 -239q-33 22 2 92q23 46 55.5 127l72.5 188.5l51 136.5q13 34 34.5 47.5t47.5 1.5q22 -10 29 -33t-7 -66q-154 -398 -184 -444
q-53 -82 -101 -50z" />
    <glyph glyph-name="uniFB48" unicode="&#xfb48;" horiz-adv-x="547" 
d="M243 -31q-21 15 -16 40.5t35 46.5q52 38 91.5 129t39.5 169q0 46 -18 75.5t-47 39t-62 7.5t-65 -15q-51 -20 -81.5 -14t-39.5 34q-10 32 24.5 61t93.5 43t115 7q73 -9 120 -47.5t63.5 -91.5t14.5 -115t-20.5 -120.5t-48.5 -106.5q-25 -39 -52.5 -69.5t-49.5 -45
t-43.5 -24t-34 -7.5t-19.5 4zM237 257q-29 0 -29 38q0 15 10.5 26t26.5 11q18 0 27.5 -10.5t9.5 -26.5q0 -15 -14.5 -26.5t-30.5 -11.5z" />
    <glyph glyph-name="uniFB49" unicode="&#xfb49;" horiz-adv-x="574" 
d="M598 531q-8 -55 -56 -113t-118.5 -107.5t-138 -87t-136.5 -68.5q15 -54 47 -66q64 -25 124 17t91 109q38 82 88 61q48 -20 14 -102q-42 -102 -122 -156t-168 -40q-139 21 -179 136q-8 -1 -13 -3q-32 -5 -40.5 18t11.5 49q6 9 30 24q2 32 8 56q22 94 65.5 170t93.5 123
t106.5 79t104.5 44.5t88 12.5q60 0 85.5 -41t14.5 -115zM285 340q81 53 135.5 108t71 90.5t6.5 49.5q-12 16 -61.5 -1.5t-114 -62.5t-110.5 -101q-54 -67 -68 -162q90 45 141 79zM338 499q18 0 27.5 -10.5t9.5 -26.5q0 -15 -14.5 -26.5t-30.5 -11.5q-29 0 -29 38
q0 15 10.5 26t26.5 11z" />
    <glyph glyph-name="uniFB4A" unicode="&#xfb4a;" horiz-adv-x="445" 
d="M367 389q24 -62 28.5 -136t-10 -124t-41.5 -50q-63 0 -60 90q4 97 -16 175.5t-57 87.5q1 -83 -23.5 -197.5t-74.5 -226.5t-110 -156q-140 -101 -334 -84q-26 2 -39 14t-11 33q4 40 60 48q13 2 52.5 4t76.5 8.5t70 19.5q90 37 147 178t74 302q9 81 27 123t61 47
q116 12 180 -156zM199 432h-2h2zM224 227q18 0 27.5 -10.5t9.5 -26.5q0 -15 -14.5 -26.5t-30.5 -11.5q-29 0 -29 38q0 15 10.5 26t26.5 11z" />
    <glyph glyph-name="uniFB4B" unicode="&#xfb4b;" horiz-adv-x="233" 
d="M264 695q-34 0 -34 43q0 18 13 30.5t31 12.5q21 0 32 -12t11 -31q0 -17 -17.5 -30t-35.5 -13zM-21 -14q-27 10 -2 94q2 7 28 74.5l61.5 166.5t60.5 186q20 68 43 96.5t62 17.5q59 -16 25 -128q-29 -94 -101 -261t-97 -207q-21 -33 -41.5 -41t-38.5 2z" />
    <glyph glyph-name="spacer" horiz-adv-x="193" 
d="M-6 -19q-20 6 -25.5 29.5t7.5 63.5q52 155 125 410q15 52 38.5 77.5t50.5 15.5q51 -18 26 -104q-21 -71 -71.5 -228.5t-67.5 -199.5q-32 -78 -83 -64z" />
    <glyph glyph-name="newsheqelsign.ss01" horiz-adv-x="888" 
d="M473 390q-76 13 -214 -34q-134 -266 -176 -325q-28 -37 -48.5 -50.5t-43.5 -4.5q-19 8 -22 32t17 62l117 225q-20 -3 -36.5 5.5t-23.5 26.5q-10 29 21 60t73 50q16 7 47 17l36 75q22 50 49.5 72.5t52.5 10.5q49 -22 11 -106q-1 -2 -3 -7.5t-4 -8.5q134 28 190 12
q73 -20 112 -87.5t9 -149.5q-17 -45 -35 -83q-12 -26 -37.5 -36t-52.5 3q-53 29 -17 97q8 16 14 36.5t8 44t-9 41.5t-35 22zM850 486q11 -3 20 -15.5t12.5 -37t-7.5 -59.5q-3 -11 -19 -59.5l-32 -99.5t-24 -81q-18 -63 -66.5 -103t-112.5 -55q-73 -14 -117 -11.5t-96 19.5
q-62 20 -100 83t-27 117q10 47 36 114q9 22 33 35.5t43 7.5t26.5 -25t-1.5 -49l-10 -26.5l-9.5 -25t-5.5 -16.5q-11 -35 8.5 -69t52.5 -46q66 -24 157 1q19 5 38.5 23t31.5 46q14 33 45 132.5t39 128.5q9 36 36 56.5t49 14.5z" />
    </font>
</defs>
</svg>
